<?xml version="1.0" encoding="us-ascii" standalone="no"?><svg xmlns="http://www.w3.org/2000/svg" xmlns:xlink="http://www.w3.org/1999/xlink" contentStyleType="text/css" height="792px" preserveAspectRatio="none" style="width:997px;height:792px;background:#FFFFFF;" version="1.1" viewBox="0 0 997 792" width="997px" zoomAndPan="magnify"><defs/><g><!--class Client--><g id="elem_Client"><rect codeLine="7" fill="#F1F1F1" height="124.2717" id="Client" rx="2.5" ry="2.5" style="stroke:#181818;stroke-width:0.5;" width="422" x="317" y="12.53"/><ellipse cx="504.25" cy="28.53" fill="#ADD1B2" rx="11" ry="11" style="stroke:#181818;stroke-width:1.0;"/><path d="M504.3594,24.0612 Q503.4375,24.0612 502.7031,24.3737 Q501.9844,24.6862 501.4844,25.28 Q500.9844,25.8581 500.7031,26.7331 Q500.4375,27.6081 500.4375,28.7019 Q500.4375,30.1394 500.875,31.1862 Q501.3281,32.2331 502.1719,32.78 Q503.0313,33.3269 504.3438,33.3269 Q505.125,33.3269 505.8125,33.2019 Q506.5156,33.0612 507.5156,32.7487 L507.5156,34.6237 Q506.6563,34.9519 505.8906,35.0769 Q505.1406,35.2019 504.125,35.2019 Q502.2031,35.2019 500.8906,34.405 Q499.5938,33.5925 498.9375,32.1237 Q498.2813,30.6394 498.2813,28.6706 Q498.2813,27.2487 498.6719,26.0769 Q499.0781,24.8894 499.8594,24.0144 Q500.6406,23.1394 501.7813,22.6706 Q502.9219,22.1862 504.3906,22.1862 Q505.3438,22.1862 506.2344,22.3894 Q507.1406,22.5769 508.0781,23.0456 L507.25,24.8269 Q506.4688,24.4519 505.8125,24.2644 Q505.1563,24.0612 504.3594,24.0612 Z " fill="#000000"/><text fill="#000000" font-family="sans-serif" font-size="14" lengthAdjust="spacing" textLength="39" x="524.75" y="33.962">Client</text><line style="stroke:#181818;stroke-width:0.5;" x1="318" x2="738" y1="44.53" y2="44.53"/><text fill="#000000" font-family="sans-serif" font-size="14" lengthAdjust="spacing" textLength="88" x="323" y="63.4959">-mails: Mail[]</text><line style="stroke:#181818;stroke-width:0.5;" x1="318" x2="738" y1="71.5979" y2="71.5979"/><text fill="#000000" font-family="sans-serif" font-size="14" lengthAdjust="spacing" text-decoration="underline" textLength="171" x="323" y="90.5639">+main(String[] args): void</text><text fill="#000000" font-family="sans-serif" font-size="14" lengthAdjust="spacing" textLength="410" x="323" y="109.6318">+Client(String victimFile, String messageFile, int groupCount)</text><text fill="#000000" font-family="sans-serif" font-size="14" lengthAdjust="spacing" textLength="104" x="323" y="128.6997">+execute(): void</text></g><!--class Handler--><g id="elem_Handler"><rect codeLine="14" fill="#F1F1F1" height="124.2717" id="Handler" rx="2.5" ry="2.5" style="stroke:#181818;stroke-width:0.5;" width="269" x="141.5" y="231.94"/><ellipse cx="244.75" cy="247.94" fill="#ADD1B2" rx="11" ry="11" style="stroke:#181818;stroke-width:1.0;"/><path d="M244.8594,243.4713 Q243.9375,243.4713 243.2031,243.7838 Q242.4844,244.0963 241.9844,244.69 Q241.4844,245.2681 241.2031,246.1431 Q240.9375,247.0181 240.9375,248.1119 Q240.9375,249.5494 241.375,250.5963 Q241.8281,251.6431 242.6719,252.19 Q243.5313,252.7369 244.8438,252.7369 Q245.625,252.7369 246.3125,252.6119 Q247.0156,252.4713 248.0156,252.1588 L248.0156,254.0338 Q247.1563,254.3619 246.3906,254.4869 Q245.6406,254.6119 244.625,254.6119 Q242.7031,254.6119 241.3906,253.815 Q240.0938,253.0025 239.4375,251.5338 Q238.7813,250.0494 238.7813,248.0806 Q238.7813,246.6588 239.1719,245.4869 Q239.5781,244.2994 240.3594,243.4244 Q241.1406,242.5494 242.2813,242.0806 Q243.4219,241.5963 244.8906,241.5963 Q245.8438,241.5963 246.7344,241.7994 Q247.6406,241.9869 248.5781,242.4556 L247.75,244.2369 Q246.9688,243.8619 246.3125,243.6744 Q245.6563,243.4713 244.8594,243.4713 Z " fill="#000000"/><text fill="#000000" font-family="sans-serif" font-size="14" lengthAdjust="spacing" textLength="54" x="265.25" y="253.372">Handler</text><line style="stroke:#181818;stroke-width:0.5;" x1="142.5" x2="409.5" y1="263.94" y2="263.94"/><text fill="#000000" font-family="sans-serif" font-size="14" lengthAdjust="spacing" textLength="98" x="147.5" y="282.9059">-socket: Socket</text><text fill="#000000" font-family="sans-serif" font-size="14" lengthAdjust="spacing" textLength="107" x="147.5" y="301.9739">-worker: Worker</text><line style="stroke:#181818;stroke-width:0.5;" x1="142.5" x2="409.5" y1="310.0758" y2="310.0758"/><text fill="#000000" font-family="sans-serif" font-size="14" lengthAdjust="spacing" textLength="257" x="147.5" y="329.0418">Handler(Socket socket, Worker worker)</text><text fill="#000000" font-family="sans-serif" font-size="14" lengthAdjust="spacing" textLength="80" x="147.5" y="348.1097">+run() : void</text></g><!--class Worker--><g id="elem_Worker"><rect codeLine="21" fill="#F1F1F1" height="135.3396" id="Worker" rx="2.5" ry="2.5" style="stroke:#181818;stroke-width:0.5;" width="218" x="254" y="459.34"/><ellipse cx="334.75" cy="475.34" fill="#ADD1B2" rx="11" ry="11" style="stroke:#181818;stroke-width:1.0;"/><path d="M334.8594,470.8713 Q333.9375,470.8713 333.2031,471.1838 Q332.4844,471.4963 331.9844,472.09 Q331.4844,472.6681 331.2031,473.5431 Q330.9375,474.4181 330.9375,475.5119 Q330.9375,476.9494 331.375,477.9963 Q331.8281,479.0431 332.6719,479.59 Q333.5313,480.1369 334.8438,480.1369 Q335.625,480.1369 336.3125,480.0119 Q337.0156,479.8713 338.0156,479.5588 L338.0156,481.4338 Q337.1563,481.7619 336.3906,481.8869 Q335.6406,482.0119 334.625,482.0119 Q332.7031,482.0119 331.3906,481.215 Q330.0938,480.4025 329.4375,478.9338 Q328.7813,477.4494 328.7813,475.4806 Q328.7813,474.0588 329.1719,472.8869 Q329.5781,471.6994 330.3594,470.8244 Q331.1406,469.9494 332.2813,469.4806 Q333.4219,468.9963 334.8906,468.9963 Q335.8438,468.9963 336.7344,469.1994 Q337.6406,469.3869 338.5781,469.8556 L337.75,471.6369 Q336.9688,471.2619 336.3125,471.0744 Q335.6563,470.8713 334.8594,470.8713 Z " fill="#000000"/><text fill="#000000" font-family="sans-serif" font-size="14" lengthAdjust="spacing" textLength="48" x="355.25" y="480.772">Worker</text><line style="stroke:#181818;stroke-width:0.5;" x1="255" x2="471" y1="491.34" y2="491.34"/><text fill="#000000" font-family="sans-serif" font-size="14" lengthAdjust="spacing" textLength="118" x="260" y="510.3059">Worker(Mail mail)</text><text fill="#000000" font-family="sans-serif" font-size="14" lengthAdjust="spacing" textLength="206" x="260" y="529.3739">+work(String message) : String</text><text fill="#000000" font-family="sans-serif" font-size="14" lengthAdjust="spacing" textLength="113" x="260" y="548.4418">-identity(): String</text><text fill="#000000" font-family="sans-serif" font-size="14" lengthAdjust="spacing" textLength="140" x="260" y="567.5097">-mailHeader(): String</text><text fill="#000000" font-family="sans-serif" font-size="14" lengthAdjust="spacing" textLength="124" x="260" y="586.5776">-mailBody(): String</text></g><!--class SmtpCommand--><g id="elem_SmtpCommand"><rect codeLine="29" fill="#F1F1F1" height="135.3396" id="SmtpCommand" rx="2.5" ry="2.5" style="stroke:#181818;stroke-width:0.5;" width="136" x="774" y="7"/><ellipse cx="789" cy="23" fill="#EB937F" rx="11" ry="11" style="stroke:#181818;stroke-width:1.0;"/><path d="M792.4688,29.5 L785.1563,29.5 L785.1563,16.8281 L792.4688,16.8281 L792.4688,18.7031 L787.2031,18.7031 L787.2031,21.9688 L792.1563,21.9688 L792.1563,23.8281 L787.2031,23.8281 L787.2031,27.625 L792.4688,27.625 L792.4688,29.5 Z " fill="#000000"/><text fill="#000000" font-family="sans-serif" font-size="14" lengthAdjust="spacing" textLength="104" x="803" y="28.432">SmtpCommand</text><line style="stroke:#181818;stroke-width:0.5;" x1="775" x2="909" y1="39" y2="39"/><text fill="#000000" font-family="sans-serif" font-size="14" lengthAdjust="spacing" textLength="36" x="780" y="57.9659">EHLO</text><text fill="#000000" font-family="sans-serif" font-size="14" lengthAdjust="spacing" textLength="34" x="780" y="77.0339">MAIL</text><text fill="#000000" font-family="sans-serif" font-size="14" lengthAdjust="spacing" textLength="34" x="780" y="96.1018">RCPT</text><text fill="#000000" font-family="sans-serif" font-size="14" lengthAdjust="spacing" textLength="36" x="780" y="115.1697">DATA</text><text fill="#000000" font-family="sans-serif" font-size="14" lengthAdjust="spacing" textLength="34" x="780" y="134.2376">QUIT</text></g><!--class SmtpStatus--><g id="elem_SmtpStatus"><rect codeLine="37" fill="#F1F1F1" height="116.2717" id="SmtpStatus" rx="2.5" ry="2.5" style="stroke:#181818;stroke-width:0.5;" width="109" x="308.5" y="669.22"/><ellipse cx="323.5" cy="685.22" fill="#EB937F" rx="11" ry="11" style="stroke:#181818;stroke-width:1.0;"/><path d="M326.9688,691.72 L319.6563,691.72 L319.6563,679.0481 L326.9688,679.0481 L326.9688,680.9231 L321.7031,680.9231 L321.7031,684.1888 L326.6563,684.1888 L326.6563,686.0481 L321.7031,686.0481 L321.7031,689.845 L326.9688,689.845 L326.9688,691.72 Z " fill="#000000"/><text fill="#000000" font-family="sans-serif" font-size="14" lengthAdjust="spacing" textLength="77" x="337.5" y="690.652">SmtpStatus</text><line style="stroke:#181818;stroke-width:0.5;" x1="309.5" x2="416.5" y1="701.22" y2="701.22"/><text fill="#000000" font-family="sans-serif" font-size="14" lengthAdjust="spacing" textLength="24" x="314.5" y="720.1859">220</text><text fill="#000000" font-family="sans-serif" font-size="14" lengthAdjust="spacing" textLength="24" x="314.5" y="739.2539">221</text><text fill="#000000" font-family="sans-serif" font-size="14" lengthAdjust="spacing" textLength="24" x="314.5" y="758.3218">250</text><text fill="#000000" font-family="sans-serif" font-size="14" lengthAdjust="spacing" textLength="24" x="314.5" y="777.3897">354</text></g><!--class Parser--><g id="elem_Parser"><rect codeLine="44" fill="#F1F1F1" height="181.4754" id="Parser" rx="2.5" ry="2.5" style="stroke:#181818;stroke-width:0.5;" width="418" x="572" y="203.34"/><ellipse cx="755.25" cy="219.34" fill="#ADD1B2" rx="11" ry="11" style="stroke:#181818;stroke-width:1.0;"/><path d="M755.3594,214.8713 Q754.4375,214.8713 753.7031,215.1838 Q752.9844,215.4963 752.4844,216.09 Q751.9844,216.6681 751.7031,217.5431 Q751.4375,218.4181 751.4375,219.5119 Q751.4375,220.9494 751.875,221.9963 Q752.3281,223.0431 753.1719,223.59 Q754.0313,224.1369 755.3438,224.1369 Q756.125,224.1369 756.8125,224.0119 Q757.5156,223.8713 758.5156,223.5588 L758.5156,225.4338 Q757.6563,225.7619 756.8906,225.8869 Q756.1406,226.0119 755.125,226.0119 Q753.2031,226.0119 751.8906,225.215 Q750.5938,224.4025 749.9375,222.9338 Q749.2813,221.4494 749.2813,219.4806 Q749.2813,218.0588 749.6719,216.8869 Q750.0781,215.6994 750.8594,214.8244 Q751.6406,213.9494 752.7813,213.4806 Q753.9219,212.9963 755.3906,212.9963 Q756.3438,212.9963 757.2344,213.1994 Q758.1406,213.3869 759.0781,213.8556 L758.25,215.6369 Q757.4688,215.2619 756.8125,215.0744 Q756.1563,214.8713 755.3594,214.8713 Z " fill="#000000"/><text fill="#000000" font-family="sans-serif" font-size="14" lengthAdjust="spacing" textLength="43" x="775.75" y="224.772">Parser</text><line style="stroke:#181818;stroke-width:0.5;" x1="573" x2="989" y1="235.34" y2="235.34"/><text fill="#000000" font-family="sans-serif" font-size="14" lengthAdjust="spacing" textLength="100" x="578" y="254.3059">-groups: Mail[]</text><line style="stroke:#181818;stroke-width:0.5;" x1="573" x2="989" y1="262.4079" y2="262.4079"/><text fill="#000000" font-family="sans-serif" font-size="14" lengthAdjust="spacing" textLength="406" x="578" y="281.3739">Parser(String victimFile, String messageFile, int groupCount)</text><text fill="#000000" font-family="sans-serif" font-size="14" lengthAdjust="spacing" textLength="287" x="578" y="300.4418">-selectMessage(messages: String[]): String</text><text fill="#000000" font-family="sans-serif" font-size="14" lengthAdjust="spacing" textLength="303" x="578" y="319.5097">-selectCandidate(candidates: String[]): String</text><text fill="#000000" font-family="sans-serif" font-size="14" lengthAdjust="spacing" textLength="292" x="578" y="338.5776">-selectVictims(candidates: String[]): String[]</text><text fill="#000000" font-family="sans-serif" font-size="14" lengthAdjust="spacing" textLength="134" x="578" y="357.6455">+getGroups(): Mail[]</text><text fill="#000000" font-family="sans-serif" font-size="14" lengthAdjust="spacing" text-decoration="underline" textLength="213" x="578" y="376.7134">-parseFile(String path) : String[]</text></g><!--class Mail--><g id="elem_Mail"><rect codeLine="54" fill="#F1F1F1" height="162.4075" id="Mail" rx="2.5" ry="2.5" style="stroke:#181818;stroke-width:0.5;" width="278" x="613" y="445.81"/><ellipse cx="733.25" cy="461.81" fill="#ADD1B2" rx="11" ry="11" style="stroke:#181818;stroke-width:1.0;"/><path d="M733.3594,457.3413 Q732.4375,457.3413 731.7031,457.6538 Q730.9844,457.9663 730.4844,458.56 Q729.9844,459.1381 729.7031,460.0131 Q729.4375,460.8881 729.4375,461.9819 Q729.4375,463.4194 729.875,464.4663 Q730.3281,465.5131 731.1719,466.06 Q732.0313,466.6069 733.3438,466.6069 Q734.125,466.6069 734.8125,466.4819 Q735.5156,466.3413 736.5156,466.0288 L736.5156,467.9038 Q735.6563,468.2319 734.8906,468.3569 Q734.1406,468.4819 733.125,468.4819 Q731.2031,468.4819 729.8906,467.685 Q728.5938,466.8725 727.9375,465.4038 Q727.2813,463.9194 727.2813,461.9506 Q727.2813,460.5288 727.6719,459.3569 Q728.0781,458.1694 728.8594,457.2944 Q729.6406,456.4194 730.7813,455.9506 Q731.9219,455.4663 733.3906,455.4663 Q734.3438,455.4663 735.2344,455.6694 Q736.1406,455.8569 737.0781,456.3256 L736.25,458.1069 Q735.4688,457.7319 734.8125,457.5444 Q734.1563,457.3413 733.3594,457.3413 Z " fill="#000000"/><text fill="#000000" font-family="sans-serif" font-size="14" lengthAdjust="spacing" textLength="29" x="753.75" y="467.242">Mail</text><line style="stroke:#181818;stroke-width:0.5;" x1="614" x2="890" y1="477.81" y2="477.81"/><text fill="#000000" font-family="sans-serif" font-size="14" lengthAdjust="spacing" textLength="125" x="619" y="496.7759">-receivers: String[]</text><text fill="#000000" font-family="sans-serif" font-size="14" lengthAdjust="spacing" textLength="114" x="619" y="515.8439">-message: String</text><line style="stroke:#181818;stroke-width:0.5;" x1="614" x2="890" y1="523.9458" y2="523.9458"/><text fill="#000000" font-family="sans-serif" font-size="14" lengthAdjust="spacing" textLength="266" x="619" y="542.9118">Mail(String[] receivers, String message)</text><text fill="#000000" font-family="sans-serif" font-size="14" lengthAdjust="spacing" textLength="135" x="619" y="561.9797">+getSender(): String</text><text fill="#000000" font-family="sans-serif" font-size="14" lengthAdjust="spacing" textLength="161" x="619" y="581.0476">+getReceivers(): String[]</text><text fill="#000000" font-family="sans-serif" font-size="14" lengthAdjust="spacing" textLength="147" x="619" y="600.1155">+getMessage(): String</text></g><!--class Runnable--><g id="elem_Runnable"><rect codeLine="63" fill="#F1F1F1" height="32" id="Runnable" rx="2.5" ry="2.5" style="stroke:#181818;stroke-width:0.5;" width="91" x="445.5" y="278.07"/><ellipse cx="460.5" cy="294.07" fill="#B4A7E5" rx="11" ry="11" style="stroke:#181818;stroke-width:1.0;"/><path d="M462.5938,300.57 L457.6875,300.57 L457.6875,299.195 L459.1094,298.8825 L459.1094,289.6013 L457.6875,289.2575 L457.6875,287.8981 L462.5938,287.8981 L462.5938,289.2575 L461.1719,289.6013 L461.1719,298.8825 L462.5938,299.195 L462.5938,300.57 Z " fill="#000000"/><text fill="#000000" font-family="sans-serif" font-size="14" font-style="italic" lengthAdjust="spacing" textLength="59" x="474.5" y="299.502">Runnable</text></g><!--class SmtpProcedureStep--><g id="elem_SmtpProcedureStep"><rect fill="#F1F1F1" height="32" id="SmtpProcedureStep" rx="2.5" ry="2.5" style="stroke:#181818;stroke-width:0.5;" width="166" x="7" y="511.01"/><ellipse cx="22" cy="527.01" fill="#ADD1B2" rx="11" ry="11" style="stroke:#181818;stroke-width:1.0;"/><path d="M22.1094,522.5413 Q21.1875,522.5413 20.4531,522.8538 Q19.7344,523.1663 19.2344,523.76 Q18.7344,524.3381 18.4531,525.2131 Q18.1875,526.0881 18.1875,527.1819 Q18.1875,528.6194 18.625,529.6663 Q19.0781,530.7131 19.9219,531.26 Q20.7813,531.8069 22.0938,531.8069 Q22.875,531.8069 23.5625,531.6819 Q24.2656,531.5413 25.2656,531.2288 L25.2656,533.1038 Q24.4063,533.4319 23.6406,533.5569 Q22.8906,533.6819 21.875,533.6819 Q19.9531,533.6819 18.6406,532.885 Q17.3438,532.0725 16.6875,530.6038 Q16.0313,529.1194 16.0313,527.1506 Q16.0313,525.7288 16.4219,524.5569 Q16.8281,523.3694 17.6094,522.4944 Q18.3906,521.6194 19.5313,521.1506 Q20.6719,520.6663 22.1406,520.6663 Q23.0938,520.6663 23.9844,520.8694 Q24.8906,521.0569 25.8281,521.5256 L25,523.3069 Q24.2188,522.9319 23.5625,522.7444 Q22.9063,522.5413 22.1094,522.5413 Z " fill="#000000"/><text fill="#000000" font-family="sans-serif" font-size="14" lengthAdjust="spacing" textLength="134" x="36" y="532.442">SmtpProcedureStep</text></g><!--link Client to Handler--><g id="link_Client_Handler"><path codeLine="65" d="M456.8,137.09 C422.45,166.73 385.8922,198.2598 351.5722,227.8798 " fill="none" id="Client-to-Handler" style="stroke:#181818;stroke-width:1.0;stroke-dasharray:7.0,7.0;"/><polygon fill="#181818" points="347.03,231.8,356.4568,228.9479,350.8152,228.5332,351.2299,222.8915,347.03,231.8" style="stroke:#181818;stroke-width:1.0;"/></g><!--link Client to Parser--><g id="link_Client_Parser"><path codeLine="66" d="M599.49,137.09 C623.3,157.56 645.7986,176.9005 671.6086,199.0705 " fill="none" id="Client-to-Parser" style="stroke:#181818;stroke-width:1.0;stroke-dasharray:7.0,7.0;"/><polygon fill="#181818" points="676.16,202.98,671.9392,194.0814,672.3671,199.7221,666.7265,200.15,676.16,202.98" style="stroke:#181818;stroke-width:1.0;"/></g><!--link Handler to Worker--><g id="link_Handler_Worker"><path codeLine="67" d="M299.2,356.66 C311.08,388.19 323.4434,421.0258 335.6134,453.3058 " fill="none" id="Handler-to-Worker" style="stroke:#181818;stroke-width:1.0;stroke-dasharray:7.0,7.0;"/><polygon fill="#181818" points="337.73,458.92,338.2979,449.0875,335.9661,454.2415,330.8122,451.9097,337.73,458.92" style="stroke:#181818;stroke-width:1.0;"/></g><!--link Runnable to Handler--><g id="link_Runnable_Handler"><path codeLine="68" d="M445.26,294.07 C433.77,294.07 440.28,294.07 428.79,294.07 " fill="none" id="Runnable-to-Handler" style="stroke:#181818;stroke-width:1.0;stroke-dasharray:7.0,7.0;"/><polygon fill="none" points="410.79,294.07,428.79,300.07,428.79,288.07,410.79,294.07" style="stroke:#181818;stroke-width:1.0;"/></g><!--link Parser to Mail--><g id="link_Parser_Mail"><path codeLine="69" d="M769.7,385.02 C767.21,404.91 765.3283,419.8969 762.8783,439.3869 " fill="none" id="Parser-to-Mail" style="stroke:#181818;stroke-width:1.0;stroke-dasharray:7.0,7.0;"/><polygon fill="#181818" points="762.13,445.34,767.2213,436.9092,762.7536,440.379,759.2837,435.9114,762.13,445.34" style="stroke:#181818;stroke-width:1.0;"/></g><!--link Worker to Mail--><g id="link_Worker_Mail"><path codeLine="70" d="M472.39,527.01 C515.99,527.01 560.69,527.01 606.85,527.01 " fill="none" id="Worker-to-Mail" style="stroke:#181818;stroke-width:1.0;"/><polygon fill="#181818" points="612.85,527.01,603.85,523.01,607.85,527.01,603.85,531.01,612.85,527.01" style="stroke:#181818;stroke-width:1.0;"/><polygon fill="#000000" points="518.5,514.863,509.4549,511.9241,509.4549,517.8019,518.5,514.863" style="stroke:#000000;stroke-width:1.0;"/><text fill="#000000" font-family="sans-serif" font-size="13" lengthAdjust="spacing" textLength="53" x="522.5" y="519.907">Message</text><text fill="#000000" font-family="sans-serif" font-size="13" lengthAdjust="spacing" textLength="7" x="479.9748" y="523.3597">*</text><text fill="#000000" font-family="sans-serif" font-size="13" lengthAdjust="spacing" textLength="7" x="598.0488" y="523.4613">1</text></g><!--reverse link SmtpProcedureStep to Worker--><g id="link_SmtpProcedureStep_Worker"><path codeLine="71" d="M179.39,527.01 C204.79,527.01 227.1,527.01 253.94,527.01 " fill="none" id="SmtpProcedureStep-backto-Worker" style="stroke:#181818;stroke-width:1.0;"/><polygon fill="#181818" points="173.39,527.01,182.39,531.01,178.39,527.01,182.39,523.01,173.39,527.01" style="stroke:#181818;stroke-width:1.0;"/><polygon fill="#000000" points="190.5,514.863,199.5451,517.8019,199.5451,511.9241,190.5,514.863" style="stroke:#000000;stroke-width:1.0;"/><text fill="#000000" font-family="sans-serif" font-size="13" lengthAdjust="spacing" textLength="31" x="204.5" y="519.907">State</text><text fill="#000000" font-family="sans-serif" font-size="13" lengthAdjust="spacing" textLength="7" x="181.1286" y="523.1814">1</text><text fill="#000000" font-family="sans-serif" font-size="13" lengthAdjust="spacing" textLength="7" x="239.0256" y="523.3342">*</text></g><!--link Worker to SmtpStatus--><g id="link_Worker_SmtpStatus"><path codeLine="72" d="M363,595.16 C363,619.1 363,639.83 363,662.88 " fill="none" id="Worker-to-SmtpStatus" style="stroke:#181818;stroke-width:1.0;stroke-dasharray:7.0,7.0;"/><polygon fill="#181818" points="363,668.88,367,659.88,363,663.88,359,659.88,363,668.88" style="stroke:#181818;stroke-width:1.0;"/></g><!--SRC=[fLHDSzem4BtxL-puKjF49X_DXGCpb7x0J3AbcBO7XeEmDqQ39NiacIHDyzyhoH9WccaFvIAnslTsz-sktsoKgkMWtwzBmbN3oYIhM3yhYPHnJaaX20lablAQw1jO-qWfGTUDmcbMyPJ-HBWuSYb4rTHJla515U4PmdMmeJa2ibez0KErgNBPDR4r2Xa4bXp69KMku3a0_NkMYYYQlS0PC49vbEh8l5YkW8X2zWQmgsXk7MFpNie1tEbZkRAsCyVbKB2ZcQBi4otn79o9ePIamDP6TLYR_RXgkEev3dp4JDSQ-MWlFj49uNc9mcKQWwooBQe1fFPqneTAR54Cu8SzhT7XejRFmSwTXmFuuABXKGzE8plNDd3x9p9rMmqyr115tJ8DKsjnsUacS4NLaockys289aXoJVpQq_igFyRen90t35Acj7QCwG9TSXydjr_ivMuqlRMN-NYsi9SFeyN8Nhv-couw5AdkUICTmzNLXJils_Ec_Nzzy-uWo8m8UTG9syJkBBGU_pC9ki5OOgRkMiV80QHNORawLQhr7sirQ4xq16N-za_CTvkV_3jYF-K5gi-sOjEIevhtonD3RSetjNa5Qg8sXt7GWBsMTf2yaW8pf3kzdIT1OwzN9tq3FQpe7dkgSU-GTuhypncpBtEFZbujs7UXCuIwRIZkYVxcp1lEoRh4872VaoGP-iKxDhLZ4VXLJlBgWMkpsrRF0ecWnKOblmuSRk8CXwawS2iPlWqXjixn4CBBi5Lp0A7B5uPXnxN4U-zf9dycgWppHc2gi3Omimh789_WOKr-0m00]--></g></svg>