<?xml version="1.0" encoding="us-ascii" standalone="no"?><svg xmlns="http://www.w3.org/2000/svg" xmlns:xlink="http://www.w3.org/1999/xlink" contentStyleType="text/css" height="715px" preserveAspectRatio="none" style="width:757px;height:715px;background:#FFFFFF;" version="1.1" viewBox="0 0 757 715" width="757px" zoomAndPan="magnify"><defs/><g><!--class GroupParser--><g id="elem_GroupParser"><rect codeLine="9" fill="#F1F1F1" height="135.3396" id="GroupParser" rx="2.5" ry="2.5" style="stroke:#181818;stroke-width:0.5;" width="279" x="453" y="379.55"/><ellipse cx="545.75" cy="395.55" fill="#ADD1B2" rx="11" ry="11" style="stroke:#181818;stroke-width:1.0;"/><path d="M545.8594,391.0813 Q544.9375,391.0813 544.2031,391.3938 Q543.4844,391.7063 542.9844,392.3 Q542.4844,392.8781 542.2031,393.7531 Q541.9375,394.6281 541.9375,395.7219 Q541.9375,397.1594 542.375,398.2063 Q542.8281,399.2531 543.6719,399.8 Q544.5313,400.3469 545.8438,400.3469 Q546.625,400.3469 547.3125,400.2219 Q548.0156,400.0813 549.0156,399.7688 L549.0156,401.6438 Q548.1563,401.9719 547.3906,402.0969 Q546.6406,402.2219 545.625,402.2219 Q543.7031,402.2219 542.3906,401.425 Q541.0938,400.6125 540.4375,399.1438 Q539.7813,397.6594 539.7813,395.6906 Q539.7813,394.2688 540.1719,393.0969 Q540.5781,391.9094 541.3594,391.0344 Q542.1406,390.1594 543.2813,389.6906 Q544.4219,389.2063 545.8906,389.2063 Q546.8438,389.2063 547.7344,389.4094 Q548.6406,389.5969 549.5781,390.0656 L548.75,391.8469 Q547.9688,391.4719 547.3125,391.2844 Q546.6563,391.0813 545.8594,391.0813 Z " fill="#000000"/><text fill="#000000" font-family="sans-serif" font-size="14" lengthAdjust="spacing" textLength="85" x="566.25" y="400.982">GroupParser</text><line style="stroke:#181818;stroke-width:0.5;" x1="454" x2="731" y1="411.55" y2="411.55"/><text fill="#000000" font-family="sans-serif" font-size="14" lengthAdjust="spacing" textLength="221" x="459" y="430.5159">+GroupParser(String, String, int):</text><text fill="#000000" font-family="sans-serif" font-size="14" lengthAdjust="spacing" textLength="267" x="459" y="449.5839">-selectReceivers(Stack&lt;String&gt;): String[]</text><text fill="#000000" font-family="sans-serif" font-size="14" lengthAdjust="spacing" textLength="253" x="459" y="468.6518">-selectMessage(Stack&lt;String&gt;): String</text><text fill="#000000" font-family="sans-serif" font-size="14" lengthAdjust="spacing" textLength="262" x="459" y="487.7197">-selectCandidate(Stack&lt;String&gt;): String</text><text fill="#000000" font-family="sans-serif" font-size="14" lengthAdjust="spacing" text-decoration="underline" textLength="215" x="459" y="506.7876">-parseFile(String): Stack&lt;String&gt;</text></g><!--class Mail--><g id="elem_Mail"><rect codeLine="16" fill="#F1F1F1" height="129.6837" id="Mail" rx="2.5" ry="2.5" style="stroke:#181818;stroke-width:0.5;" width="210" x="487.5" y="578.89"/><ellipse cx="566.75" cy="601.596" fill="#ADD1B2" rx="11" ry="11" style="stroke:#181818;stroke-width:1.0;"/><path d="M570.2188,608.096 L562.9063,608.096 L562.9063,595.4241 L570.2188,595.4241 L570.2188,597.2991 L564.9531,597.2991 L564.9531,600.5648 L569.9063,600.5648 L569.9063,602.4241 L564.9531,602.4241 L564.9531,606.221 L570.2188,606.221 L570.2188,608.096 Z " fill="#000000"/><text fill="#000000" font-family="sans-serif" font-size="12" font-style="italic" lengthAdjust="spacing" textLength="47" x="585.25" y="596.7181">&#171;record&#187;</text><text fill="#000000" font-family="sans-serif" font-size="14" lengthAdjust="spacing" textLength="29" x="594.25" y="615.2">Mail</text><line style="stroke:#181818;stroke-width:0.5;" x1="488.5" x2="696.5" y1="624.302" y2="624.302"/><text fill="#000000" font-family="sans-serif" font-size="14" lengthAdjust="spacing" textLength="198" x="493.5" y="643.268">+Mail(String, String[], String):</text><text fill="#000000" font-family="sans-serif" font-size="14" lengthAdjust="spacing" textLength="136" x="493.5" y="662.3359">+receivers(): String[]</text><text fill="#000000" font-family="sans-serif" font-size="14" lengthAdjust="spacing" textLength="125" x="493.5" y="681.4038">+message(): String</text><text fill="#000000" font-family="sans-serif" font-size="14" lengthAdjust="spacing" textLength="112" x="493.5" y="700.4717">+sender(): String</text></g><!--class MailWorker--><g id="elem_MailWorker"><rect codeLine="22" fill="#F1F1F1" height="143.3396" id="MailWorker" rx="2.5" ry="2.5" style="stroke:#181818;stroke-width:0.5;" width="230" x="188.5" y="375.55"/><ellipse cx="260.75" cy="391.55" fill="#ADD1B2" rx="11" ry="11" style="stroke:#181818;stroke-width:1.0;"/><path d="M260.8594,387.0813 Q259.9375,387.0813 259.2031,387.3938 Q258.4844,387.7063 257.9844,388.3 Q257.4844,388.8781 257.2031,389.7531 Q256.9375,390.6281 256.9375,391.7219 Q256.9375,393.1594 257.375,394.2063 Q257.8281,395.2531 258.6719,395.8 Q259.5313,396.3469 260.8438,396.3469 Q261.625,396.3469 262.3125,396.2219 Q263.0156,396.0813 264.0156,395.7688 L264.0156,397.6438 Q263.1563,397.9719 262.3906,398.0969 Q261.6406,398.2219 260.625,398.2219 Q258.7031,398.2219 257.3906,397.425 Q256.0938,396.6125 255.4375,395.1438 Q254.7813,393.6594 254.7813,391.6906 Q254.7813,390.2688 255.1719,389.0969 Q255.5781,387.9094 256.3594,387.0344 Q257.1406,386.1594 258.2813,385.6906 Q259.4219,385.2063 260.8906,385.2063 Q261.8438,385.2063 262.7344,385.4094 Q263.6406,385.5969 264.5781,386.0656 L263.75,387.8469 Q262.9688,387.4719 262.3125,387.2844 Q261.6563,387.0813 260.8594,387.0813 Z " fill="#000000"/><text fill="#000000" font-family="sans-serif" font-size="14" lengthAdjust="spacing" textLength="77" x="281.25" y="396.982">MailWorker</text><line style="stroke:#181818;stroke-width:0.5;" x1="189.5" x2="417.5" y1="407.55" y2="407.55"/><text fill="#000000" font-family="sans-serif" font-size="14" lengthAdjust="spacing" textLength="218" x="194.5" y="426.5159">-currentRecipientIndex: boolean</text><line style="stroke:#181818;stroke-width:0.5;" x1="189.5" x2="417.5" y1="434.6179" y2="434.6179"/><text fill="#000000" font-family="sans-serif" font-size="14" lengthAdjust="spacing" textLength="126" x="194.5" y="453.5839">+MailWorker(Mail):</text><text fill="#000000" font-family="sans-serif" font-size="14" lengthAdjust="spacing" textLength="138" x="194.5" y="472.6518">+work(String): String</text><text fill="#000000" font-family="sans-serif" font-size="14" lengthAdjust="spacing" textLength="192" x="194.5" y="491.7197">-handleRequest(String): void</text><text fill="#000000" font-family="sans-serif" font-size="14" lengthAdjust="spacing" textLength="174" x="194.5" y="510.7876">-handleResponse(): String</text></g><!--class SmtpClient--><g id="elem_SmtpClient"><rect codeLine="29" fill="#F1F1F1" height="143.3396" id="SmtpClient" rx="2.5" ry="2.5" style="stroke:#181818;stroke-width:0.5;" width="222" x="424.5" y="7"/><ellipse cx="494.25" cy="23" fill="#ADD1B2" rx="11" ry="11" style="stroke:#181818;stroke-width:1.0;"/><path d="M494.3594,18.5313 Q493.4375,18.5313 492.7031,18.8438 Q491.9844,19.1563 491.4844,19.75 Q490.9844,20.3281 490.7031,21.2031 Q490.4375,22.0781 490.4375,23.1719 Q490.4375,24.6094 490.875,25.6563 Q491.3281,26.7031 492.1719,27.25 Q493.0313,27.7969 494.3438,27.7969 Q495.125,27.7969 495.8125,27.6719 Q496.5156,27.5313 497.5156,27.2188 L497.5156,29.0938 Q496.6563,29.4219 495.8906,29.5469 Q495.1406,29.6719 494.125,29.6719 Q492.2031,29.6719 490.8906,28.875 Q489.5938,28.0625 488.9375,26.5938 Q488.2813,25.1094 488.2813,23.1406 Q488.2813,21.7188 488.6719,20.5469 Q489.0781,19.3594 489.8594,18.4844 Q490.6406,17.6094 491.7813,17.1406 Q492.9219,16.6563 494.3906,16.6563 Q495.3438,16.6563 496.2344,16.8594 Q497.1406,17.0469 498.0781,17.5156 L497.25,19.2969 Q496.4688,18.9219 495.8125,18.7344 Q495.1563,18.5313 494.3594,18.5313 Z " fill="#000000"/><text fill="#000000" font-family="sans-serif" font-size="14" lengthAdjust="spacing" textLength="74" x="514.75" y="28.432">SmtpClient</text><line style="stroke:#181818;stroke-width:0.5;" x1="425.5" x2="645.5" y1="39" y2="39"/><text fill="#000000" font-family="sans-serif" font-size="14" lengthAdjust="spacing" text-decoration="underline" textLength="140" x="430.5" y="57.9659">-SERVER_SOCKET: int</text><text fill="#000000" font-family="sans-serif" font-size="14" lengthAdjust="spacing" text-decoration="underline" textLength="172" x="430.5" y="77.0339">-SERVER_ADDRESS: String</text><line style="stroke:#181818;stroke-width:0.5;" x1="425.5" x2="645.5" y1="85.1358" y2="85.1358"/><text fill="#000000" font-family="sans-serif" font-size="14" lengthAdjust="spacing" textLength="210" x="430.5" y="104.1018">+SmtpClient(String, String, int):</text><text fill="#000000" font-family="sans-serif" font-size="14" lengthAdjust="spacing" textLength="137" x="430.5" y="123.1697">+main(String[]): void</text><text fill="#000000" font-family="sans-serif" font-size="14" lengthAdjust="spacing" textLength="104" x="430.5" y="142.2376">+execute(): void</text></g><!--class SmtpCommand--><g id="elem_SmtpCommand"><rect codeLine="36" fill="#F1F1F1" height="118.6158" id="SmtpCommand" rx="2.5" ry="2.5" style="stroke:#181818;stroke-width:0.5;" width="174" x="216.5" y="584.42"/><ellipse cx="248.6" cy="607.126" fill="#EB937F" rx="11" ry="11" style="stroke:#181818;stroke-width:1.0;"/><path d="M252.0688,613.626 L244.7563,613.626 L244.7563,600.9541 L252.0688,600.9541 L252.0688,602.8291 L246.8031,602.8291 L246.8031,606.0948 L251.7563,606.0948 L251.7563,607.9541 L246.8031,607.9541 L246.8031,611.751 L252.0688,611.751 L252.0688,613.626 Z " fill="#000000"/><text fill="#000000" font-family="sans-serif" font-size="12" font-style="italic" lengthAdjust="spacing" textLength="82" x="277.4" y="602.2481">&#171;enumeration&#187;</text><text fill="#000000" font-family="sans-serif" font-size="14" lengthAdjust="spacing" textLength="104" x="266.4" y="620.73">SmtpCommand</text><line style="stroke:#181818;stroke-width:0.5;" x1="217.5" x2="389.5" y1="629.832" y2="629.832"/><text fill="#000000" font-family="sans-serif" font-size="14" lengthAdjust="spacing" textLength="90" x="222.5" y="648.798">-value: String</text><line style="stroke:#181818;stroke-width:0.5;" x1="217.5" x2="389.5" y1="656.8999" y2="656.8999"/><text fill="#000000" font-family="sans-serif" font-size="14" lengthAdjust="spacing" textLength="162" x="222.5" y="675.8659">-SmtpCommand(String):</text><text fill="#000000" font-family="sans-serif" font-size="14" lengthAdjust="spacing" textLength="157" x="222.5" y="694.9338">+next(): SmtpCommand</text></g><!--class SmtpHandler--><g id="elem_SmtpHandler"><rect codeLine="41" fill="#F1F1F1" height="105.2038" id="SmtpHandler" rx="2.5" ry="2.5" style="stroke:#181818;stroke-width:0.5;" width="249" x="323" y="210.34"/><ellipse cx="398.75" cy="226.34" fill="#ADD1B2" rx="11" ry="11" style="stroke:#181818;stroke-width:1.0;"/><path d="M398.8594,221.8713 Q397.9375,221.8713 397.2031,222.1838 Q396.4844,222.4963 395.9844,223.09 Q395.4844,223.6681 395.2031,224.5431 Q394.9375,225.4181 394.9375,226.5119 Q394.9375,227.9494 395.375,228.9963 Q395.8281,230.0431 396.6719,230.59 Q397.5313,231.1369 398.8438,231.1369 Q399.625,231.1369 400.3125,231.0119 Q401.0156,230.8713 402.0156,230.5588 L402.0156,232.4338 Q401.1563,232.7619 400.3906,232.8869 Q399.6406,233.0119 398.625,233.0119 Q396.7031,233.0119 395.3906,232.215 Q394.0938,231.4025 393.4375,229.9338 Q392.7813,228.4494 392.7813,226.4806 Q392.7813,225.0588 393.1719,223.8869 Q393.5781,222.6994 394.3594,221.8244 Q395.1406,220.9494 396.2813,220.4806 Q397.4219,219.9963 398.8906,219.9963 Q399.8438,219.9963 400.7344,220.1994 Q401.6406,220.3869 402.5781,220.8556 L401.75,222.6369 Q400.9688,222.2619 400.3125,222.0744 Q399.6563,221.8713 398.8594,221.8713 Z " fill="#000000"/><text fill="#000000" font-family="sans-serif" font-size="14" lengthAdjust="spacing" textLength="89" x="419.25" y="231.772">SmtpHandler</text><line style="stroke:#181818;stroke-width:0.5;" x1="324" x2="571" y1="242.34" y2="242.34"/><text fill="#000000" font-family="sans-serif" font-size="14" lengthAdjust="spacing" textLength="98" x="329" y="261.3059">-socket: Socket</text><line style="stroke:#181818;stroke-width:0.5;" x1="324" x2="571" y1="269.4079" y2="269.4079"/><text fill="#000000" font-family="sans-serif" font-size="14" lengthAdjust="spacing" textLength="237" x="329" y="288.3739">+SmtpHandler(Socket, MailWorker):</text><text fill="#000000" font-family="sans-serif" font-size="14" lengthAdjust="spacing" textLength="76" x="329" y="307.4418">+run(): void</text></g><!--class SmtpStatus--><g id="elem_SmtpStatus"><rect codeLine="46" fill="#F1F1F1" height="118.6158" id="SmtpStatus" rx="2.5" ry="2.5" style="stroke:#181818;stroke-width:0.5;" width="147" x="7" y="387.91"/><ellipse cx="38.65" cy="410.616" fill="#EB937F" rx="11" ry="11" style="stroke:#181818;stroke-width:1.0;"/><path d="M42.1188,417.116 L34.8063,417.116 L34.8063,404.4441 L42.1188,404.4441 L42.1188,406.3191 L36.8531,406.3191 L36.8531,409.5848 L41.8063,409.5848 L41.8063,411.4441 L36.8531,411.4441 L36.8531,415.241 L42.1188,415.241 L42.1188,417.116 Z " fill="#000000"/><text fill="#000000" font-family="sans-serif" font-size="12" font-style="italic" lengthAdjust="spacing" textLength="82" x="54.35" y="405.7381">&#171;enumeration&#187;</text><text fill="#000000" font-family="sans-serif" font-size="14" lengthAdjust="spacing" textLength="77" x="56.85" y="424.22">SmtpStatus</text><line style="stroke:#181818;stroke-width:0.5;" x1="8" x2="153" y1="433.322" y2="433.322"/><text fill="#000000" font-family="sans-serif" font-size="14" lengthAdjust="spacing" textLength="86" x="13" y="452.288">-code: String</text><line style="stroke:#181818;stroke-width:0.5;" x1="8" x2="153" y1="460.3899" y2="460.3899"/><text fill="#000000" font-family="sans-serif" font-size="14" lengthAdjust="spacing" textLength="135" x="13" y="479.3559">-SmtpStatus(String):</text><text fill="#000000" font-family="sans-serif" font-size="14" lengthAdjust="spacing" textLength="97" x="13" y="498.4238">+code(): String</text></g><g id="elem_GMN20"><path d="M55.5,621.02 L55.5,666.432 A0,0 0 0 0 55.5,666.432 L181.5,666.432 A0,0 0 0 0 181.5,666.432 L181.5,648.57 L216.3,644.57 L181.5,640.57 L181.5,631.02 L171.5,621.02 L55.5,621.02 A0,0 0 0 0 55.5,621.02 " fill="#FEFFDD" style="stroke:#181818;stroke-width:0.5;"/><path d="M171.5,621.02 L171.5,631.02 L181.5,631.02 L171.5,621.02 " fill="#FEFFDD" style="stroke:#181818;stroke-width:0.5;"/><text fill="#000000" font-family="sans-serif" font-size="13" lengthAdjust="spacing" textLength="105" x="61.5" y="639.917">Stores the format</text><text fill="#000000" font-family="sans-serif" font-size="13" lengthAdjust="spacing" textLength="105" x="61.5" y="657.623">of the commands</text></g><g id="elem_GMN23"><path d="M13.5,240.24 L13.5,285.652 A0,0 0 0 0 13.5,285.652 L76.5,285.652 L80.5,387.48 L84.5,285.652 L147.5,285.652 A0,0 0 0 0 147.5,285.652 L147.5,250.24 L137.5,240.24 L13.5,240.24 A0,0 0 0 0 13.5,240.24 " fill="#FEFFDD" style="stroke:#181818;stroke-width:0.5;"/><path d="M137.5,240.24 L137.5,250.24 L147.5,250.24 L137.5,240.24 " fill="#FEFFDD" style="stroke:#181818;stroke-width:0.5;"/><text fill="#000000" font-family="sans-serif" font-size="13" lengthAdjust="spacing" textLength="96" x="19.5" y="259.137">Stores the value</text><text fill="#000000" font-family="sans-serif" font-size="13" lengthAdjust="spacing" textLength="113" x="19.5" y="276.843">of the status codes</text></g><!--link GroupParser to Mail--><g id="link_GroupParser_Mail"><path codeLine="52" d="M557.5,527.12 C557.5,547.64 557.5,552.13 557.5,572.47 " fill="none" id="GroupParser-Mail" style="stroke:#181818;stroke-width:1.0;"/><polygon fill="#181818" points="557.5,515.12,553.5,521.12,557.5,527.12,561.5,521.12,557.5,515.12" style="stroke:#181818;stroke-width:1.0;"/><polygon fill="#181818" points="557.5,578.47,561.5,569.47,557.5,573.47,553.5,569.47,557.5,578.47" style="stroke:#181818;stroke-width:1.0;"/><text fill="#000000" font-family="sans-serif" font-size="13" lengthAdjust="spacing" textLength="43" x="558.5" y="542.697">groups</text><text fill="#000000" font-family="sans-serif" font-size="13" lengthAdjust="spacing" textLength="7" x="546.5297" y="536.9322">1</text><text fill="#000000" font-family="sans-serif" font-size="13" lengthAdjust="spacing" textLength="7" x="546.0484" y="566.8791">*</text></g><!--link GroupParser to Mail--><g id="link_GroupParser_Mail"><path codeLine="53" d="M627.5,515.12 C627.5,535.64 627.5,552.13 627.5,572.47 " fill="none" id="GroupParser-to-Mail" style="stroke:#181818;stroke-width:1.0;stroke-dasharray:7.0,7.0;"/><polygon fill="#181818" points="627.5,578.47,631.5,569.47,627.5,573.47,623.5,569.47,627.5,578.47" style="stroke:#181818;stroke-width:1.0;"/><text fill="#000000" font-family="sans-serif" font-size="13" lengthAdjust="spacing" textLength="37" x="589.5" y="561.697">create</text></g><!--link MailWorker to Mail--><g id="link_MailWorker_Mail"><path codeLine="54" d="M404.5,531.3 C404.5,587.68 404.5,644.57 404.5,644.57 C404.5,644.57 438.27,644.57 481.23,644.57 " fill="none" id="MailWorker-Mail" style="stroke:#181818;stroke-width:1.0;"/><polygon fill="#181818" points="404.5,519.3,400.5,525.3,404.5,531.3,408.5,525.3,404.5,519.3" style="stroke:#181818;stroke-width:1.0;"/><polygon fill="#181818" points="487.23,644.57,478.23,640.57,482.23,644.57,478.23,648.57,487.23,644.57" style="stroke:#181818;stroke-width:1.0;"/><text fill="#000000" font-family="sans-serif" font-size="13" lengthAdjust="spacing" textLength="25" x="405.5" y="619.197">mail</text><text fill="#000000" font-family="sans-serif" font-size="13" lengthAdjust="spacing" textLength="7" x="406.793" y="540.911">1</text><text fill="#000000" font-family="sans-serif" font-size="13" lengthAdjust="spacing" textLength="7" x="472.5821" y="640.9531">1</text></g><!--link MailWorker to SmtpCommand--><g id="link_MailWorker_SmtpCommand"><path codeLine="55" d="M303.5,531.27 C303.5,552.53 303.5,557.54 303.5,577.93 " fill="none" id="MailWorker-SmtpCommand" style="stroke:#181818;stroke-width:1.0;"/><polygon fill="#181818" points="303.5,519.27,299.5,525.27,303.5,531.27,307.5,525.27,303.5,519.27" style="stroke:#181818;stroke-width:1.0;"/><polygon fill="#181818" points="303.5,583.93,307.5,574.93,303.5,578.93,299.5,574.93,303.5,583.93" style="stroke:#181818;stroke-width:1.0;"/><text fill="#000000" font-family="sans-serif" font-size="13" lengthAdjust="spacing" textLength="107" x="304.5" y="547.497">currentCommand</text><text fill="#000000" font-family="sans-serif" font-size="13" lengthAdjust="spacing" textLength="7" x="296.1664" y="540.8781">1</text><text fill="#000000" font-family="sans-serif" font-size="13" lengthAdjust="spacing" textLength="7" x="296.0734" y="572.5462">1</text></g><!--link SmtpClient to GroupParser--><g id="link_SmtpClient_GroupParser"><path codeLine="56" d="M609.25,150.61 C609.25,216.8 609.25,308.27 609.25,373.2 " fill="none" id="SmtpClient-to-GroupParser" style="stroke:#181818;stroke-width:1.0;stroke-dasharray:7.0,7.0;"/><polygon fill="#181818" points="609.25,379.2,613.25,370.2,609.25,374.2,605.25,370.2,609.25,379.2" style="stroke:#181818;stroke-width:1.0;"/><text fill="#000000" font-family="sans-serif" font-size="13" lengthAdjust="spacing" textLength="27" x="581.25" y="260.797">uses</text></g><!--link SmtpClient to Mail--><g id="link_SmtpClient_Mail"><path codeLine="57" d="M658.83,79.57 C711.06,79.57 750,79.57 750,79.57 C750,79.57 750,644.57 750,644.57 C750,644.57 732.68,644.57 703.99,644.57 " fill="none" id="SmtpClient-Mail" style="stroke:#181818;stroke-width:1.0;"/><polygon fill="#181818" points="646.83,79.57,652.83,83.57,658.83,79.57,652.83,75.57,646.83,79.57" style="stroke:#181818;stroke-width:1.0;"/><polygon fill="#181818" points="697.99,644.57,706.99,648.57,702.99,644.57,706.99,640.57,697.99,644.57" style="stroke:#181818;stroke-width:1.0;"/><text fill="#000000" font-family="sans-serif" font-size="13" lengthAdjust="spacing" textLength="31" x="718" y="332.387">mails</text><text fill="#000000" font-family="sans-serif" font-size="13" lengthAdjust="spacing" textLength="7" x="654.5451" y="75.9801">1</text><text fill="#000000" font-family="sans-serif" font-size="13" lengthAdjust="spacing" textLength="7" x="705.6534" y="640.9531">*</text></g><!--link SmtpClient to MailWorker--><g id="link_SmtpClient_MailWorker"><path codeLine="58" d="M424.13,79.57 C346.12,79.57 255.75,79.57 255.75,79.57 C255.75,79.57 255.75,262.47 255.75,369.46 " fill="none" id="SmtpClient-to-MailWorker" style="stroke:#181818;stroke-width:1.0;stroke-dasharray:7.0,7.0;"/><polygon fill="#181818" points="255.75,375.46,259.75,366.46,255.75,370.46,251.75,366.46,255.75,375.46" style="stroke:#181818;stroke-width:1.0;"/><text fill="#000000" font-family="sans-serif" font-size="13" lengthAdjust="spacing" textLength="37" x="217.75" y="139.217">create</text></g><!--link SmtpClient to SmtpHandler--><g id="link_SmtpClient_SmtpHandler"><path codeLine="59" d="M498.25,150.71 C498.25,170.49 498.25,185.58 498.25,204.07 " fill="none" id="SmtpClient-to-SmtpHandler" style="stroke:#181818;stroke-width:1.0;stroke-dasharray:7.0,7.0;"/><polygon fill="#181818" points="498.25,210.07,502.25,201.07,498.25,205.07,494.25,201.07,498.25,210.07" style="stroke:#181818;stroke-width:1.0;"/><text fill="#000000" font-family="sans-serif" font-size="13" lengthAdjust="spacing" textLength="37" x="460.25" y="176.287">create</text></g><!--link SmtpHandler to MailWorker--><g id="link_SmtpHandler_MailWorker"><path codeLine="60" d="M370.75,327.75 C370.75,346.25 370.75,349.37 370.75,369.17 " fill="none" id="SmtpHandler-MailWorker" style="stroke:#181818;stroke-width:1.0;"/><polygon fill="#181818" points="370.75,315.75,366.75,321.75,370.75,327.75,374.75,321.75,370.75,315.75" style="stroke:#181818;stroke-width:1.0;"/><polygon fill="#181818" points="370.75,375.17,374.75,366.17,370.75,370.17,366.75,366.17,370.75,375.17" style="stroke:#181818;stroke-width:1.0;"/><text fill="#000000" font-family="sans-serif" font-size="13" lengthAdjust="spacing" textLength="42" x="371.75" y="341.357">worker</text><text fill="#000000" font-family="sans-serif" font-size="13" lengthAdjust="spacing" textLength="7" x="353.468" y="337.5473">1</text><text fill="#000000" font-family="sans-serif" font-size="13" lengthAdjust="spacing" textLength="7" x="370.3242" y="363.7967">1</text></g><!--reverse link SmtpStatus to MailWorker--><g id="link_SmtpStatus_MailWorker"><path codeLine="61" d="M160.45,447.57 C171.35,447.57 176.8,447.57 188.29,447.57 " fill="none" id="SmtpStatus-backto-MailWorker" style="stroke:#181818;stroke-width:1.0;stroke-dasharray:7.0,7.0;"/><polygon fill="#181818" points="154.45,447.57,163.45,451.57,159.45,447.57,163.45,443.57,154.45,447.57" style="stroke:#181818;stroke-width:1.0;"/><text fill="#000000" font-family="sans-serif" font-size="13" lengthAdjust="spacing" textLength="27" x="157.87" y="462.467">uses</text></g><!--SRC=[VLHBJzj04BxxLunyQI0u5FKMeKW8qXPLj5LSjGUAgcKz9AlOk-xkcAVuxvtrSqq3kMGp-MRyFMRzRaDKkldXOPaBJLMHpwGf3cKkd4io9TPM597RAbqAFa5TFo6owheYF9T6f-eHuNq0MLjJbUTwWrQHq1BXGxHH6G8M9Jr0WRGncHkNYckqBY9J0XcuDaIcW4nPbAIC3aRdIYCzb0Z6yfGegjd09__0xy8wjF0K0Kp3oYHbhdfz0DstqhGtPrG23dD-mWebgbj-FYE5t1utkCNUlEsul0h05-YSMEChq01uAdIcCa5lGfyS2LBo6KfFzQFAiMLRmuAsw3b2JOgzkX0gX-DZO6-CpM2nQ1Nx-WkfbrVTgTOxzJsjqh6uAIVGo0hfJLc9pjZ0eVZS6kuVzilORUjt0hAobWcobQfKV3Zdnliv9sbo5BedsFHC_B6bTCULK7DlpORzot65VojqD21kZSf6_xlIQ8SxEAO5bQUv9zDoxCrEbwkVozMVzDlfb-MFkT-7dV-Vd9sjbcawScGO-kfQiPb2wKbdxy1v2dYFaY_DfAlvKAkY6MgAWXNvP7qDhV2RtyMRX9X9a6a2joAlSCHHuptLVWmj8rC-ryvroJaZjqYChhzxaIreqfGFWlIwNQhqBXsyjLIvDsKqaB4AQRAn25yOXHg5bpm-Yc4_IHOGxyVDZPX3NBzsN3m2mcosW0RHVXWeBVAzZADWYuE9HyD43Z9_0nRcviSsTw2jn56mW2sFa1atL0xT6BPBboVXGbGlgICLI7e92_D-0UlA_oblnpByhZwD79ZbF7P8iLSHVJM4aECDWRa9dV4H6eiEQ8DmOsmXwBTcYFyf6uXhcltRl-tjXWUjzPxtdQvPCxybxXy0]--></g></svg>