<?xml version="1.0" encoding="us-ascii" standalone="no"?><svg xmlns="http://www.w3.org/2000/svg" xmlns:xlink="http://www.w3.org/1999/xlink" contentStyleType="text/css" height="726px" preserveAspectRatio="none" style="width:867px;height:726px;background:#FFFFFF;" version="1.1" viewBox="0 0 867 726" width="867px" zoomAndPan="magnify"><defs/><g><!--class GroupParser--><g id="elem_GroupParser"><rect codeLine="9" fill="#F1F1F1" height="181.4754" id="GroupParser" rx="2.5" ry="2.5" style="stroke:#181818;stroke-width:0.5;" width="279" x="530.5" y="302.34"/><ellipse cx="623.25" cy="318.34" fill="#ADD1B2" rx="11" ry="11" style="stroke:#181818;stroke-width:1.0;"/><path d="M623.3594,313.8713 Q622.4375,313.8713 621.7031,314.1838 Q620.9844,314.4963 620.4844,315.09 Q619.9844,315.6681 619.7031,316.5431 Q619.4375,317.4181 619.4375,318.5119 Q619.4375,319.9494 619.875,320.9963 Q620.3281,322.0431 621.1719,322.59 Q622.0313,323.1369 623.3438,323.1369 Q624.125,323.1369 624.8125,323.0119 Q625.5156,322.8713 626.5156,322.5588 L626.5156,324.4338 Q625.6563,324.7619 624.8906,324.8869 Q624.1406,325.0119 623.125,325.0119 Q621.2031,325.0119 619.8906,324.215 Q618.5938,323.4025 617.9375,321.9338 Q617.2813,320.4494 617.2813,318.4806 Q617.2813,317.0588 617.6719,315.8869 Q618.0781,314.6994 618.8594,313.8244 Q619.6406,312.9494 620.7813,312.4806 Q621.9219,311.9963 623.3906,311.9963 Q624.3438,311.9963 625.2344,312.1994 Q626.1406,312.3869 627.0781,312.8556 L626.25,314.6369 Q625.4688,314.2619 624.8125,314.0744 Q624.1563,313.8713 623.3594,313.8713 Z " fill="#000000"/><text fill="#000000" font-family="sans-serif" font-size="14" lengthAdjust="spacing" textLength="85" x="643.75" y="323.772">GroupParser</text><line style="stroke:#181818;stroke-width:0.5;" x1="531.5" x2="808.5" y1="334.34" y2="334.34"/><text fill="#000000" font-family="sans-serif" font-size="14" lengthAdjust="spacing" textLength="100" x="536.5" y="353.3059">-groups: Mail[]</text><text fill="#000000" font-family="sans-serif" font-size="14" lengthAdjust="spacing" textLength="95" x="536.5" y="372.3739">groups: Mail[]</text><line style="stroke:#181818;stroke-width:0.5;" x1="531.5" x2="808.5" y1="380.4758" y2="380.4758"/><text fill="#000000" font-family="sans-serif" font-size="14" lengthAdjust="spacing" textLength="221" x="536.5" y="399.4418">+GroupParser(String, String, int):</text><text fill="#000000" font-family="sans-serif" font-size="14" lengthAdjust="spacing" textLength="267" x="536.5" y="418.5097">-selectReceivers(Stack&lt;String&gt;): String[]</text><text fill="#000000" font-family="sans-serif" font-size="14" lengthAdjust="spacing" textLength="253" x="536.5" y="437.5776">-selectMessage(Stack&lt;String&gt;): String</text><text fill="#000000" font-family="sans-serif" font-size="14" lengthAdjust="spacing" textLength="215" x="536.5" y="456.6455">-parseFile(String): Stack&lt;String&gt;</text><text fill="#000000" font-family="sans-serif" font-size="14" lengthAdjust="spacing" textLength="262" x="536.5" y="475.7134">-selectCandidate(Stack&lt;String&gt;): String</text></g><!--class Mail--><g id="elem_Mail"><rect codeLine="18" fill="#F1F1F1" height="129.6837" id="Mail" rx="2.5" ry="2.5" style="stroke:#181818;stroke-width:0.5;" width="210" x="565" y="566.88"/><ellipse cx="644.25" cy="589.586" fill="#ADD1B2" rx="11" ry="11" style="stroke:#181818;stroke-width:1.0;"/><path d="M647.7188,596.086 L640.4063,596.086 L640.4063,583.4141 L647.7188,583.4141 L647.7188,585.2891 L642.4531,585.2891 L642.4531,588.5548 L647.4063,588.5548 L647.4063,590.4141 L642.4531,590.4141 L642.4531,594.211 L647.7188,594.211 L647.7188,596.086 Z " fill="#000000"/><text fill="#000000" font-family="sans-serif" font-size="12" font-style="italic" lengthAdjust="spacing" textLength="47" x="662.75" y="584.7081">&#171;record&#187;</text><text fill="#000000" font-family="sans-serif" font-size="14" lengthAdjust="spacing" textLength="29" x="671.75" y="603.19">Mail</text><line style="stroke:#181818;stroke-width:0.5;" x1="566" x2="774" y1="612.292" y2="612.292"/><text fill="#000000" font-family="sans-serif" font-size="14" lengthAdjust="spacing" textLength="198" x="571" y="631.258">+Mail(String, String[], String):</text><text fill="#000000" font-family="sans-serif" font-size="14" lengthAdjust="spacing" textLength="136" x="571" y="650.3259">+receivers(): String[]</text><text fill="#000000" font-family="sans-serif" font-size="14" lengthAdjust="spacing" textLength="125" x="571" y="669.3938">+message(): String</text><text fill="#000000" font-family="sans-serif" font-size="14" lengthAdjust="spacing" textLength="112" x="571" y="688.4617">+sender(): String</text></g><!--class MailWorker--><g id="elem_MailWorker"><rect codeLine="24" fill="#F1F1F1" height="162.4075" id="MailWorker" rx="2.5" ry="2.5" style="stroke:#181818;stroke-width:0.5;" width="248" x="248" y="311.87"/><ellipse cx="329.25" cy="327.87" fill="#ADD1B2" rx="11" ry="11" style="stroke:#181818;stroke-width:1.0;"/><path d="M329.3594,323.4013 Q328.4375,323.4013 327.7031,323.7138 Q326.9844,324.0263 326.4844,324.62 Q325.9844,325.1981 325.7031,326.0731 Q325.4375,326.9481 325.4375,328.0419 Q325.4375,329.4794 325.875,330.5263 Q326.3281,331.5731 327.1719,332.12 Q328.0313,332.6669 329.3438,332.6669 Q330.125,332.6669 330.8125,332.5419 Q331.5156,332.4013 332.5156,332.0888 L332.5156,333.9638 Q331.6563,334.2919 330.8906,334.4169 Q330.1406,334.5419 329.125,334.5419 Q327.2031,334.5419 325.8906,333.745 Q324.5938,332.9325 323.9375,331.4638 Q323.2813,329.9794 323.2813,328.0106 Q323.2813,326.5888 323.6719,325.4169 Q324.0781,324.2294 324.8594,323.3544 Q325.6406,322.4794 326.7813,322.0106 Q327.9219,321.5263 329.3906,321.5263 Q330.3438,321.5263 331.2344,321.7294 Q332.1406,321.9169 333.0781,322.3856 L332.25,324.1669 Q331.4688,323.7919 330.8125,323.6044 Q330.1563,323.4013 329.3594,323.4013 Z " fill="#000000"/><text fill="#000000" font-family="sans-serif" font-size="14" lengthAdjust="spacing" textLength="77" x="349.75" y="333.302">MailWorker</text><line style="stroke:#181818;stroke-width:0.5;" x1="249" x2="495" y1="343.87" y2="343.87"/><text fill="#000000" font-family="sans-serif" font-size="14" lengthAdjust="spacing" textLength="236" x="254" y="362.8359">-currentCommand: SmtpCommand</text><text fill="#000000" font-family="sans-serif" font-size="14" lengthAdjust="spacing" textLength="231" x="254" y="381.9039">currentCommand: SmtpCommand</text><line style="stroke:#181818;stroke-width:0.5;" x1="249" x2="495" y1="390.0058" y2="390.0058"/><text fill="#000000" font-family="sans-serif" font-size="14" lengthAdjust="spacing" textLength="126" x="254" y="408.9718">+MailWorker(Mail):</text><text fill="#000000" font-family="sans-serif" font-size="14" lengthAdjust="spacing" textLength="174" x="254" y="428.0397">-handleResponse(): String</text><text fill="#000000" font-family="sans-serif" font-size="14" lengthAdjust="spacing" textLength="138" x="254" y="447.1076">+work(String): String</text><text fill="#000000" font-family="sans-serif" font-size="14" lengthAdjust="spacing" textLength="192" x="254" y="466.1755">-handleRequest(String): void</text></g><!--class SmtpClient--><g id="elem_SmtpClient"><rect codeLine="32" fill="#F1F1F1" height="97.2038" id="SmtpClient" rx="2.5" ry="2.5" style="stroke:#181818;stroke-width:0.5;" width="222" x="498" y="7"/><ellipse cx="567.75" cy="23" fill="#ADD1B2" rx="11" ry="11" style="stroke:#181818;stroke-width:1.0;"/><path d="M567.8594,18.5313 Q566.9375,18.5313 566.2031,18.8438 Q565.4844,19.1563 564.9844,19.75 Q564.4844,20.3281 564.2031,21.2031 Q563.9375,22.0781 563.9375,23.1719 Q563.9375,24.6094 564.375,25.6563 Q564.8281,26.7031 565.6719,27.25 Q566.5313,27.7969 567.8438,27.7969 Q568.625,27.7969 569.3125,27.6719 Q570.0156,27.5313 571.0156,27.2188 L571.0156,29.0938 Q570.1563,29.4219 569.3906,29.5469 Q568.6406,29.6719 567.625,29.6719 Q565.7031,29.6719 564.3906,28.875 Q563.0938,28.0625 562.4375,26.5938 Q561.7813,25.1094 561.7813,23.1406 Q561.7813,21.7188 562.1719,20.5469 Q562.5781,19.3594 563.3594,18.4844 Q564.1406,17.6094 565.2813,17.1406 Q566.4219,16.6563 567.8906,16.6563 Q568.8438,16.6563 569.7344,16.8594 Q570.6406,17.0469 571.5781,17.5156 L570.75,19.2969 Q569.9688,18.9219 569.3125,18.7344 Q568.6563,18.5313 567.8594,18.5313 Z " fill="#000000"/><text fill="#000000" font-family="sans-serif" font-size="14" lengthAdjust="spacing" textLength="74" x="588.25" y="28.432">SmtpClient</text><line style="stroke:#181818;stroke-width:0.5;" x1="499" x2="719" y1="39" y2="39"/><text fill="#000000" font-family="sans-serif" font-size="14" lengthAdjust="spacing" textLength="210" x="504" y="57.9659">+SmtpClient(String, String, int):</text><text fill="#000000" font-family="sans-serif" font-size="14" lengthAdjust="spacing" textLength="137" x="504" y="77.0339">+main(String[]): void</text><text fill="#000000" font-family="sans-serif" font-size="14" lengthAdjust="spacing" textLength="104" x="504" y="96.1018">+execute(): void</text></g><!--class SmtpCommand--><g id="elem_SmtpCommand"><rect codeLine="37" fill="#F1F1F1" height="175.8195" id="SmtpCommand" rx="2.5" ry="2.5" style="stroke:#181818;stroke-width:0.5;" width="233" x="255.5" y="543.81"/><ellipse cx="315.75" cy="566.516" fill="#EB937F" rx="11" ry="11" style="stroke:#181818;stroke-width:1.0;"/><path d="M319.2188,573.016 L311.9063,573.016 L311.9063,560.3441 L319.2188,560.3441 L319.2188,562.2191 L313.9531,562.2191 L313.9531,565.4848 L318.9063,565.4848 L318.9063,567.3441 L313.9531,567.3441 L313.9531,571.141 L319.2188,571.141 L319.2188,573.016 Z " fill="#000000"/><text fill="#000000" font-family="sans-serif" font-size="12" font-style="italic" lengthAdjust="spacing" textLength="82" x="347.25" y="561.6381">&#171;enumeration&#187;</text><text fill="#000000" font-family="sans-serif" font-size="14" lengthAdjust="spacing" textLength="104" x="336.25" y="580.12">SmtpCommand</text><line style="stroke:#181818;stroke-width:0.5;" x1="256.5" x2="487.5" y1="589.222" y2="589.222"/><text fill="#000000" font-family="sans-serif" font-size="14" lengthAdjust="spacing" textLength="90" x="261.5" y="608.188">-value: String</text><text fill="#000000" font-family="sans-serif" font-size="14" lengthAdjust="spacing" textLength="85" x="261.5" y="627.2559">value: String</text><line style="stroke:#181818;stroke-width:0.5;" x1="256.5" x2="487.5" y1="635.3579" y2="635.3579"/><text fill="#000000" font-family="sans-serif" font-size="14" lengthAdjust="spacing" textLength="162" x="261.5" y="654.3238">-SmtpCommand(String):</text><text fill="#000000" font-family="sans-serif" font-size="14" lengthAdjust="spacing" textLength="181" x="261.5" y="673.3917">+values(): SmtpCommand[]</text><text fill="#000000" font-family="sans-serif" font-size="14" lengthAdjust="spacing" textLength="221" x="261.5" y="692.4596">+valueOf(String): SmtpCommand</text><text fill="#000000" font-family="sans-serif" font-size="14" lengthAdjust="spacing" textLength="157" x="261.5" y="711.5276">+next(): SmtpCommand</text></g><!--class SmtpHandler--><g id="elem_SmtpHandler"><rect codeLine="45" fill="#F1F1F1" height="78.1358" id="SmtpHandler" rx="2.5" ry="2.5" style="stroke:#181818;stroke-width:0.5;" width="249" x="396.5" y="164.2"/><ellipse cx="472.25" cy="180.2" fill="#ADD1B2" rx="11" ry="11" style="stroke:#181818;stroke-width:1.0;"/><path d="M472.3594,175.7313 Q471.4375,175.7313 470.7031,176.0438 Q469.9844,176.3563 469.4844,176.95 Q468.9844,177.5281 468.7031,178.4031 Q468.4375,179.2781 468.4375,180.3719 Q468.4375,181.8094 468.875,182.8563 Q469.3281,183.9031 470.1719,184.45 Q471.0313,184.9969 472.3438,184.9969 Q473.125,184.9969 473.8125,184.8719 Q474.5156,184.7313 475.5156,184.4188 L475.5156,186.2938 Q474.6563,186.6219 473.8906,186.7469 Q473.1406,186.8719 472.125,186.8719 Q470.2031,186.8719 468.8906,186.075 Q467.5938,185.2625 466.9375,183.7938 Q466.2813,182.3094 466.2813,180.3406 Q466.2813,178.9188 466.6719,177.7469 Q467.0781,176.5594 467.8594,175.6844 Q468.6406,174.8094 469.7813,174.3406 Q470.9219,173.8563 472.3906,173.8563 Q473.3438,173.8563 474.2344,174.0594 Q475.1406,174.2469 476.0781,174.7156 L475.25,176.4969 Q474.4688,176.1219 473.8125,175.9344 Q473.1563,175.7313 472.3594,175.7313 Z " fill="#000000"/><text fill="#000000" font-family="sans-serif" font-size="14" lengthAdjust="spacing" textLength="89" x="492.75" y="185.632">SmtpHandler</text><line style="stroke:#181818;stroke-width:0.5;" x1="397.5" x2="644.5" y1="196.2" y2="196.2"/><text fill="#000000" font-family="sans-serif" font-size="14" lengthAdjust="spacing" textLength="237" x="402.5" y="215.1659">+SmtpHandler(Socket, MailWorker):</text><text fill="#000000" font-family="sans-serif" font-size="14" lengthAdjust="spacing" textLength="76" x="402.5" y="234.2339">+run(): void</text></g><!--class SmtpStatus--><g id="elem_SmtpStatus"><rect codeLine="49" fill="#F1F1F1" height="129.6837" id="SmtpStatus" rx="2.5" ry="2.5" style="stroke:#181818;stroke-width:0.5;" width="206" x="7" y="328.23"/><ellipse cx="66.75" cy="350.936" fill="#EB937F" rx="11" ry="11" style="stroke:#181818;stroke-width:1.0;"/><path d="M70.2188,357.436 L62.9063,357.436 L62.9063,344.7641 L70.2188,344.7641 L70.2188,346.6391 L64.9531,346.6391 L64.9531,349.9048 L69.9063,349.9048 L69.9063,351.7641 L64.9531,351.7641 L64.9531,355.561 L70.2188,355.561 L70.2188,357.436 Z " fill="#000000"/><text fill="#000000" font-family="sans-serif" font-size="12" font-style="italic" lengthAdjust="spacing" textLength="82" x="85.25" y="346.0581">&#171;enumeration&#187;</text><text fill="#000000" font-family="sans-serif" font-size="14" lengthAdjust="spacing" textLength="77" x="87.75" y="364.54">SmtpStatus</text><line style="stroke:#181818;stroke-width:0.5;" x1="8" x2="212" y1="373.642" y2="373.642"/><text fill="#000000" font-family="sans-serif" font-size="14" lengthAdjust="spacing" textLength="135" x="13" y="392.608">-SmtpStatus(String):</text><text fill="#000000" font-family="sans-serif" font-size="14" lengthAdjust="spacing" textLength="194" x="13" y="411.6759">+valueOf(String): SmtpStatus</text><text fill="#000000" font-family="sans-serif" font-size="14" lengthAdjust="spacing" textLength="154" x="13" y="430.7438">+values(): SmtpStatus[]</text><text fill="#000000" font-family="sans-serif" font-size="14" lengthAdjust="spacing" textLength="97" x="13" y="449.8117">+code(): String</text></g><g id="elem_GMN20"><path d="M95,609.01 L95,654.422 A0,0 0 0 0 95,654.422 L221,654.422 A0,0 0 0 0 221,654.422 L221,636.63 L255.08,632.63 L221,628.63 L221,619.01 L211,609.01 L95,609.01 A0,0 0 0 0 95,609.01 " fill="#FEFFDD" style="stroke:#181818;stroke-width:0.5;"/><path d="M211,609.01 L211,619.01 L221,619.01 L211,609.01 " fill="#FEFFDD" style="stroke:#181818;stroke-width:0.5;"/><text fill="#000000" font-family="sans-serif" font-size="13" lengthAdjust="spacing" textLength="105" x="101" y="627.907">Stores the format</text><text fill="#000000" font-family="sans-serif" font-size="13" lengthAdjust="spacing" textLength="105" x="101" y="645.613">of the commands</text></g><g id="elem_GMN23"><path d="M43,180.56 L43,225.972 A0,0 0 0 0 43,225.972 L106,225.972 L110,328.13 L114,225.972 L177,225.972 A0,0 0 0 0 177,225.972 L177,190.56 L167,180.56 L43,180.56 A0,0 0 0 0 43,180.56 " fill="#FEFFDD" style="stroke:#181818;stroke-width:0.5;"/><path d="M167,180.56 L167,190.56 L177,190.56 L167,180.56 " fill="#FEFFDD" style="stroke:#181818;stroke-width:0.5;"/><text fill="#000000" font-family="sans-serif" font-size="13" lengthAdjust="spacing" textLength="96" x="49" y="199.457">Stores the value</text><text fill="#000000" font-family="sans-serif" font-size="13" lengthAdjust="spacing" textLength="113" x="49" y="217.163">of the status codes</text></g><!--link GroupParser to Mail--><g id="link_GroupParser_Mail"><path codeLine="56" d="M635,495.98 C635,523.51 635,535.18 635,560.66 " fill="none" id="GroupParser-Mail" style="stroke:#181818;stroke-width:1.0;"/><polygon fill="#181818" points="635,483.98,631,489.98,635,495.98,639,489.98,635,483.98" style="stroke:#181818;stroke-width:1.0;"/><polygon fill="#181818" points="635,566.66,639,557.66,635,561.66,631,557.66,635,566.66" style="stroke:#181818;stroke-width:1.0;"/><text fill="#000000" font-family="sans-serif" font-size="13" lengthAdjust="spacing" textLength="43" x="591" y="521.217">groups</text><text fill="#000000" font-family="sans-serif" font-size="13" lengthAdjust="spacing" textLength="7" x="624.932" y="505.8263">1</text><text fill="#000000" font-family="sans-serif" font-size="13" lengthAdjust="spacing" textLength="7" x="623.5484" y="555.0922">*</text></g><!--link GroupParser to Mail--><g id="link_GroupParser_Mail"><path codeLine="57" d="M705,483.98 C705,511.51 705,535.18 705,560.66 " fill="none" id="GroupParser-to-Mail" style="stroke:#181818;stroke-width:1.0;stroke-dasharray:7.0,7.0;"/><polygon fill="#181818" points="705,566.66,709,557.66,705,561.66,701,557.66,705,566.66" style="stroke:#181818;stroke-width:1.0;"/><text fill="#000000" font-family="sans-serif" font-size="13" lengthAdjust="spacing" textLength="37" x="667" y="521.217">create</text></g><!--link MailWorker to Mail--><g id="link_MailWorker_Mail"><path codeLine="58" d="M492.25,486.51 C492.25,555.96 492.25,632.63 492.25,632.63 C492.25,632.63 520.27,632.63 558.55,632.63 " fill="none" id="MailWorker-Mail" style="stroke:#181818;stroke-width:1.0;"/><polygon fill="#181818" points="492.25,474.51,488.25,480.51,492.25,486.51,496.25,480.51,492.25,474.51" style="stroke:#181818;stroke-width:1.0;"/><polygon fill="#181818" points="564.55,632.63,555.55,628.63,559.55,632.63,555.55,636.63,564.55,632.63" style="stroke:#181818;stroke-width:1.0;"/><text fill="#000000" font-family="sans-serif" font-size="13" lengthAdjust="spacing" textLength="25" x="493.25" y="585.617">mail</text><text fill="#000000" font-family="sans-serif" font-size="13" lengthAdjust="spacing" textLength="7" x="495.2832" y="496.1662">1</text><text fill="#000000" font-family="sans-serif" font-size="13" lengthAdjust="spacing" textLength="7" x="549.8895" y="629.018">1</text></g><!--link MailWorker to SmtpCommand--><g id="link_MailWorker_SmtpCommand"><path codeLine="59" d="M372,486.53 C372,508.81 372,515.06 372,537.69 " fill="none" id="MailWorker-SmtpCommand" style="stroke:#181818;stroke-width:1.0;"/><polygon fill="#181818" points="372,474.53,368,480.53,372,486.53,376,480.53,372,474.53" style="stroke:#181818;stroke-width:1.0;"/><polygon fill="#181818" points="372,543.69,376,534.69,372,538.69,368,534.69,372,543.69" style="stroke:#181818;stroke-width:1.0;"/><text fill="#000000" font-family="sans-serif" font-size="13" lengthAdjust="spacing" textLength="107" x="373" y="505.007">currentCommand</text><text fill="#000000" font-family="sans-serif" font-size="13" lengthAdjust="spacing" textLength="7" x="364.6992" y="496.188">1</text><text fill="#000000" font-family="sans-serif" font-size="13" lengthAdjust="spacing" textLength="7" x="364.6883" y="532.0213">1</text></g><!--link SmtpClient to GroupParser--><g id="link_SmtpClient_GroupParser"><path codeLine="60" d="M682.75,104.67 C682.75,156.22 682.75,232.48 682.75,295.97 " fill="none" id="SmtpClient-to-GroupParser" style="stroke:#181818;stroke-width:1.0;stroke-dasharray:7.0,7.0;"/><polygon fill="#181818" points="682.75,301.97,686.75,292.97,682.75,296.97,678.75,292.97,682.75,301.97" style="stroke:#181818;stroke-width:1.0;"/><text fill="#000000" font-family="sans-serif" font-size="13" lengthAdjust="spacing" textLength="27" x="654.75" y="199.217">uses</text></g><!--link SmtpClient to Mail--><g id="link_SmtpClient_Mail"><path codeLine="61" d="M732.49,55.63 C786.36,55.63 827.5,55.63 827.5,55.63 C827.5,55.63 827.5,632.63 827.5,632.63 C827.5,632.63 810.18,632.63 781.49,632.63 " fill="none" id="SmtpClient-Mail" style="stroke:#181818;stroke-width:1.0;"/><polygon fill="#181818" points="720.49,55.63,726.49,59.63,732.49,55.63,726.49,51.63,720.49,55.63" style="stroke:#181818;stroke-width:1.0;"/><polygon fill="#181818" points="775.49,632.63,784.49,636.63,780.49,632.63,784.49,628.63,775.49,632.63" style="stroke:#181818;stroke-width:1.0;"/><text fill="#000000" font-family="sans-serif" font-size="13" lengthAdjust="spacing" textLength="31" x="828.5" y="312.527">mails</text><text fill="#000000" font-family="sans-serif" font-size="13" lengthAdjust="spacing" textLength="7" x="727.8565" y="52.0069">1</text><text fill="#000000" font-family="sans-serif" font-size="13" lengthAdjust="spacing" textLength="7" x="783.1534" y="629.018">*</text></g><!--link SmtpClient to MailWorker--><g id="link_SmtpClient_MailWorker"><path codeLine="62" d="M497.72,55.63 C417.12,55.63 322.25,55.63 322.25,55.63 C322.25,55.63 322.25,205.52 322.25,305.39 " fill="none" id="SmtpClient-to-MailWorker" style="stroke:#181818;stroke-width:1.0;stroke-dasharray:7.0,7.0;"/><polygon fill="#181818" points="322.25,311.39,326.25,302.39,322.25,306.39,318.25,302.39,322.25,311.39" style="stroke:#181818;stroke-width:1.0;"/><text fill="#000000" font-family="sans-serif" font-size="13" lengthAdjust="spacing" textLength="37" x="284.25" y="91.667">create</text></g><!--link SmtpClient to SmtpHandler--><g id="link_SmtpClient_SmtpHandler"><path codeLine="63" d="M571.75,104.36 C571.75,123.68 571.75,139.6 571.75,157.89 " fill="none" id="SmtpClient-to-SmtpHandler" style="stroke:#181818;stroke-width:1.0;stroke-dasharray:7.0,7.0;"/><polygon fill="#181818" points="571.75,163.89,575.75,154.89,571.75,158.89,567.75,154.89,571.75,163.89" style="stroke:#181818;stroke-width:1.0;"/><text fill="#000000" font-family="sans-serif" font-size="13" lengthAdjust="spacing" textLength="37" x="533.75" y="130.017">create</text></g><!--link SmtpHandler to MailWorker--><g id="link_SmtpHandler_MailWorker"><path codeLine="64" d="M446.25,254.59 C446.25,274.57 446.25,281.63 446.25,305.53 " fill="none" id="SmtpHandler-MailWorker" style="stroke:#181818;stroke-width:1.0;"/><polygon fill="#181818" points="446.25,242.59,442.25,248.59,446.25,254.59,450.25,248.59,446.25,242.59" style="stroke:#181818;stroke-width:1.0;"/><polygon fill="#181818" points="446.25,311.53,450.25,302.53,446.25,306.53,442.25,302.53,446.25,311.53" style="stroke:#181818;stroke-width:1.0;"/><text fill="#000000" font-family="sans-serif" font-size="13" lengthAdjust="spacing" textLength="42" x="447.25" y="272.957">worker</text><text fill="#000000" font-family="sans-serif" font-size="13" lengthAdjust="spacing" textLength="7" x="426.7789" y="264.1649">1</text><text fill="#000000" font-family="sans-serif" font-size="13" lengthAdjust="spacing" textLength="7" x="445.7723" y="300.1586">1</text></g><!--reverse link SmtpStatus to MailWorker--><g id="link_SmtpStatus_MailWorker"><path codeLine="65" d="M219.17,393.63 C230.49,393.63 236.09,393.63 247.62,393.63 " fill="none" id="SmtpStatus-backto-MailWorker" style="stroke:#181818;stroke-width:1.0;stroke-dasharray:7.0,7.0;"/><polygon fill="#181818" points="213.17,393.63,222.17,397.63,218.17,393.63,222.17,389.63,213.17,393.63" style="stroke:#181818;stroke-width:1.0;"/><text fill="#000000" font-family="sans-serif" font-size="13" lengthAdjust="spacing" textLength="27" x="216.9" y="408.527">uses</text></g><!--SRC=[VLLDJzmm4BtdLunoQM3PfQYt5LgfGchBWRQ2Gm-KWqbcTwrrxDIUyD6ANzIVq1k_h6F78SwoB1USyPkPDs-UuTsQg77pu-D62KrjhMQbgOzB9PoRLbAihAWpjv6w4No24Fz8PELjItXU6dqbVoEyJo0hQzhcNA_HIXAwHFYGhMM5W7L3Zr0ZhKtbng7w5gtBo3H01cuDaQcXaXPBaaOdfPNKI8yDWh5S9Si26_Zi6tuNrg65Fnd098qKLynLhuwW_oqr7SmPDUs8kZbS2AckRqB8eUAcbrYYl6DAd2pApMcNkZYOno8Zy0Kw9rRu1ZG06y_aarGOoOJR19rKEnEwafMWFVMsUJzbg4coZluRJa-1TJEsWiKYgk7ZMp9St_IdeCN4vyIHnrDEU3lTV2c52RFL5Oix19_YCdop7yPkNdOn10f_ZDgNhRLC-ypKDK_CLMfguaUuN_D1uIMwncYttVoUowLIlWZTP_rgqT60k3FILztRjESVOaeoBF8V0czQYKKIKXUzR4F72U03blnGYZxcbzNMQMU_CHz3AxpR-xLDKqoHx6eATqArE18aHBhL3KbnV-7kspBHQoJr13G-KF4gljKbbUTBKDac-iH8SMNA3T9HilFUNgtU9G5xd5gtLu4EKepCkdEa3hX3ZkuYgb6Q2aUkpTA_7lb93eVJwGBomxnxJdF8k-UMZu0mcosWGyGV1Zx_BItoqtt-bsV9CqYgdWnLsJ5g3omr2AF7pispnAMHIyekS6aTEiyaXUwQpnDnEmgcrBQ6UmrERR43t5-zKY8su9JxS1efCbDSUjZWQAhigo44XKi2iqpLygir5XtG6c5fR2tefsQ8_omxYEkI_R-RcDitI5A3XruoNMTKxnxt7m00]--></g></svg>