<?xml version="1.0" encoding="us-ascii" standalone="no"?><svg xmlns="http://www.w3.org/2000/svg" xmlns:xlink="http://www.w3.org/1999/xlink" contentStyleType="text/css" height="800px" preserveAspectRatio="none" style="width:1082px;height:800px;background:#FFFFFF;" version="1.1" viewBox="0 0 1082 800" width="1082px" zoomAndPan="magnify"><defs/><g><!--class Client--><g id="elem_Client"><rect codeLine="7" fill="#F1F1F1" height="124.2717" id="Client" rx="2.5" ry="2.5" style="stroke:#181818;stroke-width:0.5;" width="422" x="316" y="7"/><ellipse cx="503.25" cy="23" fill="#ADD1B2" rx="11" ry="11" style="stroke:#181818;stroke-width:1.0;"/><path d="M503.3594,18.5313 Q502.4375,18.5313 501.7031,18.8438 Q500.9844,19.1563 500.4844,19.75 Q499.9844,20.3281 499.7031,21.2031 Q499.4375,22.0781 499.4375,23.1719 Q499.4375,24.6094 499.875,25.6563 Q500.3281,26.7031 501.1719,27.25 Q502.0313,27.7969 503.3438,27.7969 Q504.125,27.7969 504.8125,27.6719 Q505.5156,27.5313 506.5156,27.2188 L506.5156,29.0938 Q505.6563,29.4219 504.8906,29.5469 Q504.1406,29.6719 503.125,29.6719 Q501.2031,29.6719 499.8906,28.875 Q498.5938,28.0625 497.9375,26.5938 Q497.2813,25.1094 497.2813,23.1406 Q497.2813,21.7188 497.6719,20.5469 Q498.0781,19.3594 498.8594,18.4844 Q499.6406,17.6094 500.7813,17.1406 Q501.9219,16.6563 503.3906,16.6563 Q504.3438,16.6563 505.2344,16.8594 Q506.1406,17.0469 507.0781,17.5156 L506.25,19.2969 Q505.4688,18.9219 504.8125,18.7344 Q504.1563,18.5313 503.3594,18.5313 Z " fill="#000000"/><text fill="#000000" font-family="sans-serif" font-size="14" lengthAdjust="spacing" textLength="39" x="523.75" y="28.432">Client</text><line style="stroke:#181818;stroke-width:0.5;" x1="317" x2="737" y1="39" y2="39"/><text fill="#000000" font-family="sans-serif" font-size="14" lengthAdjust="spacing" textLength="88" x="322" y="57.9659">-mails: Mail[]</text><line style="stroke:#181818;stroke-width:0.5;" x1="317" x2="737" y1="66.0679" y2="66.0679"/><text fill="#000000" font-family="sans-serif" font-size="14" lengthAdjust="spacing" text-decoration="underline" textLength="171" x="322" y="85.0339">+main(String[] args): void</text><text fill="#000000" font-family="sans-serif" font-size="14" lengthAdjust="spacing" textLength="410" x="322" y="104.1018">+Client(String victimFile, String messageFile, int groupCount)</text><text fill="#000000" font-family="sans-serif" font-size="14" lengthAdjust="spacing" textLength="104" x="322" y="123.1697">+execute(): void</text></g><!--class Handler--><g id="elem_Handler"><rect codeLine="14" fill="#F1F1F1" height="124.2717" id="Handler" rx="2.5" ry="2.5" style="stroke:#181818;stroke-width:0.5;" width="269" x="140.5" y="220.87"/><ellipse cx="243.75" cy="236.87" fill="#ADD1B2" rx="11" ry="11" style="stroke:#181818;stroke-width:1.0;"/><path d="M243.8594,232.4013 Q242.9375,232.4013 242.2031,232.7138 Q241.4844,233.0263 240.9844,233.62 Q240.4844,234.1981 240.2031,235.0731 Q239.9375,235.9481 239.9375,237.0419 Q239.9375,238.4794 240.375,239.5263 Q240.8281,240.5731 241.6719,241.12 Q242.5313,241.6669 243.8438,241.6669 Q244.625,241.6669 245.3125,241.5419 Q246.0156,241.4013 247.0156,241.0888 L247.0156,242.9638 Q246.1563,243.2919 245.3906,243.4169 Q244.6406,243.5419 243.625,243.5419 Q241.7031,243.5419 240.3906,242.745 Q239.0938,241.9325 238.4375,240.4638 Q237.7813,238.9794 237.7813,237.0106 Q237.7813,235.5888 238.1719,234.4169 Q238.5781,233.2294 239.3594,232.3544 Q240.1406,231.4794 241.2813,231.0106 Q242.4219,230.5263 243.8906,230.5263 Q244.8438,230.5263 245.7344,230.7294 Q246.6406,230.9169 247.5781,231.3856 L246.75,233.1669 Q245.9688,232.7919 245.3125,232.6044 Q244.6563,232.4013 243.8594,232.4013 Z " fill="#000000"/><text fill="#000000" font-family="sans-serif" font-size="14" lengthAdjust="spacing" textLength="54" x="264.25" y="242.302">Handler</text><line style="stroke:#181818;stroke-width:0.5;" x1="141.5" x2="408.5" y1="252.87" y2="252.87"/><text fill="#000000" font-family="sans-serif" font-size="14" lengthAdjust="spacing" textLength="98" x="146.5" y="271.8359">-socket: Socket</text><text fill="#000000" font-family="sans-serif" font-size="14" lengthAdjust="spacing" textLength="107" x="146.5" y="290.9039">-worker: Worker</text><line style="stroke:#181818;stroke-width:0.5;" x1="141.5" x2="408.5" y1="299.0058" y2="299.0058"/><text fill="#000000" font-family="sans-serif" font-size="14" lengthAdjust="spacing" textLength="257" x="146.5" y="317.9718">Handler(Socket socket, Worker worker)</text><text fill="#000000" font-family="sans-serif" font-size="14" lengthAdjust="spacing" textLength="80" x="146.5" y="337.0397">+run() : void</text></g><!--class Worker--><g id="elem_Worker"><rect codeLine="21" fill="#F1F1F1" height="135.3396" id="Worker" rx="2.5" ry="2.5" style="stroke:#181818;stroke-width:0.5;" width="218" x="224" y="457.81"/><ellipse cx="304.75" cy="473.81" fill="#ADD1B2" rx="11" ry="11" style="stroke:#181818;stroke-width:1.0;"/><path d="M304.8594,469.3413 Q303.9375,469.3413 303.2031,469.6538 Q302.4844,469.9663 301.9844,470.56 Q301.4844,471.1381 301.2031,472.0131 Q300.9375,472.8881 300.9375,473.9819 Q300.9375,475.4194 301.375,476.4663 Q301.8281,477.5131 302.6719,478.06 Q303.5313,478.6069 304.8438,478.6069 Q305.625,478.6069 306.3125,478.4819 Q307.0156,478.3413 308.0156,478.0288 L308.0156,479.9038 Q307.1563,480.2319 306.3906,480.3569 Q305.6406,480.4819 304.625,480.4819 Q302.7031,480.4819 301.3906,479.685 Q300.0938,478.8725 299.4375,477.4038 Q298.7813,475.9194 298.7813,473.9506 Q298.7813,472.5288 299.1719,471.3569 Q299.5781,470.1694 300.3594,469.2944 Q301.1406,468.4194 302.2813,467.9506 Q303.4219,467.4663 304.8906,467.4663 Q305.8438,467.4663 306.7344,467.6694 Q307.6406,467.8569 308.5781,468.3256 L307.75,470.1069 Q306.9688,469.7319 306.3125,469.5444 Q305.6563,469.3413 304.8594,469.3413 Z " fill="#000000"/><text fill="#000000" font-family="sans-serif" font-size="14" lengthAdjust="spacing" textLength="48" x="325.25" y="479.242">Worker</text><line style="stroke:#181818;stroke-width:0.5;" x1="225" x2="441" y1="489.81" y2="489.81"/><text fill="#000000" font-family="sans-serif" font-size="14" lengthAdjust="spacing" textLength="118" x="230" y="508.7759">Worker(Mail mail)</text><text fill="#000000" font-family="sans-serif" font-size="14" lengthAdjust="spacing" textLength="206" x="230" y="527.8439">+work(String message) : String</text><text fill="#000000" font-family="sans-serif" font-size="14" lengthAdjust="spacing" textLength="113" x="230" y="546.9118">-identity(): String</text><text fill="#000000" font-family="sans-serif" font-size="14" lengthAdjust="spacing" textLength="140" x="230" y="565.9797">-mailHeader(): String</text><text fill="#000000" font-family="sans-serif" font-size="14" lengthAdjust="spacing" textLength="124" x="230" y="585.0476">-mailBody(): String</text></g><!--class SmtpCommand--><g id="elem_SmtpCommand"><rect codeLine="29" fill="#F1F1F1" height="135.3396" id="SmtpCommand" rx="2.5" ry="2.5" style="stroke:#181818;stroke-width:0.5;" width="136" x="7" y="457.81"/><ellipse cx="22" cy="473.81" fill="#EB937F" rx="11" ry="11" style="stroke:#181818;stroke-width:1.0;"/><path d="M25.4688,480.31 L18.1563,480.31 L18.1563,467.6381 L25.4688,467.6381 L25.4688,469.5131 L20.2031,469.5131 L20.2031,472.7788 L25.1563,472.7788 L25.1563,474.6381 L20.2031,474.6381 L20.2031,478.435 L25.4688,478.435 L25.4688,480.31 Z " fill="#000000"/><text fill="#000000" font-family="sans-serif" font-size="14" lengthAdjust="spacing" textLength="104" x="36" y="479.242">SmtpCommand</text><line style="stroke:#181818;stroke-width:0.5;" x1="8" x2="142" y1="489.81" y2="489.81"/><text fill="#000000" font-family="sans-serif" font-size="14" lengthAdjust="spacing" textLength="36" x="13" y="508.7759">EHLO</text><text fill="#000000" font-family="sans-serif" font-size="14" lengthAdjust="spacing" textLength="34" x="13" y="527.8439">MAIL</text><text fill="#000000" font-family="sans-serif" font-size="14" lengthAdjust="spacing" textLength="34" x="13" y="546.9118">RCPT</text><text fill="#000000" font-family="sans-serif" font-size="14" lengthAdjust="spacing" textLength="36" x="13" y="565.9797">DATA</text><text fill="#000000" font-family="sans-serif" font-size="14" lengthAdjust="spacing" textLength="34" x="13" y="585.0476">QUIT</text></g><!--class SmtpStatus--><g id="elem_SmtpStatus"><rect codeLine="37" fill="#F1F1F1" height="116.2717" id="SmtpStatus" rx="2.5" ry="2.5" style="stroke:#181818;stroke-width:0.5;" width="109" x="278.5" y="677.22"/><ellipse cx="293.5" cy="693.22" fill="#EB937F" rx="11" ry="11" style="stroke:#181818;stroke-width:1.0;"/><path d="M296.9688,699.72 L289.6563,699.72 L289.6563,687.0481 L296.9688,687.0481 L296.9688,688.9231 L291.7031,688.9231 L291.7031,692.1888 L296.6563,692.1888 L296.6563,694.0481 L291.7031,694.0481 L291.7031,697.845 L296.9688,697.845 L296.9688,699.72 Z " fill="#000000"/><text fill="#000000" font-family="sans-serif" font-size="14" lengthAdjust="spacing" textLength="77" x="307.5" y="698.652">SmtpStatus</text><line style="stroke:#181818;stroke-width:0.5;" x1="279.5" x2="386.5" y1="709.22" y2="709.22"/><text fill="#000000" font-family="sans-serif" font-size="14" lengthAdjust="spacing" textLength="24" x="284.5" y="728.1859">220</text><text fill="#000000" font-family="sans-serif" font-size="14" lengthAdjust="spacing" textLength="24" x="284.5" y="747.2539">221</text><text fill="#000000" font-family="sans-serif" font-size="14" lengthAdjust="spacing" textLength="24" x="284.5" y="766.3218">250</text><text fill="#000000" font-family="sans-serif" font-size="14" lengthAdjust="spacing" textLength="24" x="284.5" y="785.3897">354</text></g><!--class Parser--><g id="elem_Parser"><rect codeLine="44" fill="#F1F1F1" height="181.4754" id="Parser" rx="2.5" ry="2.5" style="stroke:#181818;stroke-width:0.5;" width="418" x="571" y="192.27"/><ellipse cx="754.25" cy="208.27" fill="#ADD1B2" rx="11" ry="11" style="stroke:#181818;stroke-width:1.0;"/><path d="M754.3594,203.8012 Q753.4375,203.8012 752.7031,204.1137 Q751.9844,204.4262 751.4844,205.02 Q750.9844,205.5981 750.7031,206.4731 Q750.4375,207.3481 750.4375,208.4419 Q750.4375,209.8794 750.875,210.9262 Q751.3281,211.9731 752.1719,212.52 Q753.0313,213.0669 754.3438,213.0669 Q755.125,213.0669 755.8125,212.9419 Q756.5156,212.8012 757.5156,212.4887 L757.5156,214.3637 Q756.6563,214.6919 755.8906,214.8169 Q755.1406,214.9419 754.125,214.9419 Q752.2031,214.9419 750.8906,214.145 Q749.5938,213.3325 748.9375,211.8637 Q748.2813,210.3794 748.2813,208.4106 Q748.2813,206.9887 748.6719,205.8169 Q749.0781,204.6294 749.8594,203.7544 Q750.6406,202.8794 751.7813,202.4106 Q752.9219,201.9262 754.3906,201.9262 Q755.3438,201.9262 756.2344,202.1294 Q757.1406,202.3169 758.0781,202.7856 L757.25,204.5669 Q756.4688,204.1919 755.8125,204.0044 Q755.1563,203.8012 754.3594,203.8012 Z " fill="#000000"/><text fill="#000000" font-family="sans-serif" font-size="14" lengthAdjust="spacing" textLength="43" x="774.75" y="213.702">Parser</text><line style="stroke:#181818;stroke-width:0.5;" x1="572" x2="988" y1="224.27" y2="224.27"/><text fill="#000000" font-family="sans-serif" font-size="14" lengthAdjust="spacing" textLength="100" x="577" y="243.2359">-groups: Mail[]</text><line style="stroke:#181818;stroke-width:0.5;" x1="572" x2="988" y1="251.3379" y2="251.3379"/><text fill="#000000" font-family="sans-serif" font-size="14" lengthAdjust="spacing" textLength="406" x="577" y="270.3039">Parser(String victimFile, String messageFile, int groupCount)</text><text fill="#000000" font-family="sans-serif" font-size="14" lengthAdjust="spacing" textLength="287" x="577" y="289.3718">-selectMessage(messages: String[]): String</text><text fill="#000000" font-family="sans-serif" font-size="14" lengthAdjust="spacing" textLength="303" x="577" y="308.4397">-selectCandidate(candidates: String[]): String</text><text fill="#000000" font-family="sans-serif" font-size="14" lengthAdjust="spacing" textLength="292" x="577" y="327.5076">-selectVictims(candidates: String[]): String[]</text><text fill="#000000" font-family="sans-serif" font-size="14" lengthAdjust="spacing" textLength="134" x="577" y="346.5755">+getGroups(): Mail[]</text><text fill="#000000" font-family="sans-serif" font-size="14" lengthAdjust="spacing" text-decoration="underline" textLength="213" x="577" y="365.6434">-parseFile(String path) : String[]</text></g><!--class Mail--><g id="elem_Mail"><rect codeLine="54" fill="#F1F1F1" height="181.4754" id="Mail" rx="2.5" ry="2.5" style="stroke:#181818;stroke-width:0.5;" width="378" x="571" y="434.74"/><ellipse cx="741.25" cy="450.74" fill="#ADD1B2" rx="11" ry="11" style="stroke:#181818;stroke-width:1.0;"/><path d="M741.3594,446.2713 Q740.4375,446.2713 739.7031,446.5838 Q738.9844,446.8963 738.4844,447.49 Q737.9844,448.0681 737.7031,448.9431 Q737.4375,449.8181 737.4375,450.9119 Q737.4375,452.3494 737.875,453.3963 Q738.3281,454.4431 739.1719,454.99 Q740.0313,455.5369 741.3438,455.5369 Q742.125,455.5369 742.8125,455.4119 Q743.5156,455.2713 744.5156,454.9588 L744.5156,456.8338 Q743.6563,457.1619 742.8906,457.2869 Q742.1406,457.4119 741.125,457.4119 Q739.2031,457.4119 737.8906,456.615 Q736.5938,455.8025 735.9375,454.3338 Q735.2813,452.8494 735.2813,450.8806 Q735.2813,449.4588 735.6719,448.2869 Q736.0781,447.0994 736.8594,446.2244 Q737.6406,445.3494 738.7813,444.8806 Q739.9219,444.3963 741.3906,444.3963 Q742.3438,444.3963 743.2344,444.5994 Q744.1406,444.7869 745.0781,445.2556 L744.25,447.0369 Q743.4688,446.6619 742.8125,446.4744 Q742.1563,446.2713 741.3594,446.2713 Z " fill="#000000"/><text fill="#000000" font-family="sans-serif" font-size="14" lengthAdjust="spacing" textLength="29" x="761.75" y="456.172">Mail</text><line style="stroke:#181818;stroke-width:0.5;" x1="572" x2="948" y1="466.74" y2="466.74"/><text fill="#000000" font-family="sans-serif" font-size="14" lengthAdjust="spacing" textLength="101" x="577" y="485.7059">-sender: String</text><text fill="#000000" font-family="sans-serif" font-size="14" lengthAdjust="spacing" textLength="125" x="577" y="504.7739">-receivers: String[]</text><text fill="#000000" font-family="sans-serif" font-size="14" lengthAdjust="spacing" textLength="114" x="577" y="523.8418">-message: String</text><line style="stroke:#181818;stroke-width:0.5;" x1="572" x2="948" y1="531.9438" y2="531.9438"/><text fill="#000000" font-family="sans-serif" font-size="14" lengthAdjust="spacing" textLength="366" x="577" y="550.9097">Mail(String sender, String[] receivers, String message)</text><text fill="#000000" font-family="sans-serif" font-size="14" lengthAdjust="spacing" textLength="135" x="577" y="569.9776">+getSender(): String</text><text fill="#000000" font-family="sans-serif" font-size="14" lengthAdjust="spacing" textLength="161" x="577" y="589.0455">+getReceivers(): String[]</text><text fill="#000000" font-family="sans-serif" font-size="14" lengthAdjust="spacing" textLength="147" x="577" y="608.1134">+getMessage(): String</text></g><g id="elem_GMN9"><path d="M984.5,511.63 L984.5,521.48 L949.32,525.48 L984.5,529.48 L984.5,539.336 A0,0 0 0 0 984.5,539.336 L1075.5,539.336 A0,0 0 0 0 1075.5,539.336 L1075.5,521.63 L1065.5,511.63 L984.5,511.63 A0,0 0 0 0 984.5,511.63 " fill="#FEFFDD" style="stroke:#181818;stroke-width:0.5;"/><path d="M1065.5,511.63 L1065.5,521.63 L1075.5,521.63 L1065.5,511.63 " fill="#FEFFDD" style="stroke:#181818;stroke-width:0.5;"/><text fill="#000000" font-family="sans-serif" font-size="13" lengthAdjust="spacing" textLength="70" x="990.5" y="530.527">Java Record</text></g><!--class Runnable--><g id="elem_Runnable"><rect codeLine="67" fill="#F1F1F1" height="32" id="Runnable" rx="2.5" ry="2.5" style="stroke:#181818;stroke-width:0.5;" width="91" x="444.5" y="267.01"/><ellipse cx="459.5" cy="283.01" fill="#B4A7E5" rx="11" ry="11" style="stroke:#181818;stroke-width:1.0;"/><path d="M461.5938,289.51 L456.6875,289.51 L456.6875,288.135 L458.1094,287.8225 L458.1094,278.5413 L456.6875,278.1975 L456.6875,276.8381 L461.5938,276.8381 L461.5938,278.1975 L460.1719,278.5413 L460.1719,287.8225 L461.5938,288.135 L461.5938,289.51 Z " fill="#000000"/><text fill="#000000" font-family="sans-serif" font-size="14" font-style="italic" lengthAdjust="spacing" textLength="59" x="473.5" y="288.442">Runnable</text></g><!--link Client to Handler--><g id="link_Client_Handler"><path codeLine="69" d="M453.77,131.7 C420.49,159.68 385.8129,188.8392 352.5629,216.7892 " fill="none" id="Client-to-Handler" style="stroke:#181818;stroke-width:1.0;stroke-dasharray:7.0,7.0;"/><polygon fill="#181818" points="347.97,220.65,357.4332,217.9208,351.7974,217.4327,352.2855,211.7969,347.97,220.65" style="stroke:#181818;stroke-width:1.0;"/></g><!--link Client to Parser--><g id="link_Client_Parser"><path codeLine="70" d="M600.52,131.7 C622.99,150.51 643.58,167.7577 667.82,188.0577 " fill="none" id="Client-to-Parser" style="stroke:#181818;stroke-width:1.0;stroke-dasharray:7.0,7.0;"/><polygon fill="#181818" points="672.42,191.91,668.0882,183.0649,668.5867,188.6998,662.9518,189.1982,672.42,191.91" style="stroke:#181818;stroke-width:1.0;"/></g><!--link Handler to Worker--><g id="link_Handler_Worker"><path codeLine="71" d="M289.86,345.62 C298.12,379.85 306.9938,416.6471 315.4438,451.6971 " fill="none" id="Handler-to-Worker" style="stroke:#181818;stroke-width:1.0;stroke-dasharray:7.0,7.0;"/><polygon fill="#181818" points="316.85,457.53,318.6293,447.8432,315.6782,452.6693,310.8521,449.7181,316.85,457.53" style="stroke:#181818;stroke-width:1.0;"/></g><!--link Runnable to Handler--><g id="link_Runnable_Handler"><path codeLine="72" d="M444.26,283.01 C432.77,283.01 439.28,283.01 427.79,283.01 " fill="none" id="Runnable-to-Handler" style="stroke:#181818;stroke-width:1.0;stroke-dasharray:7.0,7.0;"/><polygon fill="none" points="409.79,283.01,427.79,289.01,427.79,277.01,409.79,283.01" style="stroke:#181818;stroke-width:1.0;"/></g><!--link Parser to Mail--><g id="link_Parser_Mail"><path codeLine="73" d="M772.5,374.23 C770.86,393.96 769.6173,408.8506 767.9773,428.5706 " fill="none" id="Parser-to-Mail" style="stroke:#181818;stroke-width:1.0;stroke-dasharray:7.0,7.0;"/><polygon fill="#181818" points="767.48,434.55,772.2121,425.9125,767.8944,429.5672,764.2397,425.2495,767.48,434.55" style="stroke:#181818;stroke-width:1.0;"/></g><!--link Worker to Mail--><g id="link_Worker_Mail"><path codeLine="74" d="M442.41,525.48 C481.57,525.48 520.93,525.48 564.88,525.48 " fill="none" id="Worker-to-Mail" style="stroke:#181818;stroke-width:1.0;"/><polygon fill="#181818" points="570.88,525.48,561.88,521.48,565.88,525.48,561.88,529.48,570.88,525.48" style="stroke:#181818;stroke-width:1.0;"/><polygon fill="#000000" points="482.5,513.333,473.4549,510.3941,473.4549,516.2719,482.5,513.333" style="stroke:#000000;stroke-width:1.0;"/><text fill="#000000" font-family="sans-serif" font-size="13" lengthAdjust="spacing" textLength="53" x="486.5" y="518.377">Message</text><text fill="#000000" font-family="sans-serif" font-size="13" lengthAdjust="spacing" textLength="7" x="449.9961" y="521.8297">*</text><text fill="#000000" font-family="sans-serif" font-size="13" lengthAdjust="spacing" textLength="7" x="555.7538" y="522.0334">1</text></g><!--reverse link SmtpCommand to Worker--><g id="link_SmtpCommand_Worker"><path codeLine="75" d="M149.46,525.48 C174.09,525.48 196.53,525.48 223.77,525.48 " fill="none" id="SmtpCommand-backto-Worker" style="stroke:#181818;stroke-width:1.0;"/><polygon fill="#181818" points="143.46,525.48,152.46,529.48,148.46,525.48,152.46,521.48,143.46,525.48" style="stroke:#181818;stroke-width:1.0;"/><polygon fill="#000000" points="160.5,513.333,169.5451,516.2719,169.5451,510.3941,160.5,513.333" style="stroke:#000000;stroke-width:1.0;"/><text fill="#000000" font-family="sans-serif" font-size="13" lengthAdjust="spacing" textLength="31" x="174.5" y="518.377">State</text><text fill="#000000" font-family="sans-serif" font-size="13" lengthAdjust="spacing" textLength="7" x="150.8809" y="521.5369">1</text><text fill="#000000" font-family="sans-serif" font-size="13" lengthAdjust="spacing" textLength="7" x="208.8437" y="521.8042">*</text></g><!--link Worker to SmtpStatus--><g id="link_Worker_SmtpStatus"><path codeLine="76" d="M333,593.4 C333,620.34 333,645.1 333,671 " fill="none" id="Worker-to-SmtpStatus" style="stroke:#181818;stroke-width:1.0;stroke-dasharray:7.0,7.0;"/><polygon fill="#181818" points="333,677,337,668,333,672,329,668,333,677" style="stroke:#181818;stroke-width:1.0;"/></g><!--SRC=[fLJBKjim5DtxA-vaKwVWX4VPUC5CcZv81wQKq7R1PA7ODuu6I_98Se1I_hrw9dQ6QHVDHihLEUU-_MQjTQFoyRYf2TSjgqU5OEEY9afb9IML92nHzvGtnDp0sITQIxfiDSuAmUVq5y9H1r99qJOplaP9DU45mccofYK2iaO_0KEz5gNgczWIfKeI9mxJcYBNy9o0-JqhJJGjNk006A4ydHlFlBfR096L6kQm4RHqmCo-rog7AtFSBPpj86W55cneeIdxH6iyX61Yg1IfqDkeSUkYdugMws7Gm4SiJAvfzFOI0xqWlAnHXaWpKAAuHvt3t9t1-23aFSeSVhhJ6GClzRX0Emo8G8ZEPSlJ8Unx3b3lsFz9RTwk1f5gXT9-cbR9Mq9qfWbSK_raa-izMA4B9AKHVktflIYx71COyfR1d6bJEyPCWY6uZnUNNztbQZAxT9URwVMjktoOt4xSvTltsMrFOcvwtggWS79o5CvZVvxv_wTdxtO5kIPITJhXcjYV1O_udqam3SOQ2ttbWMaWg5Y5kyL-fJn-Qgf1Is8cg8YtVt9-kFZKtndRAQzGVtOPsvPqSjukJmQDJT_c5YlG4BtUZOCXR6lf1caxqyXBExwz62KMI3TcPVSYoM8HUtYh5xrwkSCjRIUrtuVXBhUv8-tDeNkvYUpqrQB4JlK6bGkD86crrY1MBhWSlf0D0ICcP9aaYMa-oXKnNwwRbdEoh359maTfD3gFwzir-U5AuWTXL8e7RinXvwCAZ9pRqU-THfXRgs4ZIS9Y3zuE87FWx1m6nmFVanm68ICu7_IWDQuYihk2Xc1NgGkFeUtMx0y0]--></g></svg>