<?xml version="1.0" encoding="us-ascii" standalone="no"?><svg xmlns="http://www.w3.org/2000/svg" xmlns:xlink="http://www.w3.org/1999/xlink" contentStyleType="text/css" height="2601.5px" preserveAspectRatio="none" style="width:815px;height:2601px;background:#FFFFFF;" version="1.1" viewBox="0 0 815 2601" width="815.1px" zoomAndPan="magnify"><defs/><g><rect fill="#FFFFFF" height="2360.8455" style="stroke:#181818;stroke-width:1.1;" width="11" x="146.3" y="129.5513"/><rect fill="#FFFFFF" height="2166.6624" style="stroke:#181818;stroke-width:1.1;" width="11" x="282.7" y="228.6812"/><rect fill="#FFFFFF" height="1532.8322" style="stroke:#181818;stroke-width:1.1;" width="11" x="288.2" y="272.3578"/><rect fill="#FFFFFF" height="515.6769" style="stroke:#181818;stroke-width:1.1;" width="11" x="288.2" y="1856.5667"/><rect fill="#FFFFFF" height="15.4" style="stroke:#181818;stroke-width:1.1;" width="11" x="419.1" y="342.111"/><rect fill="#FFFFFF" height="15.4" style="stroke:#181818;stroke-width:1.1;" width="11" x="419.1" y="533.2976"/><rect fill="#FFFFFF" height="15.4" style="stroke:#181818;stroke-width:1.1;" width="11" x="419.1" y="650.0274"/><rect fill="#FFFFFF" height="15.4" style="stroke:#181818;stroke-width:1.1;" width="11" x="419.1" y="814.0374"/><rect fill="#FFFFFF" height="15.4" style="stroke:#181818;stroke-width:1.1;" width="11" x="419.1" y="930.7672"/><rect fill="#FFFFFF" height="15.4" style="stroke:#181818;stroke-width:1.1;" width="11" x="419.1" y="1094.7772"/><rect fill="#FFFFFF" height="15.4" style="stroke:#181818;stroke-width:1.1;" width="11" x="419.1" y="1285.9637"/><rect fill="#FFFFFF" height="15.4" style="stroke:#181818;stroke-width:1.1;" width="11" x="419.1" y="1566.7035"/><rect fill="#FFFFFF" height="15.4" style="stroke:#181818;stroke-width:1.1;" width="11" x="557.7" y="464.3409"/><rect fill="#FFFFFF" height="15.4" style="stroke:#181818;stroke-width:1.1;" width="11" x="557.7" y="729.6807"/><rect fill="#FFFFFF" height="15.4" style="stroke:#181818;stroke-width:1.1;" width="11" x="557.7" y="1025.8205"/><rect fill="#FFFFFF" height="15.4" style="stroke:#181818;stroke-width:1.1;" width="11" x="557.7" y="1217.007"/><rect fill="#FFFFFF" height="15.4" style="stroke:#181818;stroke-width:1.1;" width="11" x="557.7" y="1482.3468"/><rect fill="#FFFFFF" height="15.4" style="stroke:#181818;stroke-width:1.1;" width="11" x="557.7" y="1654.0567"/><rect fill="#FFFFFF" height="15.4" style="stroke:#181818;stroke-width:1.1;" width="11" x="557.7" y="1760.09"/><rect fill="#FFFFFF" height="15.4" style="stroke:#181818;stroke-width:1.1;" width="11" x="696.3" y="1402.6936"/><rect fill="#FFFFFF" height="15.4" style="stroke:#181818;stroke-width:1.1;" width="11" x="696.3" y="2001.0402"/><rect fill="#FFFFFF" height="15.4" style="stroke:#181818;stroke-width:1.1;" width="11" x="696.3" y="2069.9969"/><rect fill="#FFFFFF" height="15.4" style="stroke:#181818;stroke-width:1.1;" width="11" x="696.3" y="2138.9536"/><rect fill="#FFFFFF" height="15.4" style="stroke:#181818;stroke-width:1.1;" width="11" x="696.3" y="2207.9103"/><rect fill="#FFFFFF" height="15.4" style="stroke:#181818;stroke-width:1.1;" width="11" x="696.3" y="2258.1869"/><rect fill="#FFFFFF" height="15.4" style="stroke:#181818;stroke-width:1.1;" width="11" x="696.3" y="2308.4635"/><rect fill="none" height="2330.0455" style="stroke:#000000;stroke-width:1.6500000000000001;" width="786.5" x="11" y="146.0513"/><rect fill="none" height="1489.9322" style="stroke:#000000;stroke-width:1.6500000000000001;" width="764.5" x="22" y="294.3578"/><rect fill="none" height="56.5532" style="stroke:#000000;stroke-width:1.6500000000000001;" width="408.1" x="214.5" y="374.011"/><rect fill="none" height="196.3831" style="stroke:#000000;stroke-width:1.6500000000000001;" width="446.6" x="203.5" y="565.1976"/><rect fill="none" height="71.9532" style="stroke:#000000;stroke-width:1.6500000000000001;" width="424.6" x="214.5" y="681.9274"/><rect fill="none" height="146.1065" style="stroke:#000000;stroke-width:1.6500000000000001;" width="465.3" x="33" y="845.9374"/><rect fill="none" height="21.6766" style="stroke:#000000;stroke-width:1.6500000000000001;" width="358.6" x="44" y="962.6672"/><rect fill="none" height="56.5532" style="stroke:#000000;stroke-width:1.6500000000000001;" width="335.5" x="214.5" y="1126.6772"/><rect fill="none" height="196.3831" style="stroke:#000000;stroke-width:1.6500000000000001;" width="572" x="203.5" y="1317.8637"/><rect fill="none" height="71.9532" style="stroke:#000000;stroke-width:1.6500000000000001;" width="424.6" x="214.5" y="1434.5936"/><rect fill="none" height="21.6766" style="stroke:#000000;stroke-width:1.6500000000000001;" width="430.1" x="44" y="1598.6035"/><rect fill="none" height="21.6766" style="stroke:#000000;stroke-width:1.6500000000000001;" width="240.9" x="44" y="1704.6368"/><rect fill="none" height="472.7769" style="stroke:#000000;stroke-width:1.6500000000000001;" width="561" x="214.5" y="1878.5667"/><rect fill="none" height="56.5532" style="stroke:#000000;stroke-width:1.6500000000000001;" width="207.9" x="78.1" y="2411.8436"/><line style="stroke:#181818;stroke-width:0.55;stroke-dasharray:5.0,5.0;" x1="55" x2="55" y1="92.4747" y2="2510.1968"/><line style="stroke:#181818;stroke-width:0.55;stroke-dasharray:5.0,5.0;" x1="151.8" x2="151.8" y1="92.4747" y2="2510.1968"/><line style="stroke:#181818;stroke-width:0.55;stroke-dasharray:5.0,5.0;" x1="288.2" x2="288.2" y1="92.4747" y2="2510.1968"/><line style="stroke:#181818;stroke-width:0.55;stroke-dasharray:5.0,5.0;" x1="424.6" x2="424.6" y1="92.4747" y2="2510.1968"/><line style="stroke:#181818;stroke-width:0.55;stroke-dasharray:5.0,5.0;" x1="563.2" x2="563.2" y1="92.4747" y2="2510.1968"/><line style="stroke:#181818;stroke-width:0.55;stroke-dasharray:5.0,5.0;" x1="701.8" x2="701.8" y1="92.4747" y2="2510.1968"/><text fill="#000000" font-family="sans-serif" font-size="15.4" lengthAdjust="spacing" textLength="38.5" x="33" y="87.9625">Actor</text><ellipse cx="55.55" cy="14.85" fill="#E2E2F0" rx="8.8" ry="8.8" style="stroke:#181818;stroke-width:0.55;"/><path d="M55.55,23.65 L55.55,53.35 M41.25,32.45 L69.85,32.45 M55.55,53.35 L41.25,69.85 M55.55,53.35 L69.85,69.85 " fill="none" style="stroke:#181818;stroke-width:0.55;"/><text fill="#000000" font-family="sans-serif" font-size="15.4" lengthAdjust="spacing" textLength="38.5" x="33" y="2525.5594">Actor</text><ellipse cx="55.55" cy="2539.4215" fill="#E2E2F0" rx="8.8" ry="8.8" style="stroke:#181818;stroke-width:0.55;"/><path d="M55.55,2548.2215 L55.55,2577.9215 M41.25,2557.0215 L69.85,2557.0215 M55.55,2577.9215 L41.25,2594.4215 M55.55,2577.9215 L69.85,2594.4215 " fill="none" style="stroke:#181818;stroke-width:0.55;"/><rect fill="#E2E2F0" height="36.3747" rx="2.75" ry="2.75" style="stroke:#181818;stroke-width:0.55;" width="125.4" x="89.1" y="55"/><text fill="#000000" font-family="sans-serif" font-size="15.4" lengthAdjust="spacing" textLength="97.9" x="102.85" y="79.1625">SmtpHandler</text><rect fill="#E2E2F0" height="36.3747" rx="2.75" ry="2.75" style="stroke:#181818;stroke-width:0.55;" width="125.4" x="89.1" y="2509.0968"/><text fill="#000000" font-family="sans-serif" font-size="15.4" lengthAdjust="spacing" textLength="97.9" x="102.85" y="2533.2594">SmtpHandler</text><rect fill="#E2E2F0" height="36.3747" rx="2.75" ry="2.75" style="stroke:#181818;stroke-width:0.55;" width="125.4" x="225.5" y="55"/><text fill="#000000" font-family="sans-serif" font-size="15.4" lengthAdjust="spacing" textLength="84.7" x="245.85" y="79.1625">MailWorker</text><rect fill="#E2E2F0" height="36.3747" rx="2.75" ry="2.75" style="stroke:#181818;stroke-width:0.55;" width="125.4" x="225.5" y="2509.0968"/><text fill="#000000" font-family="sans-serif" font-size="15.4" lengthAdjust="spacing" textLength="84.7" x="245.85" y="2533.2594">MailWorker</text><rect fill="#E2E2F0" height="36.3747" rx="2.75" ry="2.75" style="stroke:#181818;stroke-width:0.55;" width="125.4" x="361.9" y="55"/><text fill="#000000" font-family="sans-serif" font-size="15.4" lengthAdjust="spacing" textLength="84.7" x="382.25" y="79.1625">SmtpStatus</text><rect fill="#E2E2F0" height="36.3747" rx="2.75" ry="2.75" style="stroke:#181818;stroke-width:0.55;" width="125.4" x="361.9" y="2509.0968"/><text fill="#000000" font-family="sans-serif" font-size="15.4" lengthAdjust="spacing" textLength="84.7" x="382.25" y="2533.2594">SmtpStatus</text><rect fill="#E2E2F0" height="36.3747" rx="2.75" ry="2.75" style="stroke:#181818;stroke-width:0.55;" width="129.8" x="498.3" y="55"/><text fill="#000000" font-family="sans-serif" font-size="15.4" lengthAdjust="spacing" textLength="114.4" x="506" y="79.1625">SmtpCommand</text><rect fill="#E2E2F0" height="36.3747" rx="2.75" ry="2.75" style="stroke:#181818;stroke-width:0.55;" width="129.8" x="498.3" y="2509.0968"/><text fill="#000000" font-family="sans-serif" font-size="15.4" lengthAdjust="spacing" textLength="114.4" x="506" y="2533.2594">SmtpCommand</text><rect fill="#E2E2F0" height="36.3747" rx="2.75" ry="2.75" style="stroke:#181818;stroke-width:0.55;" width="125.4" x="639.1" y="55"/><text fill="#000000" font-family="sans-serif" font-size="15.4" lengthAdjust="spacing" textLength="31.9" x="685.85" y="79.1625">Mail</text><rect fill="#E2E2F0" height="36.3747" rx="2.75" ry="2.75" style="stroke:#181818;stroke-width:0.55;" width="125.4" x="639.1" y="2509.0968"/><text fill="#000000" font-family="sans-serif" font-size="15.4" lengthAdjust="spacing" textLength="31.9" x="685.85" y="2533.2594">Mail</text><rect fill="#FFFFFF" height="2360.8455" style="stroke:#181818;stroke-width:1.1;" width="11" x="146.3" y="129.5513"/><rect fill="#FFFFFF" height="2166.6624" style="stroke:#181818;stroke-width:1.1;" width="11" x="282.7" y="228.6812"/><rect fill="#FFFFFF" height="1532.8322" style="stroke:#181818;stroke-width:1.1;" width="11" x="288.2" y="272.3578"/><rect fill="#FFFFFF" height="515.6769" style="stroke:#181818;stroke-width:1.1;" width="11" x="288.2" y="1856.5667"/><rect fill="#FFFFFF" height="15.4" style="stroke:#181818;stroke-width:1.1;" width="11" x="419.1" y="342.111"/><rect fill="#FFFFFF" height="15.4" style="stroke:#181818;stroke-width:1.1;" width="11" x="419.1" y="533.2976"/><rect fill="#FFFFFF" height="15.4" style="stroke:#181818;stroke-width:1.1;" width="11" x="419.1" y="650.0274"/><rect fill="#FFFFFF" height="15.4" style="stroke:#181818;stroke-width:1.1;" width="11" x="419.1" y="814.0374"/><rect fill="#FFFFFF" height="15.4" style="stroke:#181818;stroke-width:1.1;" width="11" x="419.1" y="930.7672"/><rect fill="#FFFFFF" height="15.4" style="stroke:#181818;stroke-width:1.1;" width="11" x="419.1" y="1094.7772"/><rect fill="#FFFFFF" height="15.4" style="stroke:#181818;stroke-width:1.1;" width="11" x="419.1" y="1285.9637"/><rect fill="#FFFFFF" height="15.4" style="stroke:#181818;stroke-width:1.1;" width="11" x="419.1" y="1566.7035"/><rect fill="#FFFFFF" height="15.4" style="stroke:#181818;stroke-width:1.1;" width="11" x="557.7" y="464.3409"/><rect fill="#FFFFFF" height="15.4" style="stroke:#181818;stroke-width:1.1;" width="11" x="557.7" y="729.6807"/><rect fill="#FFFFFF" height="15.4" style="stroke:#181818;stroke-width:1.1;" width="11" x="557.7" y="1025.8205"/><rect fill="#FFFFFF" height="15.4" style="stroke:#181818;stroke-width:1.1;" width="11" x="557.7" y="1217.007"/><rect fill="#FFFFFF" height="15.4" style="stroke:#181818;stroke-width:1.1;" width="11" x="557.7" y="1482.3468"/><rect fill="#FFFFFF" height="15.4" style="stroke:#181818;stroke-width:1.1;" width="11" x="557.7" y="1654.0567"/><rect fill="#FFFFFF" height="15.4" style="stroke:#181818;stroke-width:1.1;" width="11" x="557.7" y="1760.09"/><rect fill="#FFFFFF" height="15.4" style="stroke:#181818;stroke-width:1.1;" width="11" x="696.3" y="1402.6936"/><rect fill="#FFFFFF" height="15.4" style="stroke:#181818;stroke-width:1.1;" width="11" x="696.3" y="2001.0402"/><rect fill="#FFFFFF" height="15.4" style="stroke:#181818;stroke-width:1.1;" width="11" x="696.3" y="2069.9969"/><rect fill="#FFFFFF" height="15.4" style="stroke:#181818;stroke-width:1.1;" width="11" x="696.3" y="2138.9536"/><rect fill="#FFFFFF" height="15.4" style="stroke:#181818;stroke-width:1.1;" width="11" x="696.3" y="2207.9103"/><rect fill="#FFFFFF" height="15.4" style="stroke:#181818;stroke-width:1.1;" width="11" x="696.3" y="2258.1869"/><rect fill="#FFFFFF" height="15.4" style="stroke:#181818;stroke-width:1.1;" width="11" x="696.3" y="2308.4635"/><polygon fill="#181818" points="133.1,125.1513,144.1,129.5513,133.1,133.9513,137.5,129.5513" style="stroke:#181818;stroke-width:1.1;"/><line style="stroke:#181818;stroke-width:1.1;" x1="55.55" x2="139.7" y1="129.5513" y2="129.5513"/><text fill="#000000" font-family="sans-serif" font-size="14.3" lengthAdjust="spacing" textLength="23.1" x="63.25" y="123.1614">run</text><path d="M11,146.0513 L90.2,146.0513 L90.2,156.7279 L79.2,167.7279 L11,167.7279 L11,146.0513 " fill="#EEEEEE" style="stroke:#000000;stroke-width:1.6500000000000001;"/><rect fill="none" height="2330.0455" style="stroke:#000000;stroke-width:1.6500000000000001;" width="786.5" x="11" y="146.0513"/><text fill="#000000" font-family="sans-serif" font-size="14.3" font-weight="bold" lengthAdjust="spacing" textLength="29.7" x="27.5" y="162.438">loop</text><polygon fill="#181818" points="169.4,189.4046,158.4,193.8046,169.4,198.2046,165,193.8046" style="stroke:#181818;stroke-width:1.1;"/><line style="stroke:#181818;stroke-width:1.1;stroke-dasharray:2.0,2.0;" x1="162.8" x2="807.4" y1="193.8046" y2="193.8046"/><text fill="#000000" font-family="sans-serif" font-size="14.3" lengthAdjust="spacing" textLength="95.7" x="176" y="187.4147">Server request</text><polygon fill="#181818" points="269.5,224.2812,280.5,228.6812,269.5,233.0812,273.9,228.6812" style="stroke:#181818;stroke-width:1.1;"/><line style="stroke:#181818;stroke-width:1.1;" x1="157.3" x2="276.1" y1="228.6812" y2="228.6812"/><text fill="#000000" font-family="sans-serif" font-size="14.3" lengthAdjust="spacing" textLength="33" x="165" y="222.2913">work</text><line style="stroke:#181818;stroke-width:1.1;" x1="293.7" x2="345.4" y1="258.0578" y2="258.0578"/><line style="stroke:#181818;stroke-width:1.1;" x1="345.4" x2="345.4" y1="258.0578" y2="272.3578"/><line style="stroke:#181818;stroke-width:1.1;" x1="300.3" x2="345.4" y1="272.3578" y2="272.3578"/><polygon fill="#181818" points="311.3,267.9578,300.3,272.3578,311.3,276.7578,306.9,272.3578" style="stroke:#181818;stroke-width:1.1;"/><text fill="#000000" font-family="sans-serif" font-size="14.3" lengthAdjust="spacing" textLength="99" x="306.9" y="251.6679">handleRequest</text><path d="M22,294.3578 L88,294.3578 L88,305.0344 L77,316.0344 L22,316.0344 L22,294.3578 " fill="#EEEEEE" style="stroke:#000000;stroke-width:1.6500000000000001;"/><rect fill="none" height="1489.9322" style="stroke:#000000;stroke-width:1.6500000000000001;" width="764.5" x="22" y="294.3578"/><text fill="#000000" font-family="sans-serif" font-size="14.3" font-weight="bold" lengthAdjust="spacing" textLength="16.5" x="38.5" y="310.7445">alt</text><text fill="#000000" font-family="sans-serif" font-size="12.1" font-weight="bold" lengthAdjust="spacing" textLength="111.1" x="104.5" y="309.4926">[currentCommand]</text><polygon fill="#181818" points="405.9,337.711,416.9,342.111,405.9,346.511,410.3,342.111" style="stroke:#181818;stroke-width:1.1;"/><line style="stroke:#181818;stroke-width:1.1;" x1="299.2" x2="412.5" y1="342.111" y2="342.111"/><text fill="#000000" font-family="sans-serif" font-size="14.3" lengthAdjust="spacing" textLength="31.9" x="306.9" y="335.7211">code</text><polygon fill="#181818" points="311.3,353.111,300.3,357.511,311.3,361.911,306.9,357.511" style="stroke:#181818;stroke-width:1.1;"/><line style="stroke:#181818;stroke-width:1.1;stroke-dasharray:2.0,2.0;" x1="304.7" x2="423.5" y1="357.511" y2="357.511"/><path d="M214.5,374.011 L280.5,374.011 L280.5,384.6877 L269.5,395.6877 L214.5,395.6877 L214.5,374.011 " fill="#EEEEEE" style="stroke:#000000;stroke-width:1.6500000000000001;"/><rect fill="none" height="56.5532" style="stroke:#000000;stroke-width:1.6500000000000001;" width="408.1" x="214.5" y="374.011"/><text fill="#000000" font-family="sans-serif" font-size="14.3" font-weight="bold" lengthAdjust="spacing" textLength="16.5" x="231" y="390.3978">alt</text><text fill="#000000" font-family="sans-serif" font-size="12.1" font-weight="bold" lengthAdjust="spacing" textLength="320.1" x="297" y="389.1458">[!request.startsWith(SmtpStatus.SERVICE_READY.code())]</text><polygon fill="#181818" points="795.3,417.3643,806.3,421.7643,795.3,426.1643,799.7,421.7643" style="stroke:#181818;stroke-width:1.1;"/><line style="stroke:#181818;stroke-width:1.1;" x1="299.2" x2="801.9" y1="421.7643" y2="421.7643"/><text fill="#000000" font-family="sans-serif" font-size="14.3" lengthAdjust="spacing" textLength="39.6" x="306.9" y="415.3744">throw</text><polygon fill="#181818" points="544.5,459.9409,555.5,464.3409,544.5,468.7409,548.9,464.3409" style="stroke:#181818;stroke-width:1.1;"/><line style="stroke:#181818;stroke-width:1.1;" x1="299.2" x2="551.1" y1="464.3409" y2="464.3409"/><text fill="#000000" font-family="sans-serif" font-size="14.3" lengthAdjust="spacing" textLength="29.7" x="306.9" y="457.951">next</text><polygon fill="#181818" points="311.3,475.3409,300.3,479.7409,311.3,484.1409,306.9,479.7409" style="stroke:#181818;stroke-width:1.1;"/><line style="stroke:#181818;stroke-width:1.1;stroke-dasharray:2.0,2.0;" x1="304.7" x2="562.1" y1="479.7409" y2="479.7409"/><line style="stroke:#000000;stroke-width:1.1;stroke-dasharray:2.0,2.0;" x1="22" x2="786.5" y1="489.6409" y2="489.6409"/><text fill="#000000" font-family="sans-serif" font-size="12.1" font-weight="bold" lengthAdjust="spacing" textLength="40.7" x="27.5" y="502.5757">[EHLO]</text><polygon fill="#181818" points="405.9,528.8976,416.9,533.2976,405.9,537.6976,410.3,533.2976" style="stroke:#181818;stroke-width:1.1;"/><line style="stroke:#181818;stroke-width:1.1;" x1="299.2" x2="412.5" y1="533.2976" y2="533.2976"/><text fill="#000000" font-family="sans-serif" font-size="14.3" lengthAdjust="spacing" textLength="31.9" x="306.9" y="526.9077">code</text><polygon fill="#181818" points="311.3,544.2976,300.3,548.6976,311.3,553.0976,306.9,548.6976" style="stroke:#181818;stroke-width:1.1;"/><line style="stroke:#181818;stroke-width:1.1;stroke-dasharray:2.0,2.0;" x1="304.7" x2="423.5" y1="548.6976" y2="548.6976"/><path d="M203.5,565.1976 L269.5,565.1976 L269.5,575.8742 L258.5,586.8742 L203.5,586.8742 L203.5,565.1976 " fill="#EEEEEE" style="stroke:#000000;stroke-width:1.6500000000000001;"/><rect fill="none" height="196.3831" style="stroke:#000000;stroke-width:1.6500000000000001;" width="446.6" x="203.5" y="565.1976"/><text fill="#000000" font-family="sans-serif" font-size="14.3" font-weight="bold" lengthAdjust="spacing" textLength="16.5" x="220" y="581.5843">alt</text><text fill="#000000" font-family="sans-serif" font-size="12.1" font-weight="bold" lengthAdjust="spacing" textLength="247.5" x="286" y="580.3324">[!request.startsWith(SmtpStatus.OK.code())]</text><polygon fill="#181818" points="795.3,608.5508,806.3,612.9508,795.3,617.3508,799.7,612.9508" style="stroke:#181818;stroke-width:1.1;"/><line style="stroke:#181818;stroke-width:1.1;" x1="299.2" x2="801.9" y1="612.9508" y2="612.9508"/><text fill="#000000" font-family="sans-serif" font-size="14.3" lengthAdjust="spacing" textLength="39.6" x="306.9" y="606.5609">throw</text><line style="stroke:#000000;stroke-width:1.1;stroke-dasharray:2.0,2.0;" x1="203.5" x2="650.1" y1="622.8508" y2="622.8508"/><polygon fill="#181818" points="405.9,645.6274,416.9,650.0274,405.9,654.4274,410.3,650.0274" style="stroke:#181818;stroke-width:1.1;"/><line style="stroke:#181818;stroke-width:1.1;" x1="299.2" x2="412.5" y1="650.0274" y2="650.0274"/><text fill="#000000" font-family="sans-serif" font-size="14.3" lengthAdjust="spacing" textLength="31.9" x="306.9" y="643.6375">code</text><polygon fill="#181818" points="311.3,661.0274,300.3,665.4274,311.3,669.8274,306.9,665.4274" style="stroke:#181818;stroke-width:1.1;"/><line style="stroke:#181818;stroke-width:1.1;stroke-dasharray:2.0,2.0;" x1="304.7" x2="423.5" y1="665.4274" y2="665.4274"/><path d="M214.5,681.9274 L280.5,681.9274 L280.5,692.6041 L269.5,703.6041 L214.5,703.6041 L214.5,681.9274 " fill="#EEEEEE" style="stroke:#000000;stroke-width:1.6500000000000001;"/><rect fill="none" height="71.9532" style="stroke:#000000;stroke-width:1.6500000000000001;" width="424.6" x="214.5" y="681.9274"/><text fill="#000000" font-family="sans-serif" font-size="14.3" font-weight="bold" lengthAdjust="spacing" textLength="16.5" x="231" y="698.3142">alt</text><text fill="#000000" font-family="sans-serif" font-size="12.1" font-weight="bold" lengthAdjust="spacing" textLength="270.6" x="297" y="697.0622">[request.startsWith(SmtpStatus.OK.code() + "-")]</text><polygon fill="#181818" points="544.5,725.2807,555.5,729.6807,544.5,734.0807,548.9,729.6807" style="stroke:#181818;stroke-width:1.1;"/><line style="stroke:#181818;stroke-width:1.1;" x1="299.2" x2="551.1" y1="729.6807" y2="729.6807"/><text fill="#000000" font-family="sans-serif" font-size="14.3" lengthAdjust="spacing" textLength="29.7" x="306.9" y="723.2908">next</text><polygon fill="#181818" points="311.3,740.6807,300.3,745.0807,311.3,749.4807,306.9,745.0807" style="stroke:#181818;stroke-width:1.1;"/><line style="stroke:#181818;stroke-width:1.1;stroke-dasharray:2.0,2.0;" x1="304.7" x2="562.1" y1="745.0807" y2="745.0807"/><line style="stroke:#000000;stroke-width:1.1;stroke-dasharray:2.0,2.0;" x1="22" x2="786.5" y1="770.3807" y2="770.3807"/><text fill="#000000" font-family="sans-serif" font-size="12.1" font-weight="bold" lengthAdjust="spacing" textLength="28.6" x="27.5" y="783.3155">[EXT]</text><polygon fill="#181818" points="405.9,809.6374,416.9,814.0374,405.9,818.4374,410.3,814.0374" style="stroke:#181818;stroke-width:1.1;"/><line style="stroke:#181818;stroke-width:1.1;" x1="299.2" x2="412.5" y1="814.0374" y2="814.0374"/><text fill="#000000" font-family="sans-serif" font-size="14.3" lengthAdjust="spacing" textLength="31.9" x="306.9" y="807.6475">code</text><polygon fill="#181818" points="311.3,825.0374,300.3,829.4374,311.3,833.8374,306.9,829.4374" style="stroke:#181818;stroke-width:1.1;"/><line style="stroke:#181818;stroke-width:1.1;stroke-dasharray:2.0,2.0;" x1="304.7" x2="423.5" y1="829.4374" y2="829.4374"/><path d="M33,845.9374 L99,845.9374 L99,856.614 L88,867.614 L33,867.614 L33,845.9374 " fill="#EEEEEE" style="stroke:#000000;stroke-width:1.6500000000000001;"/><rect fill="none" height="146.1065" style="stroke:#000000;stroke-width:1.6500000000000001;" width="465.3" x="33" y="845.9374"/><text fill="#000000" font-family="sans-serif" font-size="14.3" font-weight="bold" lengthAdjust="spacing" textLength="16.5" x="49.5" y="862.3241">alt</text><text fill="#000000" font-family="sans-serif" font-size="12.1" font-weight="bold" lengthAdjust="spacing" textLength="247.5" x="115.5" y="861.0722">[!request.startsWith(SmtpStatus.OK.code())]</text><polygon fill="#181818" points="795.3,889.2906,806.3,893.6906,795.3,898.0906,799.7,893.6906" style="stroke:#181818;stroke-width:1.1;"/><line style="stroke:#181818;stroke-width:1.1;" x1="299.2" x2="801.9" y1="893.6906" y2="893.6906"/><text fill="#000000" font-family="sans-serif" font-size="14.3" lengthAdjust="spacing" textLength="39.6" x="306.9" y="887.3007">throw</text><line style="stroke:#000000;stroke-width:1.1;stroke-dasharray:2.0,2.0;" x1="33" x2="498.3" y1="903.5906" y2="903.5906"/><polygon fill="#181818" points="405.9,926.3672,416.9,930.7672,405.9,935.1672,410.3,930.7672" style="stroke:#181818;stroke-width:1.1;"/><line style="stroke:#181818;stroke-width:1.1;" x1="299.2" x2="412.5" y1="930.7672" y2="930.7672"/><text fill="#000000" font-family="sans-serif" font-size="14.3" lengthAdjust="spacing" textLength="31.9" x="306.9" y="924.3773">code</text><polygon fill="#181818" points="311.3,941.7672,300.3,946.1672,311.3,950.5672,306.9,946.1672" style="stroke:#181818;stroke-width:1.1;"/><line style="stroke:#181818;stroke-width:1.1;stroke-dasharray:2.0,2.0;" x1="304.7" x2="423.5" y1="946.1672" y2="946.1672"/><path d="M44,962.6672 L110,962.6672 L110,973.3438 L99,984.3438 L44,984.3438 L44,962.6672 " fill="#EEEEEE" style="stroke:#000000;stroke-width:1.6500000000000001;"/><rect fill="none" height="21.6766" style="stroke:#000000;stroke-width:1.6500000000000001;" width="358.6" x="44" y="962.6672"/><text fill="#000000" font-family="sans-serif" font-size="14.3" font-weight="bold" lengthAdjust="spacing" textLength="16.5" x="60.5" y="979.0539">alt</text><text fill="#000000" font-family="sans-serif" font-size="12.1" font-weight="bold" lengthAdjust="spacing" textLength="270.6" x="126.5" y="977.802">[request.startsWith(SmtpStatus.OK.code() + "-")]</text><polygon fill="#181818" points="544.5,1021.4205,555.5,1025.8205,544.5,1030.2205,548.9,1025.8205" style="stroke:#181818;stroke-width:1.1;"/><line style="stroke:#181818;stroke-width:1.1;" x1="299.2" x2="551.1" y1="1025.8205" y2="1025.8205"/><text fill="#000000" font-family="sans-serif" font-size="14.3" lengthAdjust="spacing" textLength="29.7" x="306.9" y="1019.4306">next</text><polygon fill="#181818" points="311.3,1036.8205,300.3,1041.2205,311.3,1045.6205,306.9,1041.2205" style="stroke:#181818;stroke-width:1.1;"/><line style="stroke:#181818;stroke-width:1.1;stroke-dasharray:2.0,2.0;" x1="304.7" x2="562.1" y1="1041.2205" y2="1041.2205"/><line style="stroke:#000000;stroke-width:1.1;stroke-dasharray:2.0,2.0;" x1="22" x2="786.5" y1="1051.1205" y2="1051.1205"/><text fill="#000000" font-family="sans-serif" font-size="12.1" font-weight="bold" lengthAdjust="spacing" textLength="99" x="27.5" y="1064.0553">[MAIL|MESSAGE]</text><polygon fill="#181818" points="405.9,1090.3772,416.9,1094.7772,405.9,1099.1772,410.3,1094.7772" style="stroke:#181818;stroke-width:1.1;"/><line style="stroke:#181818;stroke-width:1.1;" x1="299.2" x2="412.5" y1="1094.7772" y2="1094.7772"/><text fill="#000000" font-family="sans-serif" font-size="14.3" lengthAdjust="spacing" textLength="31.9" x="306.9" y="1088.3873">code</text><polygon fill="#181818" points="311.3,1105.7772,300.3,1110.1772,311.3,1114.5772,306.9,1110.1772" style="stroke:#181818;stroke-width:1.1;"/><line style="stroke:#181818;stroke-width:1.1;stroke-dasharray:2.0,2.0;" x1="304.7" x2="423.5" y1="1110.1772" y2="1110.1772"/><path d="M214.5,1126.6772 L280.5,1126.6772 L280.5,1137.3538 L269.5,1148.3538 L214.5,1148.3538 L214.5,1126.6772 " fill="#EEEEEE" style="stroke:#000000;stroke-width:1.6500000000000001;"/><rect fill="none" height="56.5532" style="stroke:#000000;stroke-width:1.6500000000000001;" width="335.5" x="214.5" y="1126.6772"/><text fill="#000000" font-family="sans-serif" font-size="14.3" font-weight="bold" lengthAdjust="spacing" textLength="16.5" x="231" y="1143.0639">alt</text><text fill="#000000" font-family="sans-serif" font-size="12.1" font-weight="bold" lengthAdjust="spacing" textLength="247.5" x="297" y="1141.812">[!request.startsWith(SmtpStatus.OK.code())]</text><polygon fill="#181818" points="795.3,1170.0304,806.3,1174.4304,795.3,1178.8304,799.7,1174.4304" style="stroke:#181818;stroke-width:1.1;"/><line style="stroke:#181818;stroke-width:1.1;" x1="299.2" x2="801.9" y1="1174.4304" y2="1174.4304"/><text fill="#000000" font-family="sans-serif" font-size="14.3" lengthAdjust="spacing" textLength="39.6" x="306.9" y="1168.0405">throw</text><polygon fill="#181818" points="544.5,1212.607,555.5,1217.007,544.5,1221.407,548.9,1217.007" style="stroke:#181818;stroke-width:1.1;"/><line style="stroke:#181818;stroke-width:1.1;" x1="299.2" x2="551.1" y1="1217.007" y2="1217.007"/><text fill="#000000" font-family="sans-serif" font-size="14.3" lengthAdjust="spacing" textLength="29.7" x="306.9" y="1210.6171">next</text><polygon fill="#181818" points="311.3,1228.007,300.3,1232.407,311.3,1236.807,306.9,1232.407" style="stroke:#181818;stroke-width:1.1;"/><line style="stroke:#181818;stroke-width:1.1;stroke-dasharray:2.0,2.0;" x1="304.7" x2="562.1" y1="1232.407" y2="1232.407"/><line style="stroke:#000000;stroke-width:1.1;stroke-dasharray:2.0,2.0;" x1="22" x2="786.5" y1="1242.307" y2="1242.307"/><text fill="#000000" font-family="sans-serif" font-size="12.1" font-weight="bold" lengthAdjust="spacing" textLength="38.5" x="27.5" y="1255.2418">[RCPT]</text><polygon fill="#181818" points="405.9,1281.5637,416.9,1285.9637,405.9,1290.3637,410.3,1285.9637" style="stroke:#181818;stroke-width:1.1;"/><line style="stroke:#181818;stroke-width:1.1;" x1="299.2" x2="412.5" y1="1285.9637" y2="1285.9637"/><text fill="#000000" font-family="sans-serif" font-size="14.3" lengthAdjust="spacing" textLength="31.9" x="306.9" y="1279.5738">code</text><polygon fill="#181818" points="311.3,1296.9637,300.3,1301.3637,311.3,1305.7637,306.9,1301.3637" style="stroke:#181818;stroke-width:1.1;"/><line style="stroke:#181818;stroke-width:1.1;stroke-dasharray:2.0,2.0;" x1="304.7" x2="423.5" y1="1301.3637" y2="1301.3637"/><path d="M203.5,1317.8637 L269.5,1317.8637 L269.5,1328.5403 L258.5,1339.5403 L203.5,1339.5403 L203.5,1317.8637 " fill="#EEEEEE" style="stroke:#000000;stroke-width:1.6500000000000001;"/><rect fill="none" height="196.3831" style="stroke:#000000;stroke-width:1.6500000000000001;" width="572" x="203.5" y="1317.8637"/><text fill="#000000" font-family="sans-serif" font-size="14.3" font-weight="bold" lengthAdjust="spacing" textLength="16.5" x="220" y="1334.2504">alt</text><text fill="#000000" font-family="sans-serif" font-size="12.1" font-weight="bold" lengthAdjust="spacing" textLength="247.5" x="286" y="1332.9985">[!request.startsWith(SmtpStatus.OK.code())]</text><polygon fill="#181818" points="795.3,1361.2169,806.3,1365.6169,795.3,1370.0169,799.7,1365.6169" style="stroke:#181818;stroke-width:1.1;"/><line style="stroke:#181818;stroke-width:1.1;" x1="299.2" x2="801.9" y1="1365.6169" y2="1365.6169"/><text fill="#000000" font-family="sans-serif" font-size="14.3" lengthAdjust="spacing" textLength="39.6" x="306.9" y="1359.227">throw</text><line style="stroke:#000000;stroke-width:1.1;stroke-dasharray:2.0,2.0;" x1="203.5" x2="775.5" y1="1375.5169" y2="1375.5169"/><polygon fill="#181818" points="683.1,1398.2936,694.1,1402.6936,683.1,1407.0936,687.5,1402.6936" style="stroke:#181818;stroke-width:1.1;"/><line style="stroke:#181818;stroke-width:1.1;" x1="299.2" x2="689.7" y1="1402.6936" y2="1402.6936"/><text fill="#000000" font-family="sans-serif" font-size="14.3" lengthAdjust="spacing" textLength="58.3" x="306.9" y="1396.3037">receivers</text><polygon fill="#181818" points="311.3,1413.6936,300.3,1418.0936,311.3,1422.4936,306.9,1418.0936" style="stroke:#181818;stroke-width:1.1;"/><line style="stroke:#181818;stroke-width:1.1;stroke-dasharray:2.0,2.0;" x1="304.7" x2="700.7" y1="1418.0936" y2="1418.0936"/><path d="M214.5,1434.5936 L280.5,1434.5936 L280.5,1445.2702 L269.5,1456.2702 L214.5,1456.2702 L214.5,1434.5936 " fill="#EEEEEE" style="stroke:#000000;stroke-width:1.6500000000000001;"/><rect fill="none" height="71.9532" style="stroke:#000000;stroke-width:1.6500000000000001;" width="424.6" x="214.5" y="1434.5936"/><text fill="#000000" font-family="sans-serif" font-size="14.3" font-weight="bold" lengthAdjust="spacing" textLength="16.5" x="231" y="1450.9803">alt</text><text fill="#000000" font-family="sans-serif" font-size="12.1" font-weight="bold" lengthAdjust="spacing" textLength="283.8" x="297" y="1449.7284">[currentRecipientIndex == mail.receivers().length]</text><polygon fill="#181818" points="544.5,1477.9468,555.5,1482.3468,544.5,1486.7468,548.9,1482.3468" style="stroke:#181818;stroke-width:1.1;"/><line style="stroke:#181818;stroke-width:1.1;" x1="299.2" x2="551.1" y1="1482.3468" y2="1482.3468"/><text fill="#000000" font-family="sans-serif" font-size="14.3" lengthAdjust="spacing" textLength="29.7" x="306.9" y="1475.9569">next</text><polygon fill="#181818" points="311.3,1493.3468,300.3,1497.7468,311.3,1502.1468,306.9,1497.7468" style="stroke:#181818;stroke-width:1.1;"/><line style="stroke:#181818;stroke-width:1.1;stroke-dasharray:2.0,2.0;" x1="304.7" x2="562.1" y1="1497.7468" y2="1497.7468"/><line style="stroke:#000000;stroke-width:1.1;stroke-dasharray:2.0,2.0;" x1="22" x2="786.5" y1="1523.0468" y2="1523.0468"/><text fill="#000000" font-family="sans-serif" font-size="12.1" font-weight="bold" lengthAdjust="spacing" textLength="39.6" x="27.5" y="1535.9816">[DATA]</text><polygon fill="#181818" points="405.9,1562.3035,416.9,1566.7035,405.9,1571.1035,410.3,1566.7035" style="stroke:#181818;stroke-width:1.1;"/><line style="stroke:#181818;stroke-width:1.1;" x1="299.2" x2="412.5" y1="1566.7035" y2="1566.7035"/><text fill="#000000" font-family="sans-serif" font-size="14.3" lengthAdjust="spacing" textLength="31.9" x="306.9" y="1560.3136">code</text><polygon fill="#181818" points="311.3,1577.7035,300.3,1582.1035,311.3,1586.5035,306.9,1582.1035" style="stroke:#181818;stroke-width:1.1;"/><line style="stroke:#181818;stroke-width:1.1;stroke-dasharray:2.0,2.0;" x1="304.7" x2="423.5" y1="1582.1035" y2="1582.1035"/><path d="M44,1598.6035 L110,1598.6035 L110,1609.2801 L99,1620.2801 L44,1620.2801 L44,1598.6035 " fill="#EEEEEE" style="stroke:#000000;stroke-width:1.6500000000000001;"/><rect fill="none" height="21.6766" style="stroke:#000000;stroke-width:1.6500000000000001;" width="430.1" x="44" y="1598.6035"/><text fill="#000000" font-family="sans-serif" font-size="14.3" font-weight="bold" lengthAdjust="spacing" textLength="16.5" x="60.5" y="1614.9902">alt</text><text fill="#000000" font-family="sans-serif" font-size="12.1" font-weight="bold" lengthAdjust="spacing" textLength="342.1" x="126.5" y="1613.7383">[!request.startsWith(SmtpStatus.START_MAIL_INPUT.code())]</text><polygon fill="#181818" points="544.5,1649.6567,555.5,1654.0567,544.5,1658.4567,548.9,1654.0567" style="stroke:#181818;stroke-width:1.1;"/><line style="stroke:#181818;stroke-width:1.1;" x1="299.2" x2="551.1" y1="1654.0567" y2="1654.0567"/><text fill="#000000" font-family="sans-serif" font-size="14.3" lengthAdjust="spacing" textLength="29.7" x="306.9" y="1647.6668">next</text><polygon fill="#181818" points="311.3,1665.0567,300.3,1669.4567,311.3,1673.8567,306.9,1669.4567" style="stroke:#181818;stroke-width:1.1;"/><line style="stroke:#181818;stroke-width:1.1;stroke-dasharray:2.0,2.0;" x1="304.7" x2="562.1" y1="1669.4567" y2="1669.4567"/><line style="stroke:#000000;stroke-width:1.1;stroke-dasharray:2.0,2.0;" x1="22" x2="786.5" y1="1679.3567" y2="1679.3567"/><text fill="#000000" font-family="sans-serif" font-size="12.1" font-weight="bold" lengthAdjust="spacing" textLength="38.5" x="27.5" y="1692.2915">[QUIT]</text><path d="M44,1704.6368 L110,1704.6368 L110,1715.3134 L99,1726.3134 L44,1726.3134 L44,1704.6368 " fill="#EEEEEE" style="stroke:#000000;stroke-width:1.6500000000000001;"/><rect fill="none" height="21.6766" style="stroke:#000000;stroke-width:1.6500000000000001;" width="240.9" x="44" y="1704.6368"/><text fill="#000000" font-family="sans-serif" font-size="14.3" font-weight="bold" lengthAdjust="spacing" textLength="16.5" x="60.5" y="1721.0235">alt</text><text fill="#000000" font-family="sans-serif" font-size="12.1" font-weight="bold" lengthAdjust="spacing" textLength="152.9" x="126.5" y="1719.7716">[!request.startsWith("221")]</text><polygon fill="#181818" points="544.5,1755.69,555.5,1760.09,544.5,1764.49,548.9,1760.09" style="stroke:#181818;stroke-width:1.1;"/><line style="stroke:#181818;stroke-width:1.1;" x1="299.2" x2="551.1" y1="1760.09" y2="1760.09"/><text fill="#000000" font-family="sans-serif" font-size="14.3" lengthAdjust="spacing" textLength="29.7" x="306.9" y="1753.7001">next</text><polygon fill="#181818" points="311.3,1771.09,300.3,1775.49,311.3,1779.89,306.9,1775.49" style="stroke:#181818;stroke-width:1.1;"/><line style="stroke:#181818;stroke-width:1.1;stroke-dasharray:2.0,2.0;" x1="304.7" x2="562.1" y1="1775.49" y2="1775.49"/><line style="stroke:#181818;stroke-width:1.1;stroke-dasharray:2.0,2.0;" x1="299.2" x2="345.4" y1="1804.09" y2="1804.09"/><line style="stroke:#181818;stroke-width:1.1;stroke-dasharray:2.0,2.0;" x1="345.4" x2="345.4" y1="1804.09" y2="1818.39"/><line style="stroke:#181818;stroke-width:1.1;stroke-dasharray:2.0,2.0;" x1="293.7" x2="345.4" y1="1818.39" y2="1818.39"/><polygon fill="#181818" points="304.7,1813.99,293.7,1818.39,304.7,1822.79,300.3,1818.39" style="stroke:#181818;stroke-width:1.1;"/><line style="stroke:#181818;stroke-width:1.1;" x1="293.7" x2="345.4" y1="1842.2667" y2="1842.2667"/><line style="stroke:#181818;stroke-width:1.1;" x1="345.4" x2="345.4" y1="1842.2667" y2="1856.5667"/><line style="stroke:#181818;stroke-width:1.1;" x1="300.3" x2="345.4" y1="1856.5667" y2="1856.5667"/><polygon fill="#181818" points="311.3,1852.1667,300.3,1856.5667,311.3,1860.9667,306.9,1856.5667" style="stroke:#181818;stroke-width:1.1;"/><text fill="#000000" font-family="sans-serif" font-size="14.3" lengthAdjust="spacing" textLength="108.9" x="306.9" y="1835.8768">handleResponse</text><path d="M214.5,1878.5667 L280.5,1878.5667 L280.5,1889.2433 L269.5,1900.2433 L214.5,1900.2433 L214.5,1878.5667 " fill="#EEEEEE" style="stroke:#000000;stroke-width:1.6500000000000001;"/><rect fill="none" height="472.7769" style="stroke:#000000;stroke-width:1.6500000000000001;" width="561" x="214.5" y="1878.5667"/><text fill="#000000" font-family="sans-serif" font-size="14.3" font-weight="bold" lengthAdjust="spacing" textLength="16.5" x="231" y="1894.9534">alt</text><text fill="#000000" font-family="sans-serif" font-size="12.1" font-weight="bold" lengthAdjust="spacing" textLength="111.1" x="297" y="1893.7015">[currentCommand]</text><line style="stroke:#000000;stroke-width:1.1;stroke-dasharray:2.0,2.0;" x1="214.5" x2="775.5" y1="1901.3433" y2="1901.3433"/><text fill="#000000" font-family="sans-serif" font-size="12.1" font-weight="bold" lengthAdjust="spacing" textLength="38.5" x="220" y="1914.2781">[WAIT]</text><line style="stroke:#000000;stroke-width:1.1;stroke-dasharray:2.0,2.0;" x1="214.5" x2="775.5" y1="1920.0234" y2="1920.0234"/><text fill="#000000" font-family="sans-serif" font-size="12.1" font-weight="bold" lengthAdjust="spacing" textLength="40.7" x="220" y="1932.9582">[EHLO]</text><line style="stroke:#000000;stroke-width:1.1;stroke-dasharray:2.0,2.0;" x1="214.5" x2="775.5" y1="1938.7034" y2="1938.7034"/><text fill="#000000" font-family="sans-serif" font-size="12.1" font-weight="bold" lengthAdjust="spacing" textLength="28.6" x="220" y="1951.6382">[EXT]</text><line style="stroke:#000000;stroke-width:1.1;stroke-dasharray:2.0,2.0;" x1="214.5" x2="775.5" y1="1957.3835" y2="1957.3835"/><text fill="#000000" font-family="sans-serif" font-size="12.1" font-weight="bold" lengthAdjust="spacing" textLength="38.5" x="220" y="1970.3183">[MAIL]</text><polygon fill="#181818" points="683.1,1996.6402,694.1,2001.0402,683.1,2005.4402,687.5,2001.0402" style="stroke:#181818;stroke-width:1.1;"/><line style="stroke:#181818;stroke-width:1.1;" x1="299.2" x2="689.7" y1="2001.0402" y2="2001.0402"/><text fill="#000000" font-family="sans-serif" font-size="14.3" lengthAdjust="spacing" textLength="45.1" x="306.9" y="1994.6503">sender</text><polygon fill="#181818" points="311.3,2012.0402,300.3,2016.4402,311.3,2020.8402,306.9,2016.4402" style="stroke:#181818;stroke-width:1.1;"/><line style="stroke:#181818;stroke-width:1.1;stroke-dasharray:2.0,2.0;" x1="304.7" x2="700.7" y1="2016.4402" y2="2016.4402"/><line style="stroke:#000000;stroke-width:1.1;stroke-dasharray:2.0,2.0;" x1="214.5" x2="775.5" y1="2026.3402" y2="2026.3402"/><text fill="#000000" font-family="sans-serif" font-size="12.1" font-weight="bold" lengthAdjust="spacing" textLength="38.5" x="220" y="2039.275">[RCPT]</text><polygon fill="#181818" points="683.1,2065.5969,694.1,2069.9969,683.1,2074.3969,687.5,2069.9969" style="stroke:#181818;stroke-width:1.1;"/><line style="stroke:#181818;stroke-width:1.1;" x1="299.2" x2="689.7" y1="2069.9969" y2="2069.9969"/><text fill="#000000" font-family="sans-serif" font-size="14.3" lengthAdjust="spacing" textLength="58.3" x="306.9" y="2063.607">receivers</text><polygon fill="#181818" points="311.3,2080.9969,300.3,2085.3969,311.3,2089.7969,306.9,2085.3969" style="stroke:#181818;stroke-width:1.1;"/><line style="stroke:#181818;stroke-width:1.1;stroke-dasharray:2.0,2.0;" x1="304.7" x2="700.7" y1="2085.3969" y2="2085.3969"/><line style="stroke:#000000;stroke-width:1.1;stroke-dasharray:2.0,2.0;" x1="214.5" x2="775.5" y1="2095.2969" y2="2095.2969"/><text fill="#000000" font-family="sans-serif" font-size="12.1" font-weight="bold" lengthAdjust="spacing" textLength="39.6" x="220" y="2108.2317">[DATA]</text><polygon fill="#181818" points="683.1,2134.5536,694.1,2138.9536,683.1,2143.3536,687.5,2138.9536" style="stroke:#181818;stroke-width:1.1;"/><line style="stroke:#181818;stroke-width:1.1;" x1="299.2" x2="689.7" y1="2138.9536" y2="2138.9536"/><text fill="#000000" font-family="sans-serif" font-size="14.3" lengthAdjust="spacing" textLength="58.3" x="306.9" y="2132.5637">message</text><polygon fill="#181818" points="311.3,2149.9536,300.3,2154.3536,311.3,2158.7536,306.9,2154.3536" style="stroke:#181818;stroke-width:1.1;"/><line style="stroke:#181818;stroke-width:1.1;stroke-dasharray:2.0,2.0;" x1="304.7" x2="700.7" y1="2154.3536" y2="2154.3536"/><line style="stroke:#000000;stroke-width:1.1;stroke-dasharray:2.0,2.0;" x1="214.5" x2="775.5" y1="2164.2536" y2="2164.2536"/><text fill="#000000" font-family="sans-serif" font-size="12.1" font-weight="bold" lengthAdjust="spacing" textLength="62.7" x="220" y="2177.1884">[MESSAGE]</text><polygon fill="#181818" points="683.1,2203.5103,694.1,2207.9103,683.1,2212.3103,687.5,2207.9103" style="stroke:#181818;stroke-width:1.1;"/><line style="stroke:#181818;stroke-width:1.1;" x1="299.2" x2="689.7" y1="2207.9103" y2="2207.9103"/><text fill="#000000" font-family="sans-serif" font-size="14.3" lengthAdjust="spacing" textLength="45.1" x="306.9" y="2201.5204">sender</text><polygon fill="#181818" points="311.3,2218.9103,300.3,2223.3103,311.3,2227.7103,306.9,2223.3103" style="stroke:#181818;stroke-width:1.1;"/><line style="stroke:#181818;stroke-width:1.1;stroke-dasharray:2.0,2.0;" x1="304.7" x2="700.7" y1="2223.3103" y2="2223.3103"/><polygon fill="#181818" points="683.1,2253.7869,694.1,2258.1869,683.1,2262.5869,687.5,2258.1869" style="stroke:#181818;stroke-width:1.1;"/><line style="stroke:#181818;stroke-width:1.1;" x1="299.2" x2="689.7" y1="2258.1869" y2="2258.1869"/><text fill="#000000" font-family="sans-serif" font-size="14.3" lengthAdjust="spacing" textLength="58.3" x="306.9" y="2251.797">receivers</text><polygon fill="#181818" points="311.3,2269.1869,300.3,2273.5869,311.3,2277.9869,306.9,2273.5869" style="stroke:#181818;stroke-width:1.1;"/><line style="stroke:#181818;stroke-width:1.1;stroke-dasharray:2.0,2.0;" x1="304.7" x2="700.7" y1="2273.5869" y2="2273.5869"/><polygon fill="#181818" points="683.1,2304.0635,694.1,2308.4635,683.1,2312.8635,687.5,2308.4635" style="stroke:#181818;stroke-width:1.1;"/><line style="stroke:#181818;stroke-width:1.1;" x1="299.2" x2="689.7" y1="2308.4635" y2="2308.4635"/><text fill="#000000" font-family="sans-serif" font-size="14.3" lengthAdjust="spacing" textLength="58.3" x="306.9" y="2302.0736">message</text><polygon fill="#181818" points="311.3,2319.4635,300.3,2323.8635,311.3,2328.2635,306.9,2323.8635" style="stroke:#181818;stroke-width:1.1;"/><line style="stroke:#181818;stroke-width:1.1;stroke-dasharray:2.0,2.0;" x1="304.7" x2="700.7" y1="2323.8635" y2="2323.8635"/><line style="stroke:#000000;stroke-width:1.1;stroke-dasharray:2.0,2.0;" x1="214.5" x2="775.5" y1="2333.7635" y2="2333.7635"/><text fill="#000000" font-family="sans-serif" font-size="12.1" font-weight="bold" lengthAdjust="spacing" textLength="38.5" x="220" y="2346.6983">[QUIT]</text><line style="stroke:#181818;stroke-width:1.1;stroke-dasharray:2.0,2.0;" x1="299.2" x2="345.4" y1="2371.1436" y2="2371.1436"/><line style="stroke:#181818;stroke-width:1.1;stroke-dasharray:2.0,2.0;" x1="345.4" x2="345.4" y1="2371.1436" y2="2385.4436"/><line style="stroke:#181818;stroke-width:1.1;stroke-dasharray:2.0,2.0;" x1="293.7" x2="345.4" y1="2385.4436" y2="2385.4436"/><polygon fill="#181818" points="304.7,2381.0436,293.7,2385.4436,304.7,2389.8436,300.3,2385.4436" style="stroke:#181818;stroke-width:1.1;"/><polygon fill="#181818" points="169.4,2390.9436,158.4,2395.3436,169.4,2399.7436,165,2395.3436" style="stroke:#181818;stroke-width:1.1;"/><line style="stroke:#181818;stroke-width:1.1;stroke-dasharray:2.0,2.0;" x1="162.8" x2="287.1" y1="2395.3436" y2="2395.3436"/><path d="M78.1,2411.8436 L144.1,2411.8436 L144.1,2422.5202 L133.1,2433.5202 L78.1,2433.5202 L78.1,2411.8436 " fill="#EEEEEE" style="stroke:#000000;stroke-width:1.6500000000000001;"/><rect fill="none" height="56.5532" style="stroke:#000000;stroke-width:1.6500000000000001;" width="207.9" x="78.1" y="2411.8436"/><text fill="#000000" font-family="sans-serif" font-size="14.3" font-weight="bold" lengthAdjust="spacing" textLength="16.5" x="94.6" y="2428.2303">alt</text><text fill="#000000" font-family="sans-serif" font-size="12.1" font-weight="bold" lengthAdjust="spacing" textLength="119.9" x="160.6" y="2426.9784">[!response.isEmpty()]</text><polygon fill="#181818" points="795.3,2455.1968,806.3,2459.5968,795.3,2463.9968,799.7,2459.5968" style="stroke:#181818;stroke-width:1.1;"/><line style="stroke:#181818;stroke-width:1.1;stroke-dasharray:2.0,2.0;" x1="157.3" x2="801.9" y1="2459.5968" y2="2459.5968"/><text fill="#000000" font-family="sans-serif" font-size="14.3" lengthAdjust="spacing" textLength="101.2" x="165" y="2453.2069">Client response</text><polygon fill="#181818" points="67.65,2485.9968,56.65,2490.3968,67.65,2494.7968,63.25,2490.3968" style="stroke:#181818;stroke-width:1.1;"/><line style="stroke:#181818;stroke-width:1.1;stroke-dasharray:2.0,2.0;" x1="61.05" x2="150.7" y1="2490.3968" y2="2490.3968"/><!--SRC=[rLTRJwD067tdLunzAZ4GzN6pRaAGAD6kBk1sVTWq4_WY4s70cS5Bue_V6GeK6bgxNh1zW43cpE5yzu7V4PfZXbCq8THECETJ4eaO7HuSQ3WK6KEMkclb7Ha_a9-A_0pJA066lY5MK0KZ3rX0UqbBiYpNsjZlXl5NRl21FSWt1lS5SD51IF899iaqOtSbzwDyM90lbhGMQdbFN79v5NlVPfm851QC0HLsbgOIlyId9Fa2Yu9BlZ2Be6lWV4bheOoE22s2Fhpwx5vbjSa5Pa8wMiJZ1SJq7U-tQpippx5ERaprvR6kTyKf3ugOPOyQzEgkB98e2a-YAxosjerRBxtU0Ga7v9nTN6wBfoxFNtMFaZoOt0tLedqqCaRwS76hhp9-VuBT2j-sHg_swg3LDx7SYvU9u_lMgRD3OHpQJPvzjTjPhjxKM8KGY9oJl3l2Il0QWIMcDU0y24bEv8DB8tX2nySebGYpOH_hPWBqLiHVqv9EhC3Qck4RM5umKsKsStzUNGTDx0RFuL_NRh1IyUZew70qiAYbRwtDlirFQ3pFA8TDZsYbPwQMzCpYCDACjQP3zXSJbnOerl-kf5KjvGEAT5N-LzGfS8vluQt4_OFYlUxuS2TyXkbbzRmtPRk_EIisL2KwpsEJS2VDnVDOx_xIpDkzdQWcZ6fmqmKPY8BHVm00]--></g></svg>