<?xml version="1.0" encoding="us-ascii" standalone="no"?><svg xmlns="http://www.w3.org/2000/svg" xmlns:xlink="http://www.w3.org/1999/xlink" contentStyleType="text/css" height="2502.5px" preserveAspectRatio="none" style="width:1089px;height:2502px;background:#FFFFFF;" version="1.1" viewBox="0 0 1089 2502" width="1089px" zoomAndPan="magnify"><defs/><g><rect fill="#FFFFFF" height="2360.8455" style="stroke:#181818;stroke-width:1.1;" width="11" x="276.1" y="80.0513"/><rect fill="#FFFFFF" height="2166.6624" style="stroke:#181818;stroke-width:1.1;" width="11" x="445.5" y="179.1812"/><rect fill="#FFFFFF" height="1532.8322" style="stroke:#181818;stroke-width:1.1;" width="11" x="451" y="222.8578"/><rect fill="#FFFFFF" height="515.6769" style="stroke:#181818;stroke-width:1.1;" width="11" x="451" y="1807.0667"/><rect fill="#FFFFFF" height="15.4" style="stroke:#181818;stroke-width:1.1;" width="11" x="614.9" y="292.611"/><rect fill="#FFFFFF" height="15.4" style="stroke:#181818;stroke-width:1.1;" width="11" x="614.9" y="483.7976"/><rect fill="#FFFFFF" height="15.4" style="stroke:#181818;stroke-width:1.1;" width="11" x="614.9" y="600.5274"/><rect fill="#FFFFFF" height="15.4" style="stroke:#181818;stroke-width:1.1;" width="11" x="614.9" y="764.5374"/><rect fill="#FFFFFF" height="15.4" style="stroke:#181818;stroke-width:1.1;" width="11" x="614.9" y="881.2672"/><rect fill="#FFFFFF" height="15.4" style="stroke:#181818;stroke-width:1.1;" width="11" x="614.9" y="1045.2772"/><rect fill="#FFFFFF" height="15.4" style="stroke:#181818;stroke-width:1.1;" width="11" x="614.9" y="1236.4637"/><rect fill="#FFFFFF" height="15.4" style="stroke:#181818;stroke-width:1.1;" width="11" x="614.9" y="1517.2035"/><rect fill="#FFFFFF" height="15.4" style="stroke:#181818;stroke-width:1.1;" width="11" x="784.3" y="414.8409"/><rect fill="#FFFFFF" height="15.4" style="stroke:#181818;stroke-width:1.1;" width="11" x="784.3" y="680.1807"/><rect fill="#FFFFFF" height="15.4" style="stroke:#181818;stroke-width:1.1;" width="11" x="784.3" y="976.3205"/><rect fill="#FFFFFF" height="15.4" style="stroke:#181818;stroke-width:1.1;" width="11" x="784.3" y="1167.507"/><rect fill="#FFFFFF" height="15.4" style="stroke:#181818;stroke-width:1.1;" width="11" x="784.3" y="1432.8468"/><rect fill="#FFFFFF" height="15.4" style="stroke:#181818;stroke-width:1.1;" width="11" x="784.3" y="1604.5567"/><rect fill="#FFFFFF" height="15.4" style="stroke:#181818;stroke-width:1.1;" width="11" x="784.3" y="1710.59"/><rect fill="#FFFFFF" height="15.4" style="stroke:#181818;stroke-width:1.1;" width="11" x="953.7" y="1353.1936"/><rect fill="#FFFFFF" height="15.4" style="stroke:#181818;stroke-width:1.1;" width="11" x="953.7" y="1951.5402"/><rect fill="#FFFFFF" height="15.4" style="stroke:#181818;stroke-width:1.1;" width="11" x="953.7" y="2020.4969"/><rect fill="#FFFFFF" height="15.4" style="stroke:#181818;stroke-width:1.1;" width="11" x="953.7" y="2089.4536"/><rect fill="#FFFFFF" height="15.4" style="stroke:#181818;stroke-width:1.1;" width="11" x="953.7" y="2158.4103"/><rect fill="#FFFFFF" height="15.4" style="stroke:#181818;stroke-width:1.1;" width="11" x="953.7" y="2208.6869"/><rect fill="#FFFFFF" height="15.4" style="stroke:#181818;stroke-width:1.1;" width="11" x="953.7" y="2258.9635"/><rect fill="none" height="2330.0455" style="stroke:#000000;stroke-width:1.6500000000000001;" width="1060.4" x="11" y="96.5513"/><rect fill="none" height="1489.9322" style="stroke:#000000;stroke-width:1.6500000000000001;" width="1038.4" x="22" y="244.8578"/><rect fill="none" height="56.5532" style="stroke:#000000;stroke-width:1.6500000000000001;" width="408.1" x="360.8" y="324.511"/><rect fill="none" height="196.3831" style="stroke:#000000;stroke-width:1.6500000000000001;" width="541.2" x="349.8" y="515.6976"/><rect fill="none" height="71.9532" style="stroke:#000000;stroke-width:1.6500000000000001;" width="519.2" x="360.8" y="632.4274"/><rect fill="none" height="146.1065" style="stroke:#000000;stroke-width:1.6500000000000001;" width="677.6" x="33" y="796.4374"/><rect fill="none" height="21.6766" style="stroke:#000000;stroke-width:1.6500000000000001;" width="358.6" x="44" y="913.1672"/><rect fill="none" height="56.5532" style="stroke:#000000;stroke-width:1.6500000000000001;" width="335.5" x="360.8" y="1077.1772"/><rect fill="none" height="196.3831" style="stroke:#000000;stroke-width:1.6500000000000001;" width="699.6" x="349.8" y="1268.3637"/><rect fill="none" height="71.9532" style="stroke:#000000;stroke-width:1.6500000000000001;" width="519.2" x="360.8" y="1385.0936"/><rect fill="none" height="21.6766" style="stroke:#000000;stroke-width:1.6500000000000001;" width="430.1" x="44" y="1549.1035"/><rect fill="none" height="21.6766" style="stroke:#000000;stroke-width:1.6500000000000001;" width="240.9" x="44" y="1655.1368"/><rect fill="none" height="472.7769" style="stroke:#000000;stroke-width:1.6500000000000001;" width="688.6" x="360.8" y="1829.0667"/><rect fill="none" height="56.5532" style="stroke:#000000;stroke-width:1.6500000000000001;" width="220" x="191.4" y="2362.3436"/><line style="stroke:#181818;stroke-width:0.55;stroke-dasharray:5.0,5.0;" x1="112.2" x2="112.2" y1="42.9747" y2="2460.6968"/><line style="stroke:#181818;stroke-width:0.55;stroke-dasharray:5.0,5.0;" x1="281.6" x2="281.6" y1="42.9747" y2="2460.6968"/><line style="stroke:#181818;stroke-width:0.55;stroke-dasharray:5.0,5.0;" x1="451" x2="451" y1="42.9747" y2="2460.6968"/><line style="stroke:#181818;stroke-width:0.55;stroke-dasharray:5.0,5.0;" x1="620.4" x2="620.4" y1="42.9747" y2="2460.6968"/><line style="stroke:#181818;stroke-width:0.55;stroke-dasharray:5.0,5.0;" x1="789.8" x2="789.8" y1="42.9747" y2="2460.6968"/><line style="stroke:#181818;stroke-width:0.55;stroke-dasharray:5.0,5.0;" x1="959.2" x2="959.2" y1="42.9747" y2="2460.6968"/><rect fill="#E2E2F0" height="36.3747" rx="2.75" ry="2.75" style="stroke:#181818;stroke-width:0.55;" width="158.4" x="33" y="5.5"/><text fill="#000000" font-family="sans-serif" font-size="15.4" lengthAdjust="spacing" textLength="38.5" x="92.95" y="29.6625">Actor</text><rect fill="#E2E2F0" height="36.3747" rx="2.75" ry="2.75" style="stroke:#181818;stroke-width:0.55;" width="158.4" x="33" y="2459.5968"/><text fill="#000000" font-family="sans-serif" font-size="15.4" lengthAdjust="spacing" textLength="38.5" x="92.95" y="2483.7594">Actor</text><rect fill="#E2E2F0" height="36.3747" rx="2.75" ry="2.75" style="stroke:#181818;stroke-width:0.55;" width="158.4" x="202.4" y="5.5"/><text fill="#000000" font-family="sans-serif" font-size="15.4" lengthAdjust="spacing" textLength="97.9" x="232.65" y="29.6625">SmtpHandler</text><rect fill="#E2E2F0" height="36.3747" rx="2.75" ry="2.75" style="stroke:#181818;stroke-width:0.55;" width="158.4" x="202.4" y="2459.5968"/><text fill="#000000" font-family="sans-serif" font-size="15.4" lengthAdjust="spacing" textLength="97.9" x="232.65" y="2483.7594">SmtpHandler</text><rect fill="#E2E2F0" height="36.3747" rx="2.75" ry="2.75" style="stroke:#181818;stroke-width:0.55;" width="158.4" x="371.8" y="5.5"/><text fill="#000000" font-family="sans-serif" font-size="15.4" lengthAdjust="spacing" textLength="84.7" x="408.65" y="29.6625">MailWorker</text><rect fill="#E2E2F0" height="36.3747" rx="2.75" ry="2.75" style="stroke:#181818;stroke-width:0.55;" width="158.4" x="371.8" y="2459.5968"/><text fill="#000000" font-family="sans-serif" font-size="15.4" lengthAdjust="spacing" textLength="84.7" x="408.65" y="2483.7594">MailWorker</text><rect fill="#E2E2F0" height="36.3747" rx="2.75" ry="2.75" style="stroke:#181818;stroke-width:0.55;" width="158.4" x="541.2" y="5.5"/><text fill="#000000" font-family="sans-serif" font-size="15.4" lengthAdjust="spacing" textLength="84.7" x="578.05" y="29.6625">SmtpStatus</text><rect fill="#E2E2F0" height="36.3747" rx="2.75" ry="2.75" style="stroke:#181818;stroke-width:0.55;" width="158.4" x="541.2" y="2459.5968"/><text fill="#000000" font-family="sans-serif" font-size="15.4" lengthAdjust="spacing" textLength="84.7" x="578.05" y="2483.7594">SmtpStatus</text><rect fill="#E2E2F0" height="36.3747" rx="2.75" ry="2.75" style="stroke:#181818;stroke-width:0.55;" width="158.4" x="710.6" y="5.5"/><text fill="#000000" font-family="sans-serif" font-size="15.4" lengthAdjust="spacing" textLength="114.4" x="732.6" y="29.6625">SmtpCommand</text><rect fill="#E2E2F0" height="36.3747" rx="2.75" ry="2.75" style="stroke:#181818;stroke-width:0.55;" width="158.4" x="710.6" y="2459.5968"/><text fill="#000000" font-family="sans-serif" font-size="15.4" lengthAdjust="spacing" textLength="114.4" x="732.6" y="2483.7594">SmtpCommand</text><rect fill="#E2E2F0" height="36.3747" rx="2.75" ry="2.75" style="stroke:#181818;stroke-width:0.55;" width="158.4" x="880" y="5.5"/><text fill="#000000" font-family="sans-serif" font-size="15.4" lengthAdjust="spacing" textLength="31.9" x="943.25" y="29.6625">Mail</text><rect fill="#E2E2F0" height="36.3747" rx="2.75" ry="2.75" style="stroke:#181818;stroke-width:0.55;" width="158.4" x="880" y="2459.5968"/><text fill="#000000" font-family="sans-serif" font-size="15.4" lengthAdjust="spacing" textLength="31.9" x="943.25" y="2483.7594">Mail</text><rect fill="#FFFFFF" height="2360.8455" style="stroke:#181818;stroke-width:1.1;" width="11" x="276.1" y="80.0513"/><rect fill="#FFFFFF" height="2166.6624" style="stroke:#181818;stroke-width:1.1;" width="11" x="445.5" y="179.1812"/><rect fill="#FFFFFF" height="1532.8322" style="stroke:#181818;stroke-width:1.1;" width="11" x="451" y="222.8578"/><rect fill="#FFFFFF" height="515.6769" style="stroke:#181818;stroke-width:1.1;" width="11" x="451" y="1807.0667"/><rect fill="#FFFFFF" height="15.4" style="stroke:#181818;stroke-width:1.1;" width="11" x="614.9" y="292.611"/><rect fill="#FFFFFF" height="15.4" style="stroke:#181818;stroke-width:1.1;" width="11" x="614.9" y="483.7976"/><rect fill="#FFFFFF" height="15.4" style="stroke:#181818;stroke-width:1.1;" width="11" x="614.9" y="600.5274"/><rect fill="#FFFFFF" height="15.4" style="stroke:#181818;stroke-width:1.1;" width="11" x="614.9" y="764.5374"/><rect fill="#FFFFFF" height="15.4" style="stroke:#181818;stroke-width:1.1;" width="11" x="614.9" y="881.2672"/><rect fill="#FFFFFF" height="15.4" style="stroke:#181818;stroke-width:1.1;" width="11" x="614.9" y="1045.2772"/><rect fill="#FFFFFF" height="15.4" style="stroke:#181818;stroke-width:1.1;" width="11" x="614.9" y="1236.4637"/><rect fill="#FFFFFF" height="15.4" style="stroke:#181818;stroke-width:1.1;" width="11" x="614.9" y="1517.2035"/><rect fill="#FFFFFF" height="15.4" style="stroke:#181818;stroke-width:1.1;" width="11" x="784.3" y="414.8409"/><rect fill="#FFFFFF" height="15.4" style="stroke:#181818;stroke-width:1.1;" width="11" x="784.3" y="680.1807"/><rect fill="#FFFFFF" height="15.4" style="stroke:#181818;stroke-width:1.1;" width="11" x="784.3" y="976.3205"/><rect fill="#FFFFFF" height="15.4" style="stroke:#181818;stroke-width:1.1;" width="11" x="784.3" y="1167.507"/><rect fill="#FFFFFF" height="15.4" style="stroke:#181818;stroke-width:1.1;" width="11" x="784.3" y="1432.8468"/><rect fill="#FFFFFF" height="15.4" style="stroke:#181818;stroke-width:1.1;" width="11" x="784.3" y="1604.5567"/><rect fill="#FFFFFF" height="15.4" style="stroke:#181818;stroke-width:1.1;" width="11" x="784.3" y="1710.59"/><rect fill="#FFFFFF" height="15.4" style="stroke:#181818;stroke-width:1.1;" width="11" x="953.7" y="1353.1936"/><rect fill="#FFFFFF" height="15.4" style="stroke:#181818;stroke-width:1.1;" width="11" x="953.7" y="1951.5402"/><rect fill="#FFFFFF" height="15.4" style="stroke:#181818;stroke-width:1.1;" width="11" x="953.7" y="2020.4969"/><rect fill="#FFFFFF" height="15.4" style="stroke:#181818;stroke-width:1.1;" width="11" x="953.7" y="2089.4536"/><rect fill="#FFFFFF" height="15.4" style="stroke:#181818;stroke-width:1.1;" width="11" x="953.7" y="2158.4103"/><rect fill="#FFFFFF" height="15.4" style="stroke:#181818;stroke-width:1.1;" width="11" x="953.7" y="2208.6869"/><rect fill="#FFFFFF" height="15.4" style="stroke:#181818;stroke-width:1.1;" width="11" x="953.7" y="2258.9635"/><polygon fill="#181818" points="262.9,75.6513,273.9,80.0513,262.9,84.4513,267.3,80.0513" style="stroke:#181818;stroke-width:1.1;"/><line style="stroke:#181818;stroke-width:1.1;" x1="112.2" x2="269.5" y1="80.0513" y2="80.0513"/><text fill="#000000" font-family="sans-serif" font-size="14.3" lengthAdjust="spacing" textLength="23.1" x="119.9" y="73.6614">run</text><path d="M11,96.5513 L90.2,96.5513 L90.2,107.2279 L79.2,118.2279 L11,118.2279 L11,96.5513 " fill="#EEEEEE" style="stroke:#000000;stroke-width:1.6500000000000001;"/><rect fill="none" height="2330.0455" style="stroke:#000000;stroke-width:1.6500000000000001;" width="1060.4" x="11" y="96.5513"/><text fill="#000000" font-family="sans-serif" font-size="14.3" font-weight="bold" lengthAdjust="spacing" textLength="29.7" x="27.5" y="112.938">loop</text><polygon fill="#181818" points="299.2,139.9046,288.2,144.3046,299.2,148.7046,294.8,144.3046" style="stroke:#181818;stroke-width:1.1;"/><line style="stroke:#181818;stroke-width:1.1;stroke-dasharray:2.0,2.0;" x1="292.6" x2="1081.3" y1="144.3046" y2="144.3046"/><text fill="#000000" font-family="sans-serif" font-size="14.3" lengthAdjust="spacing" textLength="95.7" x="305.8" y="137.9147">Server request</text><polygon fill="#181818" points="432.3,174.7812,443.3,179.1812,432.3,183.5812,436.7,179.1812" style="stroke:#181818;stroke-width:1.1;"/><line style="stroke:#181818;stroke-width:1.1;" x1="287.1" x2="438.9" y1="179.1812" y2="179.1812"/><text fill="#000000" font-family="sans-serif" font-size="14.3" lengthAdjust="spacing" textLength="33" x="294.8" y="172.7913">work</text><line style="stroke:#181818;stroke-width:1.1;" x1="456.5" x2="508.2" y1="208.5578" y2="208.5578"/><line style="stroke:#181818;stroke-width:1.1;" x1="508.2" x2="508.2" y1="208.5578" y2="222.8578"/><line style="stroke:#181818;stroke-width:1.1;" x1="463.1" x2="508.2" y1="222.8578" y2="222.8578"/><polygon fill="#181818" points="474.1,218.4578,463.1,222.8578,474.1,227.2578,469.7,222.8578" style="stroke:#181818;stroke-width:1.1;"/><text fill="#000000" font-family="sans-serif" font-size="14.3" lengthAdjust="spacing" textLength="99" x="469.7" y="202.1679">handleRequest</text><path d="M22,244.8578 L88,244.8578 L88,255.5344 L77,266.5344 L22,266.5344 L22,244.8578 " fill="#EEEEEE" style="stroke:#000000;stroke-width:1.6500000000000001;"/><rect fill="none" height="1489.9322" style="stroke:#000000;stroke-width:1.6500000000000001;" width="1038.4" x="22" y="244.8578"/><text fill="#000000" font-family="sans-serif" font-size="14.3" font-weight="bold" lengthAdjust="spacing" textLength="16.5" x="38.5" y="261.2445">alt</text><text fill="#000000" font-family="sans-serif" font-size="12.1" font-weight="bold" lengthAdjust="spacing" textLength="111.1" x="104.5" y="259.9926">[currentCommand]</text><polygon fill="#181818" points="601.7,288.211,612.7,292.611,601.7,297.011,606.1,292.611" style="stroke:#181818;stroke-width:1.1;"/><line style="stroke:#181818;stroke-width:1.1;" x1="462" x2="608.3" y1="292.611" y2="292.611"/><text fill="#000000" font-family="sans-serif" font-size="14.3" lengthAdjust="spacing" textLength="31.9" x="469.7" y="286.2211">code</text><polygon fill="#181818" points="474.1,303.611,463.1,308.011,474.1,312.411,469.7,308.011" style="stroke:#181818;stroke-width:1.1;"/><line style="stroke:#181818;stroke-width:1.1;stroke-dasharray:2.0,2.0;" x1="467.5" x2="619.3" y1="308.011" y2="308.011"/><path d="M360.8,324.511 L426.8,324.511 L426.8,335.1877 L415.8,346.1877 L360.8,346.1877 L360.8,324.511 " fill="#EEEEEE" style="stroke:#000000;stroke-width:1.6500000000000001;"/><rect fill="none" height="56.5532" style="stroke:#000000;stroke-width:1.6500000000000001;" width="408.1" x="360.8" y="324.511"/><text fill="#000000" font-family="sans-serif" font-size="14.3" font-weight="bold" lengthAdjust="spacing" textLength="16.5" x="377.3" y="340.8978">alt</text><text fill="#000000" font-family="sans-serif" font-size="12.1" font-weight="bold" lengthAdjust="spacing" textLength="320.1" x="443.3" y="339.6458">[!request.startsWith(SmtpStatus.SERVICE_READY.code())]</text><polygon fill="#181818" points="1069.2,367.8643,1080.2,372.2643,1069.2,376.6643,1073.6,372.2643" style="stroke:#181818;stroke-width:1.1;"/><line style="stroke:#181818;stroke-width:1.1;" x1="462" x2="1075.8" y1="372.2643" y2="372.2643"/><text fill="#000000" font-family="sans-serif" font-size="14.3" lengthAdjust="spacing" textLength="39.6" x="469.7" y="365.8744">throw</text><polygon fill="#181818" points="771.1,410.4409,782.1,414.8409,771.1,419.2409,775.5,414.8409" style="stroke:#181818;stroke-width:1.1;"/><line style="stroke:#181818;stroke-width:1.1;" x1="462" x2="777.7" y1="414.8409" y2="414.8409"/><text fill="#000000" font-family="sans-serif" font-size="14.3" lengthAdjust="spacing" textLength="29.7" x="469.7" y="408.451">next</text><polygon fill="#181818" points="474.1,425.8409,463.1,430.2409,474.1,434.6409,469.7,430.2409" style="stroke:#181818;stroke-width:1.1;"/><line style="stroke:#181818;stroke-width:1.1;stroke-dasharray:2.0,2.0;" x1="467.5" x2="788.7" y1="430.2409" y2="430.2409"/><line style="stroke:#000000;stroke-width:1.1;stroke-dasharray:2.0,2.0;" x1="22" x2="1060.4" y1="440.1409" y2="440.1409"/><text fill="#000000" font-family="sans-serif" font-size="12.1" font-weight="bold" lengthAdjust="spacing" textLength="40.7" x="27.5" y="453.0757">[EHLO]</text><polygon fill="#181818" points="601.7,479.3976,612.7,483.7976,601.7,488.1976,606.1,483.7976" style="stroke:#181818;stroke-width:1.1;"/><line style="stroke:#181818;stroke-width:1.1;" x1="462" x2="608.3" y1="483.7976" y2="483.7976"/><text fill="#000000" font-family="sans-serif" font-size="14.3" lengthAdjust="spacing" textLength="31.9" x="469.7" y="477.4077">code</text><polygon fill="#181818" points="474.1,494.7976,463.1,499.1976,474.1,503.5976,469.7,499.1976" style="stroke:#181818;stroke-width:1.1;"/><line style="stroke:#181818;stroke-width:1.1;stroke-dasharray:2.0,2.0;" x1="467.5" x2="619.3" y1="499.1976" y2="499.1976"/><path d="M349.8,515.6976 L415.8,515.6976 L415.8,526.3742 L404.8,537.3742 L349.8,537.3742 L349.8,515.6976 " fill="#EEEEEE" style="stroke:#000000;stroke-width:1.6500000000000001;"/><rect fill="none" height="196.3831" style="stroke:#000000;stroke-width:1.6500000000000001;" width="541.2" x="349.8" y="515.6976"/><text fill="#000000" font-family="sans-serif" font-size="14.3" font-weight="bold" lengthAdjust="spacing" textLength="16.5" x="366.3" y="532.0843">alt</text><text fill="#000000" font-family="sans-serif" font-size="12.1" font-weight="bold" lengthAdjust="spacing" textLength="247.5" x="432.3" y="530.8324">[!request.startsWith(SmtpStatus.OK.code())]</text><polygon fill="#181818" points="1069.2,559.0508,1080.2,563.4508,1069.2,567.8508,1073.6,563.4508" style="stroke:#181818;stroke-width:1.1;"/><line style="stroke:#181818;stroke-width:1.1;" x1="462" x2="1075.8" y1="563.4508" y2="563.4508"/><text fill="#000000" font-family="sans-serif" font-size="14.3" lengthAdjust="spacing" textLength="39.6" x="469.7" y="557.0609">throw</text><line style="stroke:#000000;stroke-width:1.1;stroke-dasharray:2.0,2.0;" x1="349.8" x2="891" y1="573.3508" y2="573.3508"/><polygon fill="#181818" points="601.7,596.1274,612.7,600.5274,601.7,604.9274,606.1,600.5274" style="stroke:#181818;stroke-width:1.1;"/><line style="stroke:#181818;stroke-width:1.1;" x1="462" x2="608.3" y1="600.5274" y2="600.5274"/><text fill="#000000" font-family="sans-serif" font-size="14.3" lengthAdjust="spacing" textLength="31.9" x="469.7" y="594.1375">code</text><polygon fill="#181818" points="474.1,611.5274,463.1,615.9274,474.1,620.3274,469.7,615.9274" style="stroke:#181818;stroke-width:1.1;"/><line style="stroke:#181818;stroke-width:1.1;stroke-dasharray:2.0,2.0;" x1="467.5" x2="619.3" y1="615.9274" y2="615.9274"/><path d="M360.8,632.4274 L426.8,632.4274 L426.8,643.1041 L415.8,654.1041 L360.8,654.1041 L360.8,632.4274 " fill="#EEEEEE" style="stroke:#000000;stroke-width:1.6500000000000001;"/><rect fill="none" height="71.9532" style="stroke:#000000;stroke-width:1.6500000000000001;" width="519.2" x="360.8" y="632.4274"/><text fill="#000000" font-family="sans-serif" font-size="14.3" font-weight="bold" lengthAdjust="spacing" textLength="16.5" x="377.3" y="648.8142">alt</text><text fill="#000000" font-family="sans-serif" font-size="12.1" font-weight="bold" lengthAdjust="spacing" textLength="270.6" x="443.3" y="647.5622">[request.startsWith(SmtpStatus.OK.code() + "-")]</text><polygon fill="#181818" points="771.1,675.7807,782.1,680.1807,771.1,684.5807,775.5,680.1807" style="stroke:#181818;stroke-width:1.1;"/><line style="stroke:#181818;stroke-width:1.1;" x1="462" x2="777.7" y1="680.1807" y2="680.1807"/><text fill="#000000" font-family="sans-serif" font-size="14.3" lengthAdjust="spacing" textLength="29.7" x="469.7" y="673.7908">next</text><polygon fill="#181818" points="474.1,691.1807,463.1,695.5807,474.1,699.9807,469.7,695.5807" style="stroke:#181818;stroke-width:1.1;"/><line style="stroke:#181818;stroke-width:1.1;stroke-dasharray:2.0,2.0;" x1="467.5" x2="788.7" y1="695.5807" y2="695.5807"/><line style="stroke:#000000;stroke-width:1.1;stroke-dasharray:2.0,2.0;" x1="22" x2="1060.4" y1="720.8807" y2="720.8807"/><text fill="#000000" font-family="sans-serif" font-size="12.1" font-weight="bold" lengthAdjust="spacing" textLength="28.6" x="27.5" y="733.8155">[EXT]</text><polygon fill="#181818" points="601.7,760.1374,612.7,764.5374,601.7,768.9374,606.1,764.5374" style="stroke:#181818;stroke-width:1.1;"/><line style="stroke:#181818;stroke-width:1.1;" x1="462" x2="608.3" y1="764.5374" y2="764.5374"/><text fill="#000000" font-family="sans-serif" font-size="14.3" lengthAdjust="spacing" textLength="31.9" x="469.7" y="758.1475">code</text><polygon fill="#181818" points="474.1,775.5374,463.1,779.9374,474.1,784.3374,469.7,779.9374" style="stroke:#181818;stroke-width:1.1;"/><line style="stroke:#181818;stroke-width:1.1;stroke-dasharray:2.0,2.0;" x1="467.5" x2="619.3" y1="779.9374" y2="779.9374"/><path d="M33,796.4374 L99,796.4374 L99,807.114 L88,818.114 L33,818.114 L33,796.4374 " fill="#EEEEEE" style="stroke:#000000;stroke-width:1.6500000000000001;"/><rect fill="none" height="146.1065" style="stroke:#000000;stroke-width:1.6500000000000001;" width="677.6" x="33" y="796.4374"/><text fill="#000000" font-family="sans-serif" font-size="14.3" font-weight="bold" lengthAdjust="spacing" textLength="16.5" x="49.5" y="812.8241">alt</text><text fill="#000000" font-family="sans-serif" font-size="12.1" font-weight="bold" lengthAdjust="spacing" textLength="247.5" x="115.5" y="811.5722">[!request.startsWith(SmtpStatus.OK.code())]</text><polygon fill="#181818" points="1069.2,839.7906,1080.2,844.1906,1069.2,848.5906,1073.6,844.1906" style="stroke:#181818;stroke-width:1.1;"/><line style="stroke:#181818;stroke-width:1.1;" x1="462" x2="1075.8" y1="844.1906" y2="844.1906"/><text fill="#000000" font-family="sans-serif" font-size="14.3" lengthAdjust="spacing" textLength="39.6" x="469.7" y="837.8007">throw</text><line style="stroke:#000000;stroke-width:1.1;stroke-dasharray:2.0,2.0;" x1="33" x2="710.6" y1="854.0906" y2="854.0906"/><polygon fill="#181818" points="601.7,876.8672,612.7,881.2672,601.7,885.6672,606.1,881.2672" style="stroke:#181818;stroke-width:1.1;"/><line style="stroke:#181818;stroke-width:1.1;" x1="462" x2="608.3" y1="881.2672" y2="881.2672"/><text fill="#000000" font-family="sans-serif" font-size="14.3" lengthAdjust="spacing" textLength="31.9" x="469.7" y="874.8773">code</text><polygon fill="#181818" points="474.1,892.2672,463.1,896.6672,474.1,901.0672,469.7,896.6672" style="stroke:#181818;stroke-width:1.1;"/><line style="stroke:#181818;stroke-width:1.1;stroke-dasharray:2.0,2.0;" x1="467.5" x2="619.3" y1="896.6672" y2="896.6672"/><path d="M44,913.1672 L110,913.1672 L110,923.8438 L99,934.8438 L44,934.8438 L44,913.1672 " fill="#EEEEEE" style="stroke:#000000;stroke-width:1.6500000000000001;"/><rect fill="none" height="21.6766" style="stroke:#000000;stroke-width:1.6500000000000001;" width="358.6" x="44" y="913.1672"/><text fill="#000000" font-family="sans-serif" font-size="14.3" font-weight="bold" lengthAdjust="spacing" textLength="16.5" x="60.5" y="929.5539">alt</text><text fill="#000000" font-family="sans-serif" font-size="12.1" font-weight="bold" lengthAdjust="spacing" textLength="270.6" x="126.5" y="928.302">[request.startsWith(SmtpStatus.OK.code() + "-")]</text><polygon fill="#181818" points="771.1,971.9205,782.1,976.3205,771.1,980.7205,775.5,976.3205" style="stroke:#181818;stroke-width:1.1;"/><line style="stroke:#181818;stroke-width:1.1;" x1="462" x2="777.7" y1="976.3205" y2="976.3205"/><text fill="#000000" font-family="sans-serif" font-size="14.3" lengthAdjust="spacing" textLength="29.7" x="469.7" y="969.9306">next</text><polygon fill="#181818" points="474.1,987.3205,463.1,991.7205,474.1,996.1205,469.7,991.7205" style="stroke:#181818;stroke-width:1.1;"/><line style="stroke:#181818;stroke-width:1.1;stroke-dasharray:2.0,2.0;" x1="467.5" x2="788.7" y1="991.7205" y2="991.7205"/><line style="stroke:#000000;stroke-width:1.1;stroke-dasharray:2.0,2.0;" x1="22" x2="1060.4" y1="1001.6205" y2="1001.6205"/><text fill="#000000" font-family="sans-serif" font-size="12.1" font-weight="bold" lengthAdjust="spacing" textLength="99" x="27.5" y="1014.5553">[MAIL|MESSAGE]</text><polygon fill="#181818" points="601.7,1040.8772,612.7,1045.2772,601.7,1049.6772,606.1,1045.2772" style="stroke:#181818;stroke-width:1.1;"/><line style="stroke:#181818;stroke-width:1.1;" x1="462" x2="608.3" y1="1045.2772" y2="1045.2772"/><text fill="#000000" font-family="sans-serif" font-size="14.3" lengthAdjust="spacing" textLength="31.9" x="469.7" y="1038.8873">code</text><polygon fill="#181818" points="474.1,1056.2772,463.1,1060.6772,474.1,1065.0772,469.7,1060.6772" style="stroke:#181818;stroke-width:1.1;"/><line style="stroke:#181818;stroke-width:1.1;stroke-dasharray:2.0,2.0;" x1="467.5" x2="619.3" y1="1060.6772" y2="1060.6772"/><path d="M360.8,1077.1772 L426.8,1077.1772 L426.8,1087.8538 L415.8,1098.8538 L360.8,1098.8538 L360.8,1077.1772 " fill="#EEEEEE" style="stroke:#000000;stroke-width:1.6500000000000001;"/><rect fill="none" height="56.5532" style="stroke:#000000;stroke-width:1.6500000000000001;" width="335.5" x="360.8" y="1077.1772"/><text fill="#000000" font-family="sans-serif" font-size="14.3" font-weight="bold" lengthAdjust="spacing" textLength="16.5" x="377.3" y="1093.5639">alt</text><text fill="#000000" font-family="sans-serif" font-size="12.1" font-weight="bold" lengthAdjust="spacing" textLength="247.5" x="443.3" y="1092.312">[!request.startsWith(SmtpStatus.OK.code())]</text><polygon fill="#181818" points="1069.2,1120.5304,1080.2,1124.9304,1069.2,1129.3304,1073.6,1124.9304" style="stroke:#181818;stroke-width:1.1;"/><line style="stroke:#181818;stroke-width:1.1;" x1="462" x2="1075.8" y1="1124.9304" y2="1124.9304"/><text fill="#000000" font-family="sans-serif" font-size="14.3" lengthAdjust="spacing" textLength="39.6" x="469.7" y="1118.5405">throw</text><polygon fill="#181818" points="771.1,1163.107,782.1,1167.507,771.1,1171.907,775.5,1167.507" style="stroke:#181818;stroke-width:1.1;"/><line style="stroke:#181818;stroke-width:1.1;" x1="462" x2="777.7" y1="1167.507" y2="1167.507"/><text fill="#000000" font-family="sans-serif" font-size="14.3" lengthAdjust="spacing" textLength="29.7" x="469.7" y="1161.1171">next</text><polygon fill="#181818" points="474.1,1178.507,463.1,1182.907,474.1,1187.307,469.7,1182.907" style="stroke:#181818;stroke-width:1.1;"/><line style="stroke:#181818;stroke-width:1.1;stroke-dasharray:2.0,2.0;" x1="467.5" x2="788.7" y1="1182.907" y2="1182.907"/><line style="stroke:#000000;stroke-width:1.1;stroke-dasharray:2.0,2.0;" x1="22" x2="1060.4" y1="1192.807" y2="1192.807"/><text fill="#000000" font-family="sans-serif" font-size="12.1" font-weight="bold" lengthAdjust="spacing" textLength="38.5" x="27.5" y="1205.7418">[RCPT]</text><polygon fill="#181818" points="601.7,1232.0637,612.7,1236.4637,601.7,1240.8637,606.1,1236.4637" style="stroke:#181818;stroke-width:1.1;"/><line style="stroke:#181818;stroke-width:1.1;" x1="462" x2="608.3" y1="1236.4637" y2="1236.4637"/><text fill="#000000" font-family="sans-serif" font-size="14.3" lengthAdjust="spacing" textLength="31.9" x="469.7" y="1230.0738">code</text><polygon fill="#181818" points="474.1,1247.4637,463.1,1251.8637,474.1,1256.2637,469.7,1251.8637" style="stroke:#181818;stroke-width:1.1;"/><line style="stroke:#181818;stroke-width:1.1;stroke-dasharray:2.0,2.0;" x1="467.5" x2="619.3" y1="1251.8637" y2="1251.8637"/><path d="M349.8,1268.3637 L415.8,1268.3637 L415.8,1279.0403 L404.8,1290.0403 L349.8,1290.0403 L349.8,1268.3637 " fill="#EEEEEE" style="stroke:#000000;stroke-width:1.6500000000000001;"/><rect fill="none" height="196.3831" style="stroke:#000000;stroke-width:1.6500000000000001;" width="699.6" x="349.8" y="1268.3637"/><text fill="#000000" font-family="sans-serif" font-size="14.3" font-weight="bold" lengthAdjust="spacing" textLength="16.5" x="366.3" y="1284.7504">alt</text><text fill="#000000" font-family="sans-serif" font-size="12.1" font-weight="bold" lengthAdjust="spacing" textLength="247.5" x="432.3" y="1283.4985">[!request.startsWith(SmtpStatus.OK.code())]</text><polygon fill="#181818" points="1069.2,1311.7169,1080.2,1316.1169,1069.2,1320.5169,1073.6,1316.1169" style="stroke:#181818;stroke-width:1.1;"/><line style="stroke:#181818;stroke-width:1.1;" x1="462" x2="1075.8" y1="1316.1169" y2="1316.1169"/><text fill="#000000" font-family="sans-serif" font-size="14.3" lengthAdjust="spacing" textLength="39.6" x="469.7" y="1309.727">throw</text><line style="stroke:#000000;stroke-width:1.1;stroke-dasharray:2.0,2.0;" x1="349.8" x2="1049.4" y1="1326.0169" y2="1326.0169"/><polygon fill="#181818" points="940.5,1348.7936,951.5,1353.1936,940.5,1357.5936,944.9,1353.1936" style="stroke:#181818;stroke-width:1.1;"/><line style="stroke:#181818;stroke-width:1.1;" x1="462" x2="947.1" y1="1353.1936" y2="1353.1936"/><text fill="#000000" font-family="sans-serif" font-size="14.3" lengthAdjust="spacing" textLength="58.3" x="469.7" y="1346.8037">receivers</text><polygon fill="#181818" points="474.1,1364.1936,463.1,1368.5936,474.1,1372.9936,469.7,1368.5936" style="stroke:#181818;stroke-width:1.1;"/><line style="stroke:#181818;stroke-width:1.1;stroke-dasharray:2.0,2.0;" x1="467.5" x2="958.1" y1="1368.5936" y2="1368.5936"/><path d="M360.8,1385.0936 L426.8,1385.0936 L426.8,1395.7702 L415.8,1406.7702 L360.8,1406.7702 L360.8,1385.0936 " fill="#EEEEEE" style="stroke:#000000;stroke-width:1.6500000000000001;"/><rect fill="none" height="71.9532" style="stroke:#000000;stroke-width:1.6500000000000001;" width="519.2" x="360.8" y="1385.0936"/><text fill="#000000" font-family="sans-serif" font-size="14.3" font-weight="bold" lengthAdjust="spacing" textLength="16.5" x="377.3" y="1401.4803">alt</text><text fill="#000000" font-family="sans-serif" font-size="12.1" font-weight="bold" lengthAdjust="spacing" textLength="283.8" x="443.3" y="1400.2284">[currentRecipientIndex == mail.receivers().length]</text><polygon fill="#181818" points="771.1,1428.4468,782.1,1432.8468,771.1,1437.2468,775.5,1432.8468" style="stroke:#181818;stroke-width:1.1;"/><line style="stroke:#181818;stroke-width:1.1;" x1="462" x2="777.7" y1="1432.8468" y2="1432.8468"/><text fill="#000000" font-family="sans-serif" font-size="14.3" lengthAdjust="spacing" textLength="29.7" x="469.7" y="1426.4569">next</text><polygon fill="#181818" points="474.1,1443.8468,463.1,1448.2468,474.1,1452.6468,469.7,1448.2468" style="stroke:#181818;stroke-width:1.1;"/><line style="stroke:#181818;stroke-width:1.1;stroke-dasharray:2.0,2.0;" x1="467.5" x2="788.7" y1="1448.2468" y2="1448.2468"/><line style="stroke:#000000;stroke-width:1.1;stroke-dasharray:2.0,2.0;" x1="22" x2="1060.4" y1="1473.5468" y2="1473.5468"/><text fill="#000000" font-family="sans-serif" font-size="12.1" font-weight="bold" lengthAdjust="spacing" textLength="39.6" x="27.5" y="1486.4816">[DATA]</text><polygon fill="#181818" points="601.7,1512.8035,612.7,1517.2035,601.7,1521.6035,606.1,1517.2035" style="stroke:#181818;stroke-width:1.1;"/><line style="stroke:#181818;stroke-width:1.1;" x1="462" x2="608.3" y1="1517.2035" y2="1517.2035"/><text fill="#000000" font-family="sans-serif" font-size="14.3" lengthAdjust="spacing" textLength="31.9" x="469.7" y="1510.8136">code</text><polygon fill="#181818" points="474.1,1528.2035,463.1,1532.6035,474.1,1537.0035,469.7,1532.6035" style="stroke:#181818;stroke-width:1.1;"/><line style="stroke:#181818;stroke-width:1.1;stroke-dasharray:2.0,2.0;" x1="467.5" x2="619.3" y1="1532.6035" y2="1532.6035"/><path d="M44,1549.1035 L110,1549.1035 L110,1559.7801 L99,1570.7801 L44,1570.7801 L44,1549.1035 " fill="#EEEEEE" style="stroke:#000000;stroke-width:1.6500000000000001;"/><rect fill="none" height="21.6766" style="stroke:#000000;stroke-width:1.6500000000000001;" width="430.1" x="44" y="1549.1035"/><text fill="#000000" font-family="sans-serif" font-size="14.3" font-weight="bold" lengthAdjust="spacing" textLength="16.5" x="60.5" y="1565.4902">alt</text><text fill="#000000" font-family="sans-serif" font-size="12.1" font-weight="bold" lengthAdjust="spacing" textLength="342.1" x="126.5" y="1564.2383">[!request.startsWith(SmtpStatus.START_MAIL_INPUT.code())]</text><polygon fill="#181818" points="771.1,1600.1567,782.1,1604.5567,771.1,1608.9567,775.5,1604.5567" style="stroke:#181818;stroke-width:1.1;"/><line style="stroke:#181818;stroke-width:1.1;" x1="462" x2="777.7" y1="1604.5567" y2="1604.5567"/><text fill="#000000" font-family="sans-serif" font-size="14.3" lengthAdjust="spacing" textLength="29.7" x="469.7" y="1598.1668">next</text><polygon fill="#181818" points="474.1,1615.5567,463.1,1619.9567,474.1,1624.3567,469.7,1619.9567" style="stroke:#181818;stroke-width:1.1;"/><line style="stroke:#181818;stroke-width:1.1;stroke-dasharray:2.0,2.0;" x1="467.5" x2="788.7" y1="1619.9567" y2="1619.9567"/><line style="stroke:#000000;stroke-width:1.1;stroke-dasharray:2.0,2.0;" x1="22" x2="1060.4" y1="1629.8567" y2="1629.8567"/><text fill="#000000" font-family="sans-serif" font-size="12.1" font-weight="bold" lengthAdjust="spacing" textLength="38.5" x="27.5" y="1642.7915">[QUIT]</text><path d="M44,1655.1368 L110,1655.1368 L110,1665.8134 L99,1676.8134 L44,1676.8134 L44,1655.1368 " fill="#EEEEEE" style="stroke:#000000;stroke-width:1.6500000000000001;"/><rect fill="none" height="21.6766" style="stroke:#000000;stroke-width:1.6500000000000001;" width="240.9" x="44" y="1655.1368"/><text fill="#000000" font-family="sans-serif" font-size="14.3" font-weight="bold" lengthAdjust="spacing" textLength="16.5" x="60.5" y="1671.5235">alt</text><text fill="#000000" font-family="sans-serif" font-size="12.1" font-weight="bold" lengthAdjust="spacing" textLength="152.9" x="126.5" y="1670.2716">[!request.startsWith("221")]</text><polygon fill="#181818" points="771.1,1706.19,782.1,1710.59,771.1,1714.99,775.5,1710.59" style="stroke:#181818;stroke-width:1.1;"/><line style="stroke:#181818;stroke-width:1.1;" x1="462" x2="777.7" y1="1710.59" y2="1710.59"/><text fill="#000000" font-family="sans-serif" font-size="14.3" lengthAdjust="spacing" textLength="29.7" x="469.7" y="1704.2001">next</text><polygon fill="#181818" points="474.1,1721.59,463.1,1725.99,474.1,1730.39,469.7,1725.99" style="stroke:#181818;stroke-width:1.1;"/><line style="stroke:#181818;stroke-width:1.1;stroke-dasharray:2.0,2.0;" x1="467.5" x2="788.7" y1="1725.99" y2="1725.99"/><line style="stroke:#181818;stroke-width:1.1;stroke-dasharray:2.0,2.0;" x1="462" x2="508.2" y1="1754.59" y2="1754.59"/><line style="stroke:#181818;stroke-width:1.1;stroke-dasharray:2.0,2.0;" x1="508.2" x2="508.2" y1="1754.59" y2="1768.89"/><line style="stroke:#181818;stroke-width:1.1;stroke-dasharray:2.0,2.0;" x1="456.5" x2="508.2" y1="1768.89" y2="1768.89"/><polygon fill="#181818" points="467.5,1764.49,456.5,1768.89,467.5,1773.29,463.1,1768.89" style="stroke:#181818;stroke-width:1.1;"/><line style="stroke:#181818;stroke-width:1.1;" x1="456.5" x2="508.2" y1="1792.7667" y2="1792.7667"/><line style="stroke:#181818;stroke-width:1.1;" x1="508.2" x2="508.2" y1="1792.7667" y2="1807.0667"/><line style="stroke:#181818;stroke-width:1.1;" x1="463.1" x2="508.2" y1="1807.0667" y2="1807.0667"/><polygon fill="#181818" points="474.1,1802.6667,463.1,1807.0667,474.1,1811.4667,469.7,1807.0667" style="stroke:#181818;stroke-width:1.1;"/><text fill="#000000" font-family="sans-serif" font-size="14.3" lengthAdjust="spacing" textLength="108.9" x="469.7" y="1786.3768">handleResponse</text><path d="M360.8,1829.0667 L426.8,1829.0667 L426.8,1839.7433 L415.8,1850.7433 L360.8,1850.7433 L360.8,1829.0667 " fill="#EEEEEE" style="stroke:#000000;stroke-width:1.6500000000000001;"/><rect fill="none" height="472.7769" style="stroke:#000000;stroke-width:1.6500000000000001;" width="688.6" x="360.8" y="1829.0667"/><text fill="#000000" font-family="sans-serif" font-size="14.3" font-weight="bold" lengthAdjust="spacing" textLength="16.5" x="377.3" y="1845.4534">alt</text><text fill="#000000" font-family="sans-serif" font-size="12.1" font-weight="bold" lengthAdjust="spacing" textLength="111.1" x="443.3" y="1844.2015">[currentCommand]</text><line style="stroke:#000000;stroke-width:1.1;stroke-dasharray:2.0,2.0;" x1="360.8" x2="1049.4" y1="1851.8433" y2="1851.8433"/><text fill="#000000" font-family="sans-serif" font-size="12.1" font-weight="bold" lengthAdjust="spacing" textLength="38.5" x="366.3" y="1864.7781">[WAIT]</text><line style="stroke:#000000;stroke-width:1.1;stroke-dasharray:2.0,2.0;" x1="360.8" x2="1049.4" y1="1870.5234" y2="1870.5234"/><text fill="#000000" font-family="sans-serif" font-size="12.1" font-weight="bold" lengthAdjust="spacing" textLength="40.7" x="366.3" y="1883.4582">[EHLO]</text><line style="stroke:#000000;stroke-width:1.1;stroke-dasharray:2.0,2.0;" x1="360.8" x2="1049.4" y1="1889.2034" y2="1889.2034"/><text fill="#000000" font-family="sans-serif" font-size="12.1" font-weight="bold" lengthAdjust="spacing" textLength="28.6" x="366.3" y="1902.1382">[EXT]</text><line style="stroke:#000000;stroke-width:1.1;stroke-dasharray:2.0,2.0;" x1="360.8" x2="1049.4" y1="1907.8835" y2="1907.8835"/><text fill="#000000" font-family="sans-serif" font-size="12.1" font-weight="bold" lengthAdjust="spacing" textLength="38.5" x="366.3" y="1920.8183">[MAIL]</text><polygon fill="#181818" points="940.5,1947.1402,951.5,1951.5402,940.5,1955.9402,944.9,1951.5402" style="stroke:#181818;stroke-width:1.1;"/><line style="stroke:#181818;stroke-width:1.1;" x1="462" x2="947.1" y1="1951.5402" y2="1951.5402"/><text fill="#000000" font-family="sans-serif" font-size="14.3" lengthAdjust="spacing" textLength="45.1" x="469.7" y="1945.1503">sender</text><polygon fill="#181818" points="474.1,1962.5402,463.1,1966.9402,474.1,1971.3402,469.7,1966.9402" style="stroke:#181818;stroke-width:1.1;"/><line style="stroke:#181818;stroke-width:1.1;stroke-dasharray:2.0,2.0;" x1="467.5" x2="958.1" y1="1966.9402" y2="1966.9402"/><line style="stroke:#000000;stroke-width:1.1;stroke-dasharray:2.0,2.0;" x1="360.8" x2="1049.4" y1="1976.8402" y2="1976.8402"/><text fill="#000000" font-family="sans-serif" font-size="12.1" font-weight="bold" lengthAdjust="spacing" textLength="38.5" x="366.3" y="1989.775">[RCPT]</text><polygon fill="#181818" points="940.5,2016.0969,951.5,2020.4969,940.5,2024.8969,944.9,2020.4969" style="stroke:#181818;stroke-width:1.1;"/><line style="stroke:#181818;stroke-width:1.1;" x1="462" x2="947.1" y1="2020.4969" y2="2020.4969"/><text fill="#000000" font-family="sans-serif" font-size="14.3" lengthAdjust="spacing" textLength="58.3" x="469.7" y="2014.107">receivers</text><polygon fill="#181818" points="474.1,2031.4969,463.1,2035.8969,474.1,2040.2969,469.7,2035.8969" style="stroke:#181818;stroke-width:1.1;"/><line style="stroke:#181818;stroke-width:1.1;stroke-dasharray:2.0,2.0;" x1="467.5" x2="958.1" y1="2035.8969" y2="2035.8969"/><line style="stroke:#000000;stroke-width:1.1;stroke-dasharray:2.0,2.0;" x1="360.8" x2="1049.4" y1="2045.7969" y2="2045.7969"/><text fill="#000000" font-family="sans-serif" font-size="12.1" font-weight="bold" lengthAdjust="spacing" textLength="39.6" x="366.3" y="2058.7317">[DATA]</text><polygon fill="#181818" points="940.5,2085.0536,951.5,2089.4536,940.5,2093.8536,944.9,2089.4536" style="stroke:#181818;stroke-width:1.1;"/><line style="stroke:#181818;stroke-width:1.1;" x1="462" x2="947.1" y1="2089.4536" y2="2089.4536"/><text fill="#000000" font-family="sans-serif" font-size="14.3" lengthAdjust="spacing" textLength="58.3" x="469.7" y="2083.0637">message</text><polygon fill="#181818" points="474.1,2100.4536,463.1,2104.8536,474.1,2109.2536,469.7,2104.8536" style="stroke:#181818;stroke-width:1.1;"/><line style="stroke:#181818;stroke-width:1.1;stroke-dasharray:2.0,2.0;" x1="467.5" x2="958.1" y1="2104.8536" y2="2104.8536"/><line style="stroke:#000000;stroke-width:1.1;stroke-dasharray:2.0,2.0;" x1="360.8" x2="1049.4" y1="2114.7536" y2="2114.7536"/><text fill="#000000" font-family="sans-serif" font-size="12.1" font-weight="bold" lengthAdjust="spacing" textLength="62.7" x="366.3" y="2127.6884">[MESSAGE]</text><polygon fill="#181818" points="940.5,2154.0103,951.5,2158.4103,940.5,2162.8103,944.9,2158.4103" style="stroke:#181818;stroke-width:1.1;"/><line style="stroke:#181818;stroke-width:1.1;" x1="462" x2="947.1" y1="2158.4103" y2="2158.4103"/><text fill="#000000" font-family="sans-serif" font-size="14.3" lengthAdjust="spacing" textLength="45.1" x="469.7" y="2152.0204">sender</text><polygon fill="#181818" points="474.1,2169.4103,463.1,2173.8103,474.1,2178.2103,469.7,2173.8103" style="stroke:#181818;stroke-width:1.1;"/><line style="stroke:#181818;stroke-width:1.1;stroke-dasharray:2.0,2.0;" x1="467.5" x2="958.1" y1="2173.8103" y2="2173.8103"/><polygon fill="#181818" points="940.5,2204.2869,951.5,2208.6869,940.5,2213.0869,944.9,2208.6869" style="stroke:#181818;stroke-width:1.1;"/><line style="stroke:#181818;stroke-width:1.1;" x1="462" x2="947.1" y1="2208.6869" y2="2208.6869"/><text fill="#000000" font-family="sans-serif" font-size="14.3" lengthAdjust="spacing" textLength="58.3" x="469.7" y="2202.297">receivers</text><polygon fill="#181818" points="474.1,2219.6869,463.1,2224.0869,474.1,2228.4869,469.7,2224.0869" style="stroke:#181818;stroke-width:1.1;"/><line style="stroke:#181818;stroke-width:1.1;stroke-dasharray:2.0,2.0;" x1="467.5" x2="958.1" y1="2224.0869" y2="2224.0869"/><polygon fill="#181818" points="940.5,2254.5635,951.5,2258.9635,940.5,2263.3635,944.9,2258.9635" style="stroke:#181818;stroke-width:1.1;"/><line style="stroke:#181818;stroke-width:1.1;" x1="462" x2="947.1" y1="2258.9635" y2="2258.9635"/><text fill="#000000" font-family="sans-serif" font-size="14.3" lengthAdjust="spacing" textLength="58.3" x="469.7" y="2252.5736">message</text><polygon fill="#181818" points="474.1,2269.9635,463.1,2274.3635,474.1,2278.7635,469.7,2274.3635" style="stroke:#181818;stroke-width:1.1;"/><line style="stroke:#181818;stroke-width:1.1;stroke-dasharray:2.0,2.0;" x1="467.5" x2="958.1" y1="2274.3635" y2="2274.3635"/><line style="stroke:#000000;stroke-width:1.1;stroke-dasharray:2.0,2.0;" x1="360.8" x2="1049.4" y1="2284.2635" y2="2284.2635"/><text fill="#000000" font-family="sans-serif" font-size="12.1" font-weight="bold" lengthAdjust="spacing" textLength="38.5" x="366.3" y="2297.1983">[QUIT]</text><line style="stroke:#181818;stroke-width:1.1;stroke-dasharray:2.0,2.0;" x1="462" x2="508.2" y1="2321.6436" y2="2321.6436"/><line style="stroke:#181818;stroke-width:1.1;stroke-dasharray:2.0,2.0;" x1="508.2" x2="508.2" y1="2321.6436" y2="2335.9436"/><line style="stroke:#181818;stroke-width:1.1;stroke-dasharray:2.0,2.0;" x1="456.5" x2="508.2" y1="2335.9436" y2="2335.9436"/><polygon fill="#181818" points="467.5,2331.5436,456.5,2335.9436,467.5,2340.3436,463.1,2335.9436" style="stroke:#181818;stroke-width:1.1;"/><polygon fill="#181818" points="299.2,2341.4436,288.2,2345.8436,299.2,2350.2436,294.8,2345.8436" style="stroke:#181818;stroke-width:1.1;"/><line style="stroke:#181818;stroke-width:1.1;stroke-dasharray:2.0,2.0;" x1="292.6" x2="449.9" y1="2345.8436" y2="2345.8436"/><path d="M191.4,2362.3436 L257.4,2362.3436 L257.4,2373.0202 L246.4,2384.0202 L191.4,2384.0202 L191.4,2362.3436 " fill="#EEEEEE" style="stroke:#000000;stroke-width:1.6500000000000001;"/><rect fill="none" height="56.5532" style="stroke:#000000;stroke-width:1.6500000000000001;" width="220" x="191.4" y="2362.3436"/><text fill="#000000" font-family="sans-serif" font-size="14.3" font-weight="bold" lengthAdjust="spacing" textLength="16.5" x="207.9" y="2378.7303">alt</text><text fill="#000000" font-family="sans-serif" font-size="12.1" font-weight="bold" lengthAdjust="spacing" textLength="119.9" x="273.9" y="2377.4784">[!response.isEmpty()]</text><polygon fill="#181818" points="1069.2,2405.6968,1080.2,2410.0968,1069.2,2414.4968,1073.6,2410.0968" style="stroke:#181818;stroke-width:1.1;"/><line style="stroke:#181818;stroke-width:1.1;stroke-dasharray:2.0,2.0;" x1="287.1" x2="1075.8" y1="2410.0968" y2="2410.0968"/><text fill="#000000" font-family="sans-serif" font-size="14.3" lengthAdjust="spacing" textLength="101.2" x="294.8" y="2403.7069">Client response</text><polygon fill="#181818" points="124.3,2436.4968,113.3,2440.8968,124.3,2445.2968,119.9,2440.8968" style="stroke:#181818;stroke-width:1.1;"/><line style="stroke:#181818;stroke-width:1.1;stroke-dasharray:2.0,2.0;" x1="117.7" x2="280.5" y1="2440.8968" y2="2440.8968"/><!--SRC=[rLTTRvim57tdLtXv2ff0Q_SshPCGHIjQitP0b-rXYYouAbR1CFlITj9-_6mI24GaozQE9G-9-3W-FlVRo3l6IofeJcQCkncLSiuIJCd9wrU6UeuiPYNbI9mO2s7K_yHwHy8SomlAamm4UKD4nGqQ8xkd2DrNHbOKfT75lhMiRsf12E9UtGduNe747aAHpoZBveMugxaVrCMQVFtAwA0srwGrLx1Y7rfCCoHn9GHmT8iyL_WDFYqfH8gLL7nnaK3VmEKheuEoUYAC18RmUjiNAwjjYSg_ojsOJjSGE_I2pxxhBGBFEVzgwvsdfjaNfps8gIWU31ZKlR98eJWyObzuOsqNjrjwim8o2SIxkBmw54zTVVYjUxJaqUJkgPQy91DhOeuNj-PNn-zBT5pXEzJeDLuTjVfcZd_vS-Q5eVFUEw8mZkscmBq-xYpNTtgiGWnCpKdP7s4rU8V06jCPS06e6SxKXSyJU2HdPoHN2Bjbdvfs1lmMq__JaiwTo3cOuHivGRJGPRRmFrxVH6tiHi_XJpT-j5NnvFJqP3Aog8szTcRV_YSqMHPSmhv7jDepSqTvPdqOQSTQso67Yqag2pJh7rVIjfRo34MwBVzNr3b8IM_XRuc71yLJtV7iJlWNfjVLyzIKxN_cR5cmAj5b7jjCUdc9FwPc_vDcsUxTJ3TXqe3RBYW0Ay5_0G00]--></g></svg>