<?xml version="1.0" encoding="us-ascii" standalone="no"?><svg xmlns="http://www.w3.org/2000/svg" xmlns:xlink="http://www.w3.org/1999/xlink" contentStyleType="text/css" height="1453.1px" preserveAspectRatio="none" style="width:931px;height:1453px;background:#FFFFFF;" version="1.1" viewBox="0 0 931 1453" width="931.7px" zoomAndPan="magnify"><defs/><g><rect fill="#FFFFFF" height="961.4221" style="stroke:#181818;stroke-width:1.1;" width="11" x="151.8" y="129.5513"/><rect fill="#FFFFFF" height="192.326" style="stroke:#181818;stroke-width:1.1;" width="11" x="151.8" y="1142.35"/><rect fill="#FFFFFF" height="856.4688" style="stroke:#181818;stroke-width:1.1;" width="11" x="321.2" y="212.5046"/><rect fill="#FFFFFF" height="27.5" style="stroke:#181818;stroke-width:1.1;" width="11" x="326.7" y="258.7793"/><rect fill="#FFFFFF" height="27.5" style="stroke:#181818;stroke-width:1.1;" width="11" x="326.7" y="337.6559"/><rect fill="#FFFFFF" height="64.5766" style="stroke:#181818;stroke-width:1.1;" width="11" x="326.7" y="482.9857"/><rect fill="#FFFFFF" height="180.5299" style="stroke:#181818;stroke-width:1.1;" width="11" x="326.7" y="598.939"/><rect fill="#FFFFFF" height="64.5766" style="stroke:#181818;stroke-width:1.1;" width="11" x="332.2" y="677.4922"/><rect fill="#FFFFFF" height="143.4532" style="stroke:#181818;stroke-width:1.1;" width="11" x="326.7" y="830.8455"/><rect fill="#FFFFFF" height="64.5766" style="stroke:#181818;stroke-width:1.1;" width="11" x="332.2" y="880.0221"/><rect fill="#FFFFFF" height="17.9981" style="stroke:#181818;stroke-width:1.1;" width="11" x="490.6" y="1027.8753"/><rect fill="#FFFFFF" height="17.9981" style="stroke:#181818;stroke-width:1.1;" width="11" x="660" y="1223.1033"/><rect fill="#FFFFFF" height="17.9981" style="stroke:#181818;stroke-width:1.1;" width="11" x="829.4" y="1286.978"/><rect fill="none" height="21.6766" style="stroke:#000000;stroke-width:1.6500000000000001;" width="239.8" x="33" y="146.0513"/><rect fill="none" height="21.6766" style="stroke:#000000;stroke-width:1.6500000000000001;" width="321.2" x="33" y="389.3559"/><rect fill="none" height="628.2409" style="stroke:#000000;stroke-width:1.6500000000000001;" width="575.3" x="11" y="426.4325"/><rect fill="none" height="21.6766" style="stroke:#000000;stroke-width:1.6500000000000001;" width="213.4" x="33" y="504.9857"/><rect fill="none" height="137.6299" style="stroke:#000000;stroke-width:1.6500000000000001;" width="446.6" x="22" y="620.939"/><rect fill="none" height="21.6766" style="stroke:#000000;stroke-width:1.6500000000000001;" width="213.4" x="33" y="699.4922"/><rect fill="none" height="21.6766" style="stroke:#000000;stroke-width:1.6500000000000001;" width="213.4" x="33" y="902.0221"/><rect fill="none" height="149.426" style="stroke:#000000;stroke-width:1.6500000000000001;" width="858" x="67.1" y="1164.35"/><line style="stroke:#181818;stroke-width:0.55;stroke-dasharray:5.0,5.0;" x1="44" x2="44" y1="92.4747" y2="1362.1761"/><line style="stroke:#181818;stroke-width:0.55;stroke-dasharray:5.0,5.0;" x1="157.3" x2="157.3" y1="92.4747" y2="1362.1761"/><line style="stroke:#181818;stroke-width:0.55;stroke-dasharray:5.0,5.0;" x1="326.7" x2="326.7" y1="210.6653" y2="1362.1761"/><line style="stroke:#181818;stroke-width:0.55;stroke-dasharray:5.0,5.0;" x1="496.1" x2="496.1" y1="1026.036" y2="1362.1761"/><line style="stroke:#181818;stroke-width:0.55;stroke-dasharray:5.0,5.0;" x1="665.5" x2="665.5" y1="1221.264" y2="1362.1761"/><line style="stroke:#181818;stroke-width:0.55;stroke-dasharray:5.0,5.0;" x1="834.9" x2="834.9" y1="1285.1387" y2="1362.1761"/><text fill="#000000" font-family="sans-serif" font-size="15.4" lengthAdjust="spacing" textLength="38.5" x="22" y="87.9625">Actor</text><ellipse cx="44.55" cy="14.85" fill="#E2E2F0" rx="8.8" ry="8.8" style="stroke:#181818;stroke-width:0.55;"/><path d="M44.55,23.65 L44.55,53.35 M30.25,32.45 L58.85,32.45 M44.55,53.35 L30.25,69.85 M44.55,53.35 L58.85,69.85 " fill="none" style="stroke:#181818;stroke-width:0.55;"/><text fill="#000000" font-family="sans-serif" font-size="15.4" lengthAdjust="spacing" textLength="38.5" x="22" y="1377.5386">Actor</text><ellipse cx="44.55" cy="1391.4008" fill="#E2E2F0" rx="8.8" ry="8.8" style="stroke:#181818;stroke-width:0.55;"/><path d="M44.55,1400.2008 L44.55,1429.9008 M30.25,1409.0008 L58.85,1409.0008 M44.55,1429.9008 L30.25,1446.4008 M44.55,1429.9008 L58.85,1446.4008 " fill="none" style="stroke:#181818;stroke-width:0.55;"/><rect fill="#E2E2F0" height="36.3747" rx="2.75" ry="2.75" style="stroke:#181818;stroke-width:0.55;" width="158.4" x="78.1" y="55"/><text fill="#000000" font-family="sans-serif" font-size="15.4" lengthAdjust="spacing" textLength="81.4" x="116.6" y="79.1625">SmtpClient</text><rect fill="#E2E2F0" height="36.3747" rx="2.75" ry="2.75" style="stroke:#181818;stroke-width:0.55;" width="158.4" x="78.1" y="1361.0761"/><text fill="#000000" font-family="sans-serif" font-size="15.4" lengthAdjust="spacing" textLength="81.4" x="116.6" y="1385.2386">SmtpClient</text><rect fill="#E2E2F0" height="36.3747" rx="2.75" ry="2.75" style="stroke:#181818;stroke-width:0.55;" width="158.4" x="247.5" y="1361.0761"/><text fill="#000000" font-family="sans-serif" font-size="15.4" lengthAdjust="spacing" textLength="93.5" x="279.95" y="1385.2386">GroupParser</text><rect fill="#E2E2F0" height="36.3747" rx="2.75" ry="2.75" style="stroke:#181818;stroke-width:0.55;" width="158.4" x="416.9" y="1361.0761"/><text fill="#000000" font-family="sans-serif" font-size="15.4" lengthAdjust="spacing" textLength="31.9" x="480.15" y="1385.2386">Mail</text><rect fill="#E2E2F0" height="36.3747" rx="2.75" ry="2.75" style="stroke:#181818;stroke-width:0.55;" width="158.4" x="586.3" y="1361.0761"/><text fill="#000000" font-family="sans-serif" font-size="15.4" lengthAdjust="spacing" textLength="84.7" x="623.15" y="1385.2386">MailWorker</text><rect fill="#E2E2F0" height="36.3747" rx="2.75" ry="2.75" style="stroke:#181818;stroke-width:0.55;" width="158.4" x="755.7" y="1361.0761"/><text fill="#000000" font-family="sans-serif" font-size="15.4" lengthAdjust="spacing" textLength="97.9" x="785.95" y="1385.2386">SmtpHandler</text><rect fill="#FFFFFF" height="961.4221" style="stroke:#181818;stroke-width:1.1;" width="11" x="151.8" y="129.5513"/><rect fill="#FFFFFF" height="192.326" style="stroke:#181818;stroke-width:1.1;" width="11" x="151.8" y="1142.35"/><rect fill="#FFFFFF" height="856.4688" style="stroke:#181818;stroke-width:1.1;" width="11" x="321.2" y="212.5046"/><rect fill="#FFFFFF" height="27.5" style="stroke:#181818;stroke-width:1.1;" width="11" x="326.7" y="258.7793"/><rect fill="#FFFFFF" height="27.5" style="stroke:#181818;stroke-width:1.1;" width="11" x="326.7" y="337.6559"/><rect fill="#FFFFFF" height="64.5766" style="stroke:#181818;stroke-width:1.1;" width="11" x="326.7" y="482.9857"/><rect fill="#FFFFFF" height="180.5299" style="stroke:#181818;stroke-width:1.1;" width="11" x="326.7" y="598.939"/><rect fill="#FFFFFF" height="64.5766" style="stroke:#181818;stroke-width:1.1;" width="11" x="332.2" y="677.4922"/><rect fill="#FFFFFF" height="143.4532" style="stroke:#181818;stroke-width:1.1;" width="11" x="326.7" y="830.8455"/><rect fill="#FFFFFF" height="64.5766" style="stroke:#181818;stroke-width:1.1;" width="11" x="332.2" y="880.0221"/><rect fill="#FFFFFF" height="17.9981" style="stroke:#181818;stroke-width:1.1;" width="11" x="490.6" y="1027.8753"/><rect fill="#FFFFFF" height="17.9981" style="stroke:#181818;stroke-width:1.1;" width="11" x="660" y="1223.1033"/><rect fill="#FFFFFF" height="17.9981" style="stroke:#181818;stroke-width:1.1;" width="11" x="829.4" y="1286.978"/><polygon fill="#181818" points="138.6,125.1513,149.6,129.5513,138.6,133.9513,143,129.5513" style="stroke:#181818;stroke-width:1.1;"/><line style="stroke:#181818;stroke-width:1.1;" x1="44.55" x2="145.2" y1="129.5513" y2="129.5513"/><text fill="#000000" font-family="sans-serif" font-size="14.3" lengthAdjust="spacing" textLength="33" x="52.25" y="123.1614">main</text><path d="M33,146.0513 L99,146.0513 L99,156.7279 L88,167.7279 L33,167.7279 L33,146.0513 " fill="#EEEEEE" style="stroke:#000000;stroke-width:1.6500000000000001;"/><rect fill="none" height="21.6766" style="stroke:#000000;stroke-width:1.6500000000000001;" width="239.8" x="33" y="146.0513"/><text fill="#000000" font-family="sans-serif" font-size="14.3" font-weight="bold" lengthAdjust="spacing" textLength="16.5" x="49.5" y="162.438">alt</text><text fill="#000000" font-family="sans-serif" font-size="12.1" font-weight="bold" lengthAdjust="spacing" textLength="151.8" x="115.5" y="161.1861">[args.length != argLength]</text><polygon fill="#181818" points="234.3,197.1046,245.3,201.5046,234.3,205.9046,238.7,201.5046" style="stroke:#181818;stroke-width:1.1;"/><line style="stroke:#181818;stroke-width:1.1;" x1="162.8" x2="240.9" y1="201.5046" y2="201.5046"/><text fill="#000000" font-family="sans-serif" font-size="14.3" lengthAdjust="spacing" textLength="27.5" x="170.5" y="195.1147">new</text><rect fill="#E2E2F0" height="36.3747" rx="2.75" ry="2.75" style="stroke:#181818;stroke-width:0.55;" width="158.4" x="247.5" y="175.4279"/><text fill="#000000" font-family="sans-serif" font-size="15.4" lengthAdjust="spacing" textLength="93.5" x="279.95" y="199.5905">GroupParser</text><line style="stroke:#181818;stroke-width:1.1;" x1="332.2" x2="383.9" y1="244.4793" y2="244.4793"/><line style="stroke:#181818;stroke-width:1.1;" x1="383.9" x2="383.9" y1="244.4793" y2="258.7793"/><line style="stroke:#181818;stroke-width:1.1;" x1="338.8" x2="383.9" y1="258.7793" y2="258.7793"/><polygon fill="#181818" points="349.8,254.3793,338.8,258.7793,349.8,263.1793,345.4,258.7793" style="stroke:#181818;stroke-width:1.1;"/><text fill="#000000" font-family="sans-serif" font-size="14.3" lengthAdjust="spacing" textLength="58.3" x="345.4" y="238.0894">parseFile</text><line style="stroke:#181818;stroke-width:1.1;stroke-dasharray:2.0,2.0;" x1="337.7" x2="383.9" y1="285.1793" y2="285.1793"/><line style="stroke:#181818;stroke-width:1.1;stroke-dasharray:2.0,2.0;" x1="383.9" x2="383.9" y1="285.1793" y2="299.4793"/><line style="stroke:#181818;stroke-width:1.1;stroke-dasharray:2.0,2.0;" x1="332.2" x2="383.9" y1="299.4793" y2="299.4793"/><polygon fill="#181818" points="343.2,295.0793,332.2,299.4793,343.2,303.8793,338.8,299.4793" style="stroke:#181818;stroke-width:1.1;"/><line style="stroke:#181818;stroke-width:1.1;" x1="332.2" x2="383.9" y1="323.3559" y2="323.3559"/><line style="stroke:#181818;stroke-width:1.1;" x1="383.9" x2="383.9" y1="323.3559" y2="337.6559"/><line style="stroke:#181818;stroke-width:1.1;" x1="338.8" x2="383.9" y1="337.6559" y2="337.6559"/><polygon fill="#181818" points="349.8,333.2559,338.8,337.6559,349.8,342.0559,345.4,337.6559" style="stroke:#181818;stroke-width:1.1;"/><text fill="#000000" font-family="sans-serif" font-size="14.3" lengthAdjust="spacing" textLength="58.3" x="345.4" y="316.966">parseFile</text><line style="stroke:#181818;stroke-width:1.1;stroke-dasharray:2.0,2.0;" x1="337.7" x2="383.9" y1="364.0559" y2="364.0559"/><line style="stroke:#181818;stroke-width:1.1;stroke-dasharray:2.0,2.0;" x1="383.9" x2="383.9" y1="364.0559" y2="378.3559"/><line style="stroke:#181818;stroke-width:1.1;stroke-dasharray:2.0,2.0;" x1="332.2" x2="383.9" y1="378.3559" y2="378.3559"/><polygon fill="#181818" points="343.2,373.9559,332.2,378.3559,343.2,382.7559,338.8,378.3559" style="stroke:#181818;stroke-width:1.1;"/><path d="M33,389.3559 L99,389.3559 L99,400.0325 L88,411.0325 L33,411.0325 L33,389.3559 " fill="#EEEEEE" style="stroke:#000000;stroke-width:1.6500000000000001;"/><rect fill="none" height="21.6766" style="stroke:#000000;stroke-width:1.6500000000000001;" width="321.2" x="33" y="389.3559"/><text fill="#000000" font-family="sans-serif" font-size="14.3" font-weight="bold" lengthAdjust="spacing" textLength="16.5" x="49.5" y="405.7426">alt</text><text fill="#000000" font-family="sans-serif" font-size="12.1" font-weight="bold" lengthAdjust="spacing" textLength="233.2" x="115.5" y="404.4907">[victims.isEmpty() || messages.isEmpty()]</text><path d="M11,426.4325 L90.2,426.4325 L90.2,437.1091 L79.2,448.1091 L11,448.1091 L11,426.4325 " fill="#EEEEEE" style="stroke:#000000;stroke-width:1.6500000000000001;"/><rect fill="none" height="628.2409" style="stroke:#000000;stroke-width:1.6500000000000001;" width="575.3" x="11" y="426.4325"/><text fill="#000000" font-family="sans-serif" font-size="14.3" font-weight="bold" lengthAdjust="spacing" textLength="29.7" x="27.5" y="442.8192">loop</text><text fill="#000000" font-family="sans-serif" font-size="12.1" font-weight="bold" lengthAdjust="spacing" textLength="96.8" x="106.7" y="441.5673">[i &lt; groupCount]</text><line style="stroke:#181818;stroke-width:1.1;" x1="332.2" x2="383.9" y1="468.6857" y2="468.6857"/><line style="stroke:#181818;stroke-width:1.1;" x1="383.9" x2="383.9" y1="468.6857" y2="482.9857"/><line style="stroke:#181818;stroke-width:1.1;" x1="338.8" x2="383.9" y1="482.9857" y2="482.9857"/><polygon fill="#181818" points="349.8,478.5857,338.8,482.9857,349.8,487.3857,345.4,482.9857" style="stroke:#181818;stroke-width:1.1;"/><text fill="#000000" font-family="sans-serif" font-size="14.3" lengthAdjust="spacing" textLength="104.5" x="345.4" y="462.2958">selectCandidate</text><path d="M33,504.9857 L99,504.9857 L99,515.6624 L88,526.6624 L33,526.6624 L33,504.9857 " fill="#EEEEEE" style="stroke:#000000;stroke-width:1.6500000000000001;"/><rect fill="none" height="21.6766" style="stroke:#000000;stroke-width:1.6500000000000001;" width="213.4" x="33" y="504.9857"/><text fill="#000000" font-family="sans-serif" font-size="14.3" font-weight="bold" lengthAdjust="spacing" textLength="16.5" x="49.5" y="521.3725">alt</text><text fill="#000000" font-family="sans-serif" font-size="12.1" font-weight="bold" lengthAdjust="spacing" textLength="125.4" x="115.5" y="520.1205">[candidates.isEmpty()]</text><line style="stroke:#181818;stroke-width:1.1;stroke-dasharray:2.0,2.0;" x1="337.7" x2="383.9" y1="546.4624" y2="546.4624"/><line style="stroke:#181818;stroke-width:1.1;stroke-dasharray:2.0,2.0;" x1="383.9" x2="383.9" y1="546.4624" y2="560.7624"/><line style="stroke:#181818;stroke-width:1.1;stroke-dasharray:2.0,2.0;" x1="332.2" x2="383.9" y1="560.7624" y2="560.7624"/><polygon fill="#181818" points="343.2,556.3624,332.2,560.7624,343.2,565.1624,338.8,560.7624" style="stroke:#181818;stroke-width:1.1;"/><line style="stroke:#181818;stroke-width:1.1;" x1="332.2" x2="383.9" y1="584.639" y2="584.639"/><line style="stroke:#181818;stroke-width:1.1;" x1="383.9" x2="383.9" y1="584.639" y2="598.939"/><line style="stroke:#181818;stroke-width:1.1;" x1="338.8" x2="383.9" y1="598.939" y2="598.939"/><polygon fill="#181818" points="349.8,594.539,338.8,598.939,349.8,603.339,345.4,598.939" style="stroke:#181818;stroke-width:1.1;"/><text fill="#000000" font-family="sans-serif" font-size="14.3" lengthAdjust="spacing" textLength="99" x="345.4" y="578.2491">selectReceivers</text><path d="M22,620.939 L101.2,620.939 L101.2,631.6156 L90.2,642.6156 L22,642.6156 L22,620.939 " fill="#EEEEEE" style="stroke:#000000;stroke-width:1.6500000000000001;"/><rect fill="none" height="137.6299" style="stroke:#000000;stroke-width:1.6500000000000001;" width="446.6" x="22" y="620.939"/><text fill="#000000" font-family="sans-serif" font-size="14.3" font-weight="bold" lengthAdjust="spacing" textLength="29.7" x="38.5" y="637.3257">loop</text><text fill="#000000" font-family="sans-serif" font-size="12.1" font-weight="bold" lengthAdjust="spacing" textLength="46.2" x="117.7" y="636.0738">[i &lt; size]</text><line style="stroke:#181818;stroke-width:1.1;" x1="337.7" x2="389.4" y1="663.1922" y2="663.1922"/><line style="stroke:#181818;stroke-width:1.1;" x1="389.4" x2="389.4" y1="663.1922" y2="677.4922"/><line style="stroke:#181818;stroke-width:1.1;" x1="344.3" x2="389.4" y1="677.4922" y2="677.4922"/><polygon fill="#181818" points="355.3,673.0922,344.3,677.4922,355.3,681.8922,350.9,677.4922" style="stroke:#181818;stroke-width:1.1;"/><text fill="#000000" font-family="sans-serif" font-size="14.3" lengthAdjust="spacing" textLength="104.5" x="350.9" y="656.8023">selectCandidate</text><path d="M33,699.4922 L99,699.4922 L99,710.1688 L88,721.1688 L33,721.1688 L33,699.4922 " fill="#EEEEEE" style="stroke:#000000;stroke-width:1.6500000000000001;"/><rect fill="none" height="21.6766" style="stroke:#000000;stroke-width:1.6500000000000001;" width="213.4" x="33" y="699.4922"/><text fill="#000000" font-family="sans-serif" font-size="14.3" font-weight="bold" lengthAdjust="spacing" textLength="16.5" x="49.5" y="715.8789">alt</text><text fill="#000000" font-family="sans-serif" font-size="12.1" font-weight="bold" lengthAdjust="spacing" textLength="125.4" x="115.5" y="714.627">[candidates.isEmpty()]</text><line style="stroke:#181818;stroke-width:1.1;stroke-dasharray:2.0,2.0;" x1="343.2" x2="389.4" y1="740.9688" y2="740.9688"/><line style="stroke:#181818;stroke-width:1.1;stroke-dasharray:2.0,2.0;" x1="389.4" x2="389.4" y1="740.9688" y2="755.2688"/><line style="stroke:#181818;stroke-width:1.1;stroke-dasharray:2.0,2.0;" x1="337.7" x2="389.4" y1="755.2688" y2="755.2688"/><polygon fill="#181818" points="348.7,750.8688,337.7,755.2688,348.7,759.6688,344.3,755.2688" style="stroke:#181818;stroke-width:1.1;"/><line style="stroke:#181818;stroke-width:1.1;stroke-dasharray:2.0,2.0;" x1="337.7" x2="383.9" y1="778.3688" y2="778.3688"/><line style="stroke:#181818;stroke-width:1.1;stroke-dasharray:2.0,2.0;" x1="383.9" x2="383.9" y1="778.3688" y2="792.6688"/><line style="stroke:#181818;stroke-width:1.1;stroke-dasharray:2.0,2.0;" x1="332.2" x2="383.9" y1="792.6688" y2="792.6688"/><polygon fill="#181818" points="343.2,788.2688,332.2,792.6688,343.2,797.0688,338.8,792.6688" style="stroke:#181818;stroke-width:1.1;"/><line style="stroke:#181818;stroke-width:1.1;" x1="332.2" x2="383.9" y1="816.5455" y2="816.5455"/><line style="stroke:#181818;stroke-width:1.1;" x1="383.9" x2="383.9" y1="816.5455" y2="830.8455"/><line style="stroke:#181818;stroke-width:1.1;" x1="338.8" x2="383.9" y1="830.8455" y2="830.8455"/><polygon fill="#181818" points="349.8,826.4455,338.8,830.8455,349.8,835.2455,345.4,830.8455" style="stroke:#181818;stroke-width:1.1;"/><text fill="#000000" font-family="sans-serif" font-size="14.3" lengthAdjust="spacing" textLength="95.7" x="345.4" y="810.1555">selectMessage</text><line style="stroke:#181818;stroke-width:1.1;" x1="337.7" x2="389.4" y1="865.7221" y2="865.7221"/><line style="stroke:#181818;stroke-width:1.1;" x1="389.4" x2="389.4" y1="865.7221" y2="880.0221"/><line style="stroke:#181818;stroke-width:1.1;" x1="344.3" x2="389.4" y1="880.0221" y2="880.0221"/><polygon fill="#181818" points="355.3,875.6221,344.3,880.0221,355.3,884.4221,350.9,880.0221" style="stroke:#181818;stroke-width:1.1;"/><text fill="#000000" font-family="sans-serif" font-size="14.3" lengthAdjust="spacing" textLength="104.5" x="350.9" y="859.3322">selectCandidate</text><path d="M33,902.0221 L99,902.0221 L99,912.6987 L88,923.6987 L33,923.6987 L33,902.0221 " fill="#EEEEEE" style="stroke:#000000;stroke-width:1.6500000000000001;"/><rect fill="none" height="21.6766" style="stroke:#000000;stroke-width:1.6500000000000001;" width="213.4" x="33" y="902.0221"/><text fill="#000000" font-family="sans-serif" font-size="14.3" font-weight="bold" lengthAdjust="spacing" textLength="16.5" x="49.5" y="918.4088">alt</text><text fill="#000000" font-family="sans-serif" font-size="12.1" font-weight="bold" lengthAdjust="spacing" textLength="125.4" x="115.5" y="917.1569">[candidates.isEmpty()]</text><line style="stroke:#181818;stroke-width:1.1;stroke-dasharray:2.0,2.0;" x1="343.2" x2="389.4" y1="943.4987" y2="943.4987"/><line style="stroke:#181818;stroke-width:1.1;stroke-dasharray:2.0,2.0;" x1="389.4" x2="389.4" y1="943.4987" y2="957.7987"/><line style="stroke:#181818;stroke-width:1.1;stroke-dasharray:2.0,2.0;" x1="337.7" x2="389.4" y1="957.7987" y2="957.7987"/><polygon fill="#181818" points="348.7,953.3987,337.7,957.7987,348.7,962.1987,344.3,957.7987" style="stroke:#181818;stroke-width:1.1;"/><line style="stroke:#181818;stroke-width:1.1;stroke-dasharray:2.0,2.0;" x1="337.7" x2="383.9" y1="973.1987" y2="973.1987"/><line style="stroke:#181818;stroke-width:1.1;stroke-dasharray:2.0,2.0;" x1="383.9" x2="383.9" y1="973.1987" y2="987.4987"/><line style="stroke:#181818;stroke-width:1.1;stroke-dasharray:2.0,2.0;" x1="332.2" x2="383.9" y1="987.4987" y2="987.4987"/><polygon fill="#181818" points="343.2,983.0987,332.2,987.4987,343.2,991.8987,338.8,987.4987" style="stroke:#181818;stroke-width:1.1;"/><polygon fill="#181818" points="403.7,1012.4753,414.7,1016.8753,403.7,1021.2753,408.1,1016.8753" style="stroke:#181818;stroke-width:1.1;"/><line style="stroke:#181818;stroke-width:1.1;" x1="332.2" x2="410.3" y1="1016.8753" y2="1016.8753"/><text fill="#000000" font-family="sans-serif" font-size="14.3" lengthAdjust="spacing" textLength="27.5" x="339.9" y="1010.4854">new</text><rect fill="#E2E2F0" height="36.3747" rx="2.75" ry="2.75" style="stroke:#181818;stroke-width:0.55;" width="158.4" x="416.9" y="990.7987"/><text fill="#000000" font-family="sans-serif" font-size="15.4" lengthAdjust="spacing" textLength="31.9" x="480.15" y="1014.9612">Mail</text><polygon fill="#181818" points="344.3,1041.4734,333.3,1045.8734,344.3,1050.2734,339.9,1045.8734" style="stroke:#181818;stroke-width:1.1;"/><line style="stroke:#181818;stroke-width:1.1;stroke-dasharray:2.0,2.0;" x1="337.7" x2="495" y1="1045.8734" y2="1045.8734"/><polygon fill="#181818" points="174.9,1064.5734,163.9,1068.9734,174.9,1073.3734,170.5,1068.9734" style="stroke:#181818;stroke-width:1.1;"/><line style="stroke:#181818;stroke-width:1.1;stroke-dasharray:2.0,2.0;" x1="168.3" x2="325.6" y1="1068.9734" y2="1068.9734"/><line style="stroke:#181818;stroke-width:1.1;stroke-dasharray:2.0,2.0;" x1="162.8" x2="209" y1="1089.8734" y2="1089.8734"/><line style="stroke:#181818;stroke-width:1.1;stroke-dasharray:2.0,2.0;" x1="209" x2="209" y1="1089.8734" y2="1104.1734"/><line style="stroke:#181818;stroke-width:1.1;stroke-dasharray:2.0,2.0;" x1="157.3" x2="209" y1="1104.1734" y2="1104.1734"/><polygon fill="#181818" points="168.3,1099.7734,157.3,1104.1734,168.3,1108.5734,163.9,1104.1734" style="stroke:#181818;stroke-width:1.1;"/><line style="stroke:#181818;stroke-width:1.1;" x1="157.3" x2="209" y1="1128.05" y2="1128.05"/><line style="stroke:#181818;stroke-width:1.1;" x1="209" x2="209" y1="1128.05" y2="1142.35"/><line style="stroke:#181818;stroke-width:1.1;" x1="163.9" x2="209" y1="1142.35" y2="1142.35"/><polygon fill="#181818" points="174.9,1137.95,163.9,1142.35,174.9,1146.75,170.5,1142.35" style="stroke:#181818;stroke-width:1.1;"/><text fill="#000000" font-family="sans-serif" font-size="14.3" lengthAdjust="spacing" textLength="51.7" x="170.5" y="1121.6601">execute</text><path d="M67.1,1164.35 L146.3,1164.35 L146.3,1175.0266 L135.3,1186.0266 L67.1,1186.0266 L67.1,1164.35 " fill="#EEEEEE" style="stroke:#000000;stroke-width:1.6500000000000001;"/><rect fill="none" height="149.426" style="stroke:#000000;stroke-width:1.6500000000000001;" width="858" x="67.1" y="1164.35"/><text fill="#000000" font-family="sans-serif" font-size="14.3" font-weight="bold" lengthAdjust="spacing" textLength="29.7" x="83.6" y="1180.7367">loop</text><text fill="#000000" font-family="sans-serif" font-size="12.1" font-weight="bold" lengthAdjust="spacing" textLength="38.5" x="162.8" y="1179.4848">[mails]</text><polygon fill="#181818" points="573.1,1207.7033,584.1,1212.1033,573.1,1216.5033,577.5,1212.1033" style="stroke:#181818;stroke-width:1.1;"/><line style="stroke:#181818;stroke-width:1.1;" x1="162.8" x2="579.7" y1="1212.1033" y2="1212.1033"/><text fill="#000000" font-family="sans-serif" font-size="14.3" lengthAdjust="spacing" textLength="27.5" x="170.5" y="1205.7133">new</text><rect fill="#E2E2F0" height="36.3747" rx="2.75" ry="2.75" style="stroke:#181818;stroke-width:0.55;" width="158.4" x="586.3" y="1186.0266"/><text fill="#000000" font-family="sans-serif" font-size="15.4" lengthAdjust="spacing" textLength="84.7" x="623.15" y="1210.1892">MailWorker</text><polygon fill="#181818" points="174.9,1236.7013,163.9,1241.1013,174.9,1245.5013,170.5,1241.1013" style="stroke:#181818;stroke-width:1.1;"/><line style="stroke:#181818;stroke-width:1.1;stroke-dasharray:2.0,2.0;" x1="168.3" x2="664.4" y1="1241.1013" y2="1241.1013"/><polygon fill="#181818" points="742.5,1271.578,753.5,1275.978,742.5,1280.378,746.9,1275.978" style="stroke:#181818;stroke-width:1.1;"/><line style="stroke:#181818;stroke-width:1.1;" x1="162.8" x2="749.1" y1="1275.978" y2="1275.978"/><text fill="#000000" font-family="sans-serif" font-size="14.3" lengthAdjust="spacing" textLength="27.5" x="170.5" y="1269.5881">new</text><rect fill="#E2E2F0" height="36.3747" rx="2.75" ry="2.75" style="stroke:#181818;stroke-width:0.55;" width="158.4" x="755.7" y="1249.9013"/><text fill="#000000" font-family="sans-serif" font-size="15.4" lengthAdjust="spacing" textLength="97.9" x="785.95" y="1274.0639">SmtpHandler</text><polygon fill="#181818" points="174.9,1300.5761,163.9,1304.9761,174.9,1309.3761,170.5,1304.9761" style="stroke:#181818;stroke-width:1.1;"/><line style="stroke:#181818;stroke-width:1.1;stroke-dasharray:2.0,2.0;" x1="168.3" x2="833.8" y1="1304.9761" y2="1304.9761"/><line style="stroke:#181818;stroke-width:1.1;stroke-dasharray:2.0,2.0;" x1="162.8" x2="209" y1="1333.5761" y2="1333.5761"/><line style="stroke:#181818;stroke-width:1.1;stroke-dasharray:2.0,2.0;" x1="209" x2="209" y1="1333.5761" y2="1347.8761"/><line style="stroke:#181818;stroke-width:1.1;stroke-dasharray:2.0,2.0;" x1="157.3" x2="209" y1="1347.8761" y2="1347.8761"/><polygon fill="#181818" points="168.3,1343.4761,157.3,1347.8761,168.3,1352.2761,163.9,1347.8761" style="stroke:#181818;stroke-width:1.1;"/><!--SRC=[pLHDJyCm3BtdLvZJuC04ueO02LLy79WqmM7dgB6AjJIjahHyQ3-U9jkOrxNLX43i4ZNsUy-ENRsHcvCffPKvJALIP3AuE1ERu8HCegLpCrB-5SwRd4nzOU4sd2AUS7e3Bxal4qreF5n2Bia46DNI8qi9gJr8cxcnHfCrSaVNuVeKBmAD4gd55cN4bDjr3BvrbbcfFDYYAgVIEhHYMuLbsZASn64xh39yt9F6FRZRPA7m4Cg5PTJKP78t9dUNb_xZ-0GM2yZHEPaXYyRTwA8eWU0AiY2I55KpwS6M7MfCVIAD8jKK5xrTf6j8k-Hl3t7PqJEcI3LQrztHzpiTVU81ll3l1ZDPBbxybF-VgzwFidA6YIJTVb28jSqWuc9YG3-2kfx07Acd7UvAlGGM7V12VCUqufDdjFX7DwQi7H_0hB3p7MVS9BfciQ8mK7_R3CzS_R7PlzwfoZ9Tjiv9QzZmlDQCi1QBlhBc2m00]--></g></svg>