<?xml version="1.0" encoding="us-ascii" standalone="no"?><svg xmlns="http://www.w3.org/2000/svg" xmlns:xlink="http://www.w3.org/1999/xlink" contentStyleType="text/css" height="739px" preserveAspectRatio="none" style="width:1151px;height:739px;background:#FFFFFF;" version="1.1" viewBox="0 0 1151 739" width="1151px" zoomAndPan="magnify"><defs/><g><!--class Client--><g id="elem_Client"><rect codeLine="7" fill="#F1F1F1" height="113.1875" id="Client" rx="2.5" ry="2.5" style="stroke:#181818;stroke-width:0.5;" width="470" x="423.5" y="7"/><ellipse cx="632.75" cy="23" fill="#ADD1B2" rx="11" ry="11" style="stroke:#181818;stroke-width:1.0;"/><path d="M635.0938,18.6719 C634.1563,18.2344 633.5625,18.0938 632.6875,18.0938 C630.0625,18.0938 628.0625,20.1719 628.0625,22.8906 L628.0625,24.0156 C628.0625,26.5938 630.1719,28.4844 633.0625,28.4844 C634.2813,28.4844 635.4375,28.1875 636.1875,27.6406 C636.7656,27.2344 637.0938,26.7813 637.0938,26.3906 C637.0938,25.9375 636.7031,25.5469 636.2344,25.5469 C636.0156,25.5469 635.8125,25.625 635.625,25.8125 C635.1719,26.2969 635.1719,26.2969 634.9844,26.3906 C634.5625,26.6563 633.875,26.7813 633.1094,26.7813 C631.0625,26.7813 629.7656,25.6875 629.7656,23.9844 L629.7656,22.8906 C629.7656,21.1094 631.0156,19.7969 632.75,19.7969 C633.3281,19.7969 633.9375,19.9531 634.4063,20.2031 C634.8906,20.4844 635.0625,20.7031 635.1563,21.1094 C635.2188,21.5156 635.25,21.6406 635.3906,21.7656 C635.5313,21.9063 635.7656,22.0156 635.9844,22.0156 C636.25,22.0156 636.5156,21.875 636.6875,21.6563 C636.7969,21.5 636.8281,21.3125 636.8281,20.8906 L636.8281,19.4688 C636.8281,19.0313 636.8125,18.9063 636.7188,18.75 C636.5625,18.4844 636.2813,18.3438 635.9844,18.3438 C635.6875,18.3438 635.4844,18.4375 635.2656,18.75 L635.0938,18.6719 Z " fill="#000000"/><text fill="#000000" font-family="sans-serif" font-size="14" lengthAdjust="spacing" textLength="43" x="653.25" y="27.8467">Client</text><line style="stroke:#181818;stroke-width:0.5;" x1="424.5" x2="892.5" y1="39" y2="39"/><text fill="#000000" font-family="sans-serif" font-size="14" lengthAdjust="spacing" textLength="90" x="429.5" y="55.9951">-mails: Mail[]</text><line style="stroke:#181818;stroke-width:0.5;" x1="424.5" x2="892.5" y1="63.2969" y2="63.2969"/><text fill="#000000" font-family="sans-serif" font-size="14" lengthAdjust="spacing" text-decoration="underline" textLength="188" x="429.5" y="80.292">+main(args: String[]): void</text><text fill="#000000" font-family="sans-serif" font-size="14" lengthAdjust="spacing" textLength="458" x="429.5" y="96.5889">+Client(victimFile: String, messageFile: String, groupCount: int)</text><text fill="#000000" font-family="sans-serif" font-size="14" lengthAdjust="spacing" textLength="118" x="429.5" y="112.8857">+execute(): void</text></g><!--class Handler--><g id="elem_Handler"><rect codeLine="14" fill="#F1F1F1" height="113.1875" id="Handler" rx="2.5" ry="2.5" style="stroke:#181818;stroke-width:0.5;" width="306" x="165.5" y="205.5"/><ellipse cx="286.75" cy="221.5" fill="#ADD1B2" rx="11" ry="11" style="stroke:#181818;stroke-width:1.0;"/><path d="M289.0938,217.1719 C288.1563,216.7344 287.5625,216.5938 286.6875,216.5938 C284.0625,216.5938 282.0625,218.6719 282.0625,221.3906 L282.0625,222.5156 C282.0625,225.0938 284.1719,226.9844 287.0625,226.9844 C288.2813,226.9844 289.4375,226.6875 290.1875,226.1406 C290.7656,225.7344 291.0938,225.2813 291.0938,224.8906 C291.0938,224.4375 290.7031,224.0469 290.2344,224.0469 C290.0156,224.0469 289.8125,224.125 289.625,224.3125 C289.1719,224.7969 289.1719,224.7969 288.9844,224.8906 C288.5625,225.1563 287.875,225.2813 287.1094,225.2813 C285.0625,225.2813 283.7656,224.1875 283.7656,222.4844 L283.7656,221.3906 C283.7656,219.6094 285.0156,218.2969 286.75,218.2969 C287.3281,218.2969 287.9375,218.4531 288.4063,218.7031 C288.8906,218.9844 289.0625,219.2031 289.1563,219.6094 C289.2188,220.0156 289.25,220.1406 289.3906,220.2656 C289.5313,220.4063 289.7656,220.5156 289.9844,220.5156 C290.25,220.5156 290.5156,220.375 290.6875,220.1563 C290.7969,220 290.8281,219.8125 290.8281,219.3906 L290.8281,217.9688 C290.8281,217.5313 290.8125,217.4063 290.7188,217.25 C290.5625,216.9844 290.2813,216.8438 289.9844,216.8438 C289.6875,216.8438 289.4844,216.9375 289.2656,217.25 L289.0938,217.1719 Z " fill="#000000"/><text fill="#000000" font-family="sans-serif" font-size="14" lengthAdjust="spacing" textLength="55" x="307.25" y="226.3467">Handler</text><line style="stroke:#181818;stroke-width:0.5;" x1="166.5" x2="470.5" y1="237.5" y2="237.5"/><text fill="#000000" font-family="sans-serif" font-size="14" lengthAdjust="spacing" textLength="115" x="171.5" y="254.4951">-socket: Socket</text><text fill="#000000" font-family="sans-serif" font-size="14" lengthAdjust="spacing" textLength="118" x="171.5" y="270.792">-worker: Worker</text><line style="stroke:#181818;stroke-width:0.5;" x1="166.5" x2="470.5" y1="278.0938" y2="278.0938"/><text fill="#000000" font-family="sans-serif" font-size="14" lengthAdjust="spacing" textLength="294" x="171.5" y="295.0889">Handler(socket: Socket, worker: Worker)</text><text fill="#000000" font-family="sans-serif" font-size="14" lengthAdjust="spacing" textLength="87" x="171.5" y="311.3857">+run() : void</text></g><!--class Worker--><g id="elem_Worker"><rect codeLine="21" fill="#F1F1F1" height="121.4844" id="Worker" rx="2.5" ry="2.5" style="stroke:#181818;stroke-width:0.5;" width="241" x="236" y="424.5"/><ellipse cx="325.75" cy="440.5" fill="#ADD1B2" rx="11" ry="11" style="stroke:#181818;stroke-width:1.0;"/><path d="M328.0938,436.1719 C327.1563,435.7344 326.5625,435.5938 325.6875,435.5938 C323.0625,435.5938 321.0625,437.6719 321.0625,440.3906 L321.0625,441.5156 C321.0625,444.0938 323.1719,445.9844 326.0625,445.9844 C327.2813,445.9844 328.4375,445.6875 329.1875,445.1406 C329.7656,444.7344 330.0938,444.2813 330.0938,443.8906 C330.0938,443.4375 329.7031,443.0469 329.2344,443.0469 C329.0156,443.0469 328.8125,443.125 328.625,443.3125 C328.1719,443.7969 328.1719,443.7969 327.9844,443.8906 C327.5625,444.1563 326.875,444.2813 326.1094,444.2813 C324.0625,444.2813 322.7656,443.1875 322.7656,441.4844 L322.7656,440.3906 C322.7656,438.6094 324.0156,437.2969 325.75,437.2969 C326.3281,437.2969 326.9375,437.4531 327.4063,437.7031 C327.8906,437.9844 328.0625,438.2031 328.1563,438.6094 C328.2188,439.0156 328.25,439.1406 328.3906,439.2656 C328.5313,439.4063 328.7656,439.5156 328.9844,439.5156 C329.25,439.5156 329.5156,439.375 329.6875,439.1563 C329.7969,439 329.8281,438.8125 329.8281,438.3906 L329.8281,436.9688 C329.8281,436.5313 329.8125,436.4063 329.7188,436.25 C329.5625,435.9844 329.2813,435.8438 328.9844,435.8438 C328.6875,435.8438 328.4844,435.9375 328.2656,436.25 L328.0938,436.1719 Z " fill="#000000"/><text fill="#000000" font-family="sans-serif" font-size="14" lengthAdjust="spacing" textLength="53" x="346.25" y="445.3467">Worker</text><line style="stroke:#181818;stroke-width:0.5;" x1="237" x2="476" y1="456.5" y2="456.5"/><text fill="#000000" font-family="sans-serif" font-size="14" lengthAdjust="spacing" textLength="125" x="242" y="473.4951">Worker(Mail mail)</text><text fill="#000000" font-family="sans-serif" font-size="14" lengthAdjust="spacing" textLength="229" x="242" y="489.792">+work(message: String) : String</text><text fill="#000000" font-family="sans-serif" font-size="14" lengthAdjust="spacing" textLength="126" x="242" y="506.0889">-identity(): String</text><text fill="#000000" font-family="sans-serif" font-size="14" lengthAdjust="spacing" textLength="150" x="242" y="522.3857">-mailHeader(): String</text><text fill="#000000" font-family="sans-serif" font-size="14" lengthAdjust="spacing" textLength="135" x="242" y="538.6826">-mailBody(): String</text></g><!--class SmtpCommand--><g id="elem_SmtpCommand"><rect codeLine="29" fill="#F1F1F1" height="121.4844" id="SmtpCommand" rx="2.5" ry="2.5" style="stroke:#181818;stroke-width:0.5;" width="145" x="7" y="424.5"/><ellipse cx="22" cy="440.5" fill="#EB937F" rx="11" ry="11" style="stroke:#181818;stroke-width:1.0;"/><path d="M20.7969,441.375 L22.25,441.375 L22.25,441.4844 C22.25,441.8906 22.2813,442.0469 22.3594,442.2031 C22.5156,442.4531 22.7969,442.6094 23.0938,442.6094 C23.3438,442.6094 23.6094,442.4688 23.7656,442.25 C23.8906,442.0938 23.9219,441.9375 23.9219,441.4844 L23.9219,439.5625 C23.9219,439.4063 23.9219,439.3594 23.9063,439.2031 C23.8438,438.7344 23.5313,438.4219 23.0781,438.4219 C22.8281,438.4219 22.5625,438.5625 22.3906,438.7813 C22.2813,438.9531 22.25,439.1094 22.25,439.5625 L22.25,439.6875 L20.7969,439.6875 L20.7969,437.2813 L24.7813,437.2813 L24.7813,438.1406 C24.7813,438.5469 24.8125,438.7188 24.8906,438.875 C25.0625,439.125 25.3438,439.2813 25.625,439.2813 C25.8906,439.2813 26.1563,439.1406 26.3281,438.9219 C26.4375,438.75 26.4688,438.6094 26.4688,438.1406 L26.4688,435.5938 L18.8438,435.5938 C18.4063,435.5938 18.2813,435.6094 18.125,435.7031 C17.875,435.8594 17.7188,436.1563 17.7188,436.4375 C17.7188,436.7188 17.8594,436.9688 18.0781,437.1406 C18.2344,437.25 18.4219,437.2813 18.8438,437.2813 L19.0938,437.2813 L19.0938,443.7969 L18.8438,443.7969 C18.4375,443.7969 18.2813,443.8125 18.125,443.9219 C17.875,444.0938 17.7188,444.3594 17.7188,444.6563 C17.7188,444.9219 17.8594,445.1719 18.0781,445.3281 C18.2188,445.4531 18.4531,445.5 18.8438,445.5 L26.8438,445.5 L26.8438,442.9219 C26.8438,442.4844 26.8125,442.3438 26.7344,442.1875 C26.5625,441.9375 26.2813,441.7813 26,441.7813 C25.7344,441.7813 25.4688,441.8906 25.2969,442.1406 C25.1875,442.2969 25.1563,442.4375 25.1563,442.9219 L25.1563,443.7969 L20.7969,443.7969 L20.7969,441.375 Z " fill="#000000"/><text fill="#000000" font-family="sans-serif" font-size="14" lengthAdjust="spacing" textLength="113" x="36" y="445.3467">SmtpCommand</text><line style="stroke:#181818;stroke-width:0.5;" x1="8" x2="151" y1="456.5" y2="456.5"/><text fill="#000000" font-family="sans-serif" font-size="14" lengthAdjust="spacing" textLength="38" x="13" y="473.4951">EHLO</text><text fill="#000000" font-family="sans-serif" font-size="14" lengthAdjust="spacing" textLength="34" x="13" y="489.792">MAIL</text><text fill="#000000" font-family="sans-serif" font-size="14" lengthAdjust="spacing" textLength="38" x="13" y="506.0889">RCPT</text><text fill="#000000" font-family="sans-serif" font-size="14" lengthAdjust="spacing" textLength="40" x="13" y="522.3857">DATA</text><text fill="#000000" font-family="sans-serif" font-size="14" lengthAdjust="spacing" textLength="33" x="13" y="538.6826">QUIT</text></g><!--class SmtpStatus--><g id="elem_SmtpStatus"><rect codeLine="37" fill="#F1F1F1" height="105.1875" id="SmtpStatus" rx="2.5" ry="2.5" style="stroke:#181818;stroke-width:0.5;" width="118" x="297.5" y="627"/><ellipse cx="312.5" cy="643" fill="#EB937F" rx="11" ry="11" style="stroke:#181818;stroke-width:1.0;"/><path d="M311.2969,643.875 L312.75,643.875 L312.75,643.9844 C312.75,644.3906 312.7813,644.5469 312.8594,644.7031 C313.0156,644.9531 313.2969,645.1094 313.5938,645.1094 C313.8438,645.1094 314.1094,644.9688 314.2656,644.75 C314.3906,644.5938 314.4219,644.4375 314.4219,643.9844 L314.4219,642.0625 C314.4219,641.9063 314.4219,641.8594 314.4063,641.7031 C314.3438,641.2344 314.0313,640.9219 313.5781,640.9219 C313.3281,640.9219 313.0625,641.0625 312.8906,641.2813 C312.7813,641.4531 312.75,641.6094 312.75,642.0625 L312.75,642.1875 L311.2969,642.1875 L311.2969,639.7813 L315.2813,639.7813 L315.2813,640.6406 C315.2813,641.0469 315.3125,641.2188 315.3906,641.375 C315.5625,641.625 315.8438,641.7813 316.125,641.7813 C316.3906,641.7813 316.6563,641.6406 316.8281,641.4219 C316.9375,641.25 316.9688,641.1094 316.9688,640.6406 L316.9688,638.0938 L309.3438,638.0938 C308.9063,638.0938 308.7813,638.1094 308.625,638.2031 C308.375,638.3594 308.2188,638.6563 308.2188,638.9375 C308.2188,639.2188 308.3594,639.4688 308.5781,639.6406 C308.7344,639.75 308.9219,639.7813 309.3438,639.7813 L309.5938,639.7813 L309.5938,646.2969 L309.3438,646.2969 C308.9375,646.2969 308.7813,646.3125 308.625,646.4219 C308.375,646.5938 308.2188,646.8594 308.2188,647.1563 C308.2188,647.4219 308.3594,647.6719 308.5781,647.8281 C308.7188,647.9531 308.9531,648 309.3438,648 L317.3438,648 L317.3438,645.4219 C317.3438,644.9844 317.3125,644.8438 317.2344,644.6875 C317.0625,644.4375 316.7813,644.2813 316.5,644.2813 C316.2344,644.2813 315.9688,644.3906 315.7969,644.6406 C315.6875,644.7969 315.6563,644.9375 315.6563,645.4219 L315.6563,646.2969 L311.2969,646.2969 L311.2969,643.875 Z " fill="#000000"/><text fill="#000000" font-family="sans-serif" font-size="14" lengthAdjust="spacing" textLength="86" x="326.5" y="647.8467">SmtpStatus</text><line style="stroke:#181818;stroke-width:0.5;" x1="298.5" x2="414.5" y1="659" y2="659"/><text fill="#000000" font-family="sans-serif" font-size="14" lengthAdjust="spacing" textLength="25" x="303.5" y="675.9951">220</text><text fill="#000000" font-family="sans-serif" font-size="14" lengthAdjust="spacing" textLength="25" x="303.5" y="692.292">221</text><text fill="#000000" font-family="sans-serif" font-size="14" lengthAdjust="spacing" textLength="26" x="303.5" y="708.5889">250</text><text fill="#000000" font-family="sans-serif" font-size="14" lengthAdjust="spacing" textLength="26" x="303.5" y="724.8857">354</text></g><!--class Parser--><g id="elem_Parser"><rect codeLine="44" fill="#F1F1F1" height="162.0781" id="Parser" rx="2.5" ry="2.5" style="stroke:#181818;stroke-width:0.5;" width="461" x="642" y="181"/><ellipse cx="845.75" cy="197" fill="#ADD1B2" rx="11" ry="11" style="stroke:#181818;stroke-width:1.0;"/><path d="M848.0938,192.6719 C847.1563,192.2344 846.5625,192.0938 845.6875,192.0938 C843.0625,192.0938 841.0625,194.1719 841.0625,196.8906 L841.0625,198.0156 C841.0625,200.5938 843.1719,202.4844 846.0625,202.4844 C847.2813,202.4844 848.4375,202.1875 849.1875,201.6406 C849.7656,201.2344 850.0938,200.7813 850.0938,200.3906 C850.0938,199.9375 849.7031,199.5469 849.2344,199.5469 C849.0156,199.5469 848.8125,199.625 848.625,199.8125 C848.1719,200.2969 848.1719,200.2969 847.9844,200.3906 C847.5625,200.6563 846.875,200.7813 846.1094,200.7813 C844.0625,200.7813 842.7656,199.6875 842.7656,197.9844 L842.7656,196.8906 C842.7656,195.1094 844.0156,193.7969 845.75,193.7969 C846.3281,193.7969 846.9375,193.9531 847.4063,194.2031 C847.8906,194.4844 848.0625,194.7031 848.1563,195.1094 C848.2188,195.5156 848.25,195.6406 848.3906,195.7656 C848.5313,195.9063 848.7656,196.0156 848.9844,196.0156 C849.25,196.0156 849.5156,195.875 849.6875,195.6563 C849.7969,195.5 849.8281,195.3125 849.8281,194.8906 L849.8281,193.4688 C849.8281,193.0313 849.8125,192.9063 849.7188,192.75 C849.5625,192.4844 849.2813,192.3438 848.9844,192.3438 C848.6875,192.3438 848.4844,192.4375 848.2656,192.75 L848.0938,192.6719 Z " fill="#000000"/><text fill="#000000" font-family="sans-serif" font-size="14" lengthAdjust="spacing" textLength="45" x="866.25" y="201.8467">Parser</text><line style="stroke:#181818;stroke-width:0.5;" x1="643" x2="1102" y1="213" y2="213"/><text fill="#000000" font-family="sans-serif" font-size="14" lengthAdjust="spacing" textLength="102" x="648" y="229.9951">-groups: Mail[]</text><line style="stroke:#181818;stroke-width:0.5;" x1="643" x2="1102" y1="237.2969" y2="237.2969"/><text fill="#000000" font-family="sans-serif" font-size="14" lengthAdjust="spacing" textLength="449" x="648" y="254.292">Parser(victimFile: String, messageFile: String, groupCount: int)</text><text fill="#000000" font-family="sans-serif" font-size="14" lengthAdjust="spacing" textLength="307" x="648" y="270.5889">-selectMessage(messages: String[]): String</text><text fill="#000000" font-family="sans-serif" font-size="14" lengthAdjust="spacing" textLength="327" x="648" y="286.8857">-selectCandidate(candidates: String[]): String</text><text fill="#000000" font-family="sans-serif" font-size="14" lengthAdjust="spacing" textLength="318" x="648" y="303.1826">-selectVictims(candidates: String[]): String[]</text><text fill="#000000" font-family="sans-serif" font-size="14" lengthAdjust="spacing" textLength="144" x="648" y="319.4795">+getGroups(): Mail[]</text><text fill="#000000" font-family="sans-serif" font-size="14" lengthAdjust="spacing" text-decoration="underline" textLength="230" x="648" y="335.7764">-parseFile(String path) : String[]</text></g><!--class Mail--><g id="elem_Mail"><rect codeLine="54" fill="#F1F1F1" height="162.0781" id="Mail" rx="2.5" ry="2.5" style="stroke:#181818;stroke-width:0.5;" width="413" x="598" y="404"/><ellipse cx="786.25" cy="420" fill="#ADD1B2" rx="11" ry="11" style="stroke:#181818;stroke-width:1.0;"/><path d="M788.5938,415.6719 C787.6563,415.2344 787.0625,415.0938 786.1875,415.0938 C783.5625,415.0938 781.5625,417.1719 781.5625,419.8906 L781.5625,421.0156 C781.5625,423.5938 783.6719,425.4844 786.5625,425.4844 C787.7813,425.4844 788.9375,425.1875 789.6875,424.6406 C790.2656,424.2344 790.5938,423.7813 790.5938,423.3906 C790.5938,422.9375 790.2031,422.5469 789.7344,422.5469 C789.5156,422.5469 789.3125,422.625 789.125,422.8125 C788.6719,423.2969 788.6719,423.2969 788.4844,423.3906 C788.0625,423.6563 787.375,423.7813 786.6094,423.7813 C784.5625,423.7813 783.2656,422.6875 783.2656,420.9844 L783.2656,419.8906 C783.2656,418.1094 784.5156,416.7969 786.25,416.7969 C786.8281,416.7969 787.4375,416.9531 787.9063,417.2031 C788.3906,417.4844 788.5625,417.7031 788.6563,418.1094 C788.7188,418.5156 788.75,418.6406 788.8906,418.7656 C789.0313,418.9063 789.2656,419.0156 789.4844,419.0156 C789.75,419.0156 790.0156,418.875 790.1875,418.6563 C790.2969,418.5 790.3281,418.3125 790.3281,417.8906 L790.3281,416.4688 C790.3281,416.0313 790.3125,415.9063 790.2188,415.75 C790.0625,415.4844 789.7813,415.3438 789.4844,415.3438 C789.1875,415.3438 788.9844,415.4375 788.7656,415.75 L788.5938,415.6719 Z " fill="#000000"/><text fill="#000000" font-family="sans-serif" font-size="14" lengthAdjust="spacing" textLength="28" x="806.75" y="424.8467">Mail</text><line style="stroke:#181818;stroke-width:0.5;" x1="599" x2="1010" y1="436" y2="436"/><text fill="#000000" font-family="sans-serif" font-size="14" lengthAdjust="spacing" textLength="108" x="604" y="452.9951">-sender: String</text><text fill="#000000" font-family="sans-serif" font-size="14" lengthAdjust="spacing" textLength="135" x="604" y="469.292">-receivers: String[]</text><text fill="#000000" font-family="sans-serif" font-size="14" lengthAdjust="spacing" textLength="122" x="604" y="485.5889">-message: String</text><line style="stroke:#181818;stroke-width:0.5;" x1="599" x2="1010" y1="492.8906" y2="492.8906"/><text fill="#000000" font-family="sans-serif" font-size="14" lengthAdjust="spacing" textLength="401" x="604" y="509.8857">Mail(sender: String, receivers: String[], message: String)</text><text fill="#000000" font-family="sans-serif" font-size="14" lengthAdjust="spacing" textLength="150" x="604" y="526.1826">+getSender(): String</text><text fill="#000000" font-family="sans-serif" font-size="14" lengthAdjust="spacing" textLength="179" x="604" y="542.4795">+getReceivers(): String[]</text><text fill="#000000" font-family="sans-serif" font-size="14" lengthAdjust="spacing" textLength="160" x="604" y="558.7764">+getMessage(): String</text></g><g id="elem_GMN9"><path d="M1046.5,472.5 L1046.5,481 L1011.1,485 L1046.5,489 L1046.5,497.6328 A0,0 0 0 0 1046.5,497.6328 L1144.5,497.6328 A0,0 0 0 0 1144.5,497.6328 L1144.5,482.5 L1134.5,472.5 L1046.5,472.5 A0,0 0 0 0 1046.5,472.5 " fill="#FEFFDD" style="stroke:#181818;stroke-width:0.5;"/><path d="M1134.5,472.5 L1134.5,482.5 L1144.5,482.5 L1134.5,472.5 " fill="#FEFFDD" style="stroke:#181818;stroke-width:0.5;"/><text fill="#000000" font-family="sans-serif" font-size="13" lengthAdjust="spacing" textLength="77" x="1052.5" y="489.5669">Java Record</text></g><!--class Runnable--><g id="elem_Runnable"><rect codeLine="67" fill="#F1F1F1" height="32" id="Runnable" rx="2.5" ry="2.5" style="stroke:#181818;stroke-width:0.5;" width="100" x="506.5" y="246"/><ellipse cx="521.5" cy="262" fill="#B4A7E5" rx="11" ry="11" style="stroke:#181818;stroke-width:1.0;"/><path d="M522.4531,258.7813 L524.1719,258.7813 C524.5625,258.7813 524.75,258.75 524.875,258.6719 C525.1406,258.5156 525.2813,258.2344 525.2813,257.9375 C525.2813,257.6719 525.1719,257.4063 524.9375,257.2344 C524.7656,257.125 524.625,257.0938 524.1719,257.0938 L519.0313,257.0938 C518.5938,257.0938 518.4688,257.1094 518.3125,257.2031 C518.0625,257.3594 517.9063,257.6563 517.9063,257.9375 C517.9063,258.2188 518.0469,258.4688 518.2656,258.6406 C518.4219,258.75 518.6094,258.7813 519.0313,258.7813 L520.75,258.7813 L520.75,265.2969 L519.0313,265.2969 C518.5938,265.2969 518.4688,265.3125 518.3125,265.4219 C518.0625,265.5781 517.9063,265.8594 517.9063,266.1563 C517.9063,266.4063 518.0469,266.6719 518.2656,266.8281 C518.4219,266.9531 518.625,267 519.0313,267 L524.1719,267 C524.9219,267 525.2813,266.7188 525.2813,266.1563 C525.2813,265.875 525.1719,265.625 524.9375,265.4531 C524.7656,265.3281 524.625,265.2969 524.1719,265.2969 L522.4531,265.2969 L522.4531,258.7813 Z " fill="#000000"/><text fill="#000000" font-family="sans-serif" font-size="14" font-style="italic" lengthAdjust="spacing" textLength="68" x="535.5" y="266.8467">Runnable</text></g><!--link Client to Handler--><g id="link_Client_Handler"><path codeLine="69" d="M562.433,120.021 C516.188,146.748 466.0718,175.7117 419.8188,202.4437 " fill="none" id="Client-to-Handler" style="stroke:#181818;stroke-width:1.0;stroke-dasharray:7.0,7.0;"/><polygon fill="#181818" points="414.624,205.446,424.4178,204.4057,418.953,202.944,420.4146,197.4793,414.624,205.446" style="stroke:#181818;stroke-width:1.0;"/></g><!--link Client to Parser--><g id="link_Client_Parser"><path codeLine="70" d="M718.966,120.021 C739.483,138.861 758.4155,156.2449 780.6085,176.6229 " fill="none" id="Client-to-Parser" style="stroke:#181818;stroke-width:1.0;stroke-dasharray:7.0,7.0;"/><polygon fill="#181818" points="785.028,180.681,781.1041,171.6476,781.3451,177.2993,775.6934,177.5402,785.028,180.681" style="stroke:#181818;stroke-width:1.0;"/></g><!--link Handler to Worker--><g id="link_Handler_Worker"><path codeLine="71" d="M328.089,318.768 C333.63,350.991 339.5823,385.6088 345.2313,418.4628 " fill="none" id="Handler-to-Worker" style="stroke:#181818;stroke-width:1.0;stroke-dasharray:7.0,7.0;"/><polygon fill="#181818" points="346.248,424.376,348.665,414.8283,345.4007,419.4483,340.7807,416.184,346.248,424.376" style="stroke:#181818;stroke-width:1.0;"/></g><!--link Runnable to Handler--><g id="link_Runnable_Handler"><path codeLine="72" d="M506.268,262 C494.811,262 501.355,262 489.898,262 " fill="none" id="Runnable-to-Handler" style="stroke:#181818;stroke-width:1.0;stroke-dasharray:7.0,7.0;"/><polygon fill="none" points="471.898,262,489.898,268,489.898,256,471.898,262" style="stroke:#181818;stroke-width:1.0;"/></g><!--link Parser to Mail--><g id="link_Parser_Mail"><path codeLine="73" d="M847.854,343.099 C841.773,362.863 837.0236,378.3003 830.9406,398.0693 " fill="none" id="Parser-to-Mail" style="stroke:#181818;stroke-width:1.0;stroke-dasharray:7.0,7.0;"/><polygon fill="#181818" points="829.176,403.804,835.646,396.3784,830.6465,399.0251,827.9998,394.0256,829.176,403.804" style="stroke:#181818;stroke-width:1.0;"/></g><!--link Worker to Mail--><g id="link_Worker_Mail"><path codeLine="74" d="M477.145,485 C514.335,485 550.393,485 591.669,485 " fill="none" id="Worker-to-Mail" style="stroke:#181818;stroke-width:1.0;"/><polygon fill="#181818" points="597.669,485,588.669,481,592.669,485,588.669,489,597.669,485" style="stroke:#181818;stroke-width:1.0;"/><polygon fill="#000000" points="512,473.5664,502.9549,470.6275,502.9549,476.5053,512,473.5664" style="stroke:#000000;stroke-width:1.0;"/><text fill="#000000" font-family="sans-serif" font-size="13" lengthAdjust="spacing" textLength="56" x="516" y="478.0669">Message</text><text fill="#000000" font-family="sans-serif" font-size="13" lengthAdjust="spacing" textLength="7" x="485.098" y="481.5752">*</text><text fill="#000000" font-family="sans-serif" font-size="13" lengthAdjust="spacing" textLength="8" x="582.0923" y="481.7983">1</text></g><!--reverse link SmtpCommand to Worker--><g id="link_SmtpCommand_Worker"><path codeLine="75" d="M158.278,485 C183.845,485 207.302,485 235.743,485 " fill="none" id="SmtpCommand-backto-Worker" style="stroke:#181818;stroke-width:1.0;"/><polygon fill="#181818" points="152.278,485,161.278,489,157.278,485,161.278,481,152.278,485" style="stroke:#181818;stroke-width:1.0;"/><polygon fill="#000000" points="169.5,473.5664,178.5451,476.5053,178.5451,470.6275,169.5,473.5664" style="stroke:#000000;stroke-width:1.0;"/><text fill="#000000" font-family="sans-serif" font-size="13" lengthAdjust="spacing" textLength="34" x="183.5" y="478.0669">State</text><text fill="#000000" font-family="sans-serif" font-size="13" lengthAdjust="spacing" textLength="8" x="160.1957" y="481.2753">1</text><text fill="#000000" font-family="sans-serif" font-size="13" lengthAdjust="spacing" textLength="7" x="221.1711" y="481.5992">*</text></g><!--link Worker to SmtpStatus--><g id="link_Worker_SmtpStatus"><path codeLine="76" d="M356.5,545.59 C356.5,571.649 356.5,595.924 356.5,620.991 " fill="none" id="Worker-to-SmtpStatus" style="stroke:#181818;stroke-width:1.0;stroke-dasharray:7.0,7.0;"/><polygon fill="#181818" points="356.5,626.991,360.5,617.991,356.5,621.991,352.5,617.991,356.5,626.991" style="stroke:#181818;stroke-width:1.0;"/></g><!--SRC=[fLHBRzim3BxxLn2vp5dZf8_ruaE1B7iqGuDrJRSTYXuKct64s58WoMcxhlzzb2mbTb1iX_aYcY8_lZxgpSgOZKv7eqt9XAchSfZ9QfILJEiavwnGh8hqceiD8mcSVcoCuelQu3IJOiv_8HotJ0ebwyrKh51nmqI6S1QjU8w0rSOyGOLc9NFTLLKBL3gA73XCIex2m7C4z3rhmmpFNk08AiP5p5IXKvXJV57StVTJs4gUEyl46fHqEQFZxjxfZZnOlEMPuTKdNc9m7b1OhLc1NQLBVY9hOLBWmlGz33vYHlN68U1BIFQIYRn4vRDDGCjiZUGxTwTNFaYrHfN2JtSwfVUBk_Q30zCGNjKYxiDXxCR6Xsv-ObkyQqHmjO2nBpMKQQ4QoIT8in26coTRN-V28bqYomdvjQltCc_xK6OewWhcbQ4ULXNLwBFxU7drrGcpyVJA2JUJwridV1ZVZftmxVlqjWCnfz7NsYESdXxxywGvpvl_i_Dt-uvSCwLRmt33x3AYiVXFFj2OiSJCp1gFqDukCJlDQkmdr12UC-9H5gH_-lnmcUg_U-peNg3vx8gsKscLlLkZ13Qs0xR8kF4bXLdj6K4EktOwCksOZIAtpEpag313lgNbFSWaWGFADSCdlBYBCtWDOd3etT-NDtVk1snqDpS1A7wrBs5O7ReAQH0KBrO6vDBbby8NjcL0O5BbKHJHq54j6JrZDxKGR55Y5FaNQZYy27lSLZKKYyBBCCpbWo2rN_w00aCNTlXxZ-7PQp5i9f7VxzxR7YJEEBc0tacl6KiAFLyHNFGwfYKkWsLx4Sd1BbJRFAIsNxO_]--></g></svg>